<svg width="40" height="40" viewBox="0 0 40 40" fill="none" xmlns="http://www.w3.org/2000/svg">
<path d="M18.1538 16.9716C18.1457 16.9716 18.1364 16.9721 18.1277 16.9727C18.2525 14.9122 18.6621 13.333 15.5834 13.3333C12.5191 13.3336 12.916 14.9122 13.0408 16.9727C13.0321 16.9721 13.0236 16.9716 13.0155 16.9716C12.8862 16.9716 12.6784 17.0881 12.7075 17.5731C12.7398 18.1137 13.0708 18.8146 13.2978 18.8506C13.6974 20.3194 14.5279 21.0095 15.5834 21.0095C16.6364 21.0095 17.4708 20.3194 17.8705 18.8506C18.0974 18.8146 18.4298 18.1137 18.4622 17.5731C18.4912 17.0881 18.283 16.9716 18.1538 16.9716Z" fill="#111827"/>
<path d="M17.7811 20.7376C17.2524 21.9434 16.4643 22.4317 15.5837 22.4317C14.7032 22.4317 13.915 21.9434 13.3864 20.7376C11.3951 21.178 10 22.1987 10 23.3877C10 24.9794 12.4999 26.2697 15.5837 26.2697C18.6675 26.2697 21.1675 24.9794 21.1675 23.3877C21.1675 22.1987 19.7723 21.178 17.7811 20.7376Z" fill="#111827"/>
<path d="M23.7054 24.8802H29.3265C29.4756 24.8802 29.6186 24.821 29.724 24.7156C29.8294 24.6102 29.8887 24.4672 29.8887 24.3181C29.8887 24.169 29.8294 24.026 29.724 23.9206C29.6186 23.8152 29.4756 23.756 29.3265 23.756H23.7054C23.5563 23.756 23.4134 23.8152 23.3079 23.9206C23.2025 24.026 23.1433 24.169 23.1433 24.3181C23.1433 24.4672 23.2025 24.6102 23.3079 24.7156C23.4134 24.821 23.5563 24.8802 23.7054 24.8802Z" fill="#111827"/>
<path d="M23.7054 17.7909H29.3265C29.4756 17.7909 29.6186 17.7317 29.724 17.6263C29.8294 17.5209 29.8887 17.3779 29.8887 17.2288C29.8887 17.0797 29.8294 16.9367 29.724 16.8313C29.6186 16.7259 29.4756 16.6667 29.3265 16.6667H23.7054C23.5563 16.6667 23.4134 16.7259 23.3079 16.8313C23.2025 16.9367 23.1433 17.0797 23.1433 17.2288C23.1433 17.3779 23.2025 17.5209 23.3079 17.6263C23.4134 17.7317 23.5563 17.7909 23.7054 17.7909Z" fill="#111827"/>
<path d="M23.7056 21.5079H27.0794C27.2285 21.5079 27.3715 21.4486 27.477 21.3432C27.5824 21.2377 27.6417 21.0947 27.6417 20.9456C27.6417 20.7965 27.5824 20.6534 27.477 20.548C27.3715 20.4425 27.2285 20.3833 27.0794 20.3833H23.7056C23.5565 20.3833 23.4135 20.4425 23.308 20.548C23.2026 20.6534 23.1433 20.7965 23.1433 20.9456C23.1433 21.0947 23.2026 21.2377 23.308 21.3432C23.4135 21.4486 23.5565 21.5079 23.7056 21.5079Z" fill="#111827"/>
<rect x="7.36663" y="10.7" width="25.5833" height="18.8333" rx="0.966667" stroke="#111827" stroke-width="1.4" stroke-linejoin="round"/>
</svg>
