<svg width="24" height="24" viewBox="0 0 24 24" fill="none" xmlns="http://www.w3.org/2000/svg">
<path d="M3.25 20V19.1058L4.74995 17.6058V20C4.74995 20.2125 4.67805 20.3906 4.53425 20.5344C4.39043 20.6781 4.21223 20.75 3.99965 20.75C3.78705 20.75 3.60896 20.6781 3.46537 20.5344C3.32179 20.3906 3.25 20.2125 3.25 20ZM7.25 20V15.1058L8.74995 13.6058V20C8.74995 20.2125 8.67805 20.3906 8.53425 20.5344C8.39043 20.6781 8.21223 20.75 7.99965 20.75C7.78705 20.75 7.60896 20.6781 7.46537 20.5344C7.32179 20.3906 7.25 20.2125 7.25 20ZM11.25 20V13.6058L12.75 15.1308V20C12.75 20.2125 12.6781 20.3906 12.5343 20.5344C12.3904 20.6781 12.2122 20.75 11.9997 20.75C11.7871 20.75 11.609 20.6781 11.4654 20.5344C11.3218 20.3906 11.25 20.2125 11.25 20ZM15.25 20V15.1308L16.75 13.6308V20C16.75 20.2125 16.6781 20.3906 16.5343 20.5344C16.3904 20.6781 16.2122 20.75 15.9997 20.75C15.7871 20.75 15.609 20.6781 15.4654 20.5344C15.3218 20.3906 15.25 20.2125 15.25 20ZM19.25 20V11.1058L20.75 9.60583V20C20.75 20.2125 20.6781 20.3906 20.5343 20.5344C20.3904 20.6781 20.2122 20.75 19.9997 20.75C19.7871 20.75 19.609 20.6781 19.4654 20.5344C19.3218 20.3906 19.25 20.2125 19.25 20ZM3.47307 12.8827L8.71922 7.63655C9.06366 7.29169 9.49047 7.11925 9.99965 7.11925C10.5088 7.11925 10.9359 7.29169 11.2807 7.63655L13.7788 10.1346C13.8365 10.1923 13.9102 10.2212 14 10.2212C14.0897 10.2212 14.1635 10.1923 14.2212 10.1346L19.4731 4.8827C19.6218 4.73399 19.8 4.66059 20.0077 4.66253C20.2154 4.66444 20.3936 4.74297 20.5423 4.8981C20.6807 5.0468 20.7469 5.2238 20.7407 5.42908C20.7345 5.63436 20.6632 5.80544 20.5269 5.9423L15.2807 11.1885C14.9363 11.5333 14.5095 11.7058 14.0003 11.7058C13.4911 11.7058 13.0641 11.5333 12.7192 11.1885L10.2211 8.69038C10.1635 8.63268 10.0897 8.60383 9.99998 8.60383C9.91023 8.60383 9.8365 8.63268 9.7788 8.69038L4.52688 13.9423C4.37818 14.091 4.19997 14.1644 3.99227 14.1625C3.78459 14.1606 3.60639 14.082 3.45767 13.9269C3.31922 13.7782 3.2531 13.6012 3.2593 13.3959C3.26548 13.1906 3.33674 13.0196 3.47307 12.8827Z" fill="#49454F"/>
</svg>
