<svg width="10" height="11" viewBox="0 0 10 11" fill="none" xmlns="http://www.w3.org/2000/svg">
<path d="M9.15418 8.13748C9.15418 8.28748 9.12084 8.44165 9.05001 8.59165C8.97918 8.74165 8.88751 8.88331 8.76668 9.01665C8.56251 9.24165 8.33751 9.40415 8.08334 9.50831C7.83334 9.61248 7.56251 9.66665 7.27084 9.66665C6.84584 9.66665 6.39168 9.56665 5.91251 9.36248C5.43334 9.15831 4.95418 8.88331 4.47918 8.53748C4.00001 8.18748 3.54584 7.79998 3.11251 7.37081C2.68334 6.93748 2.29584 6.48331 1.95001 6.00831C1.60834 5.53331 1.33334 5.05831 1.13334 4.58748C0.933344 4.11248 0.833344 3.65831 0.833344 3.22498C0.833344 2.94165 0.883343 2.67081 0.983343 2.42081C1.08334 2.16665 1.24168 1.93331 1.46251 1.72498C1.72918 1.46248 2.02084 1.33331 2.32918 1.33331C2.44584 1.33331 2.56251 1.35831 2.66668 1.40831C2.77501 1.45831 2.87084 1.53331 2.94584 1.64165L3.91251 3.00415C3.98751 3.10831 4.04168 3.20415 4.07918 3.29581C4.11668 3.38331 4.13751 3.47081 4.13751 3.54998C4.13751 3.64998 4.10834 3.74998 4.05001 3.84581C3.99584 3.94165 3.91668 4.04165 3.81668 4.14165L3.50001 4.47081C3.45418 4.51665 3.43334 4.57081 3.43334 4.63748C3.43334 4.67081 3.43751 4.69998 3.44584 4.73331C3.45834 4.76665 3.47084 4.79165 3.47918 4.81665C3.55418 4.95415 3.68334 5.13331 3.86668 5.34998C4.05418 5.56665 4.25418 5.78748 4.47084 6.00831C4.69584 6.22915 4.91251 6.43331 5.13334 6.62081C5.35001 6.80415 5.52918 6.92915 5.67084 7.00415C5.69168 7.01248 5.71668 7.02498 5.74584 7.03748C5.77918 7.04998 5.81251 7.05415 5.85001 7.05415C5.92084 7.05415 5.97501 7.02915 6.02084 6.98331L6.33751 6.67081C6.44168 6.56665 6.54168 6.48748 6.63751 6.43748C6.73334 6.37915 6.82918 6.34998 6.93334 6.34998C7.01251 6.34998 7.09584 6.36665 7.18751 6.40415C7.27918 6.44165 7.37501 6.49581 7.47918 6.56665L8.85834 7.54581C8.96668 7.62081 9.04168 7.70831 9.08751 7.81248C9.12918 7.91665 9.15418 8.02081 9.15418 8.13748Z" stroke="#4B5563" stroke-miterlimit="10"/>
</svg>
