<svg width="16" height="16" viewBox="0 0 16 16" fill="none" xmlns="http://www.w3.org/2000/svg">
<g clip-path="url(#clip0_2795_125548)">
<path d="M8 16C12.4183 16 16 12.4183 16 8C16 3.58172 12.4183 0 8 0C3.58172 0 0 3.58172 0 8C0 12.4183 3.58172 16 8 16Z" fill="#FFC107"/>
<path fill-rule="evenodd" clip-rule="evenodd" d="M12.7607 11.3371C12.8449 11.3369 12.9255 11.3035 12.985 11.244C13.0445 11.1845 13.078 11.1038 13.0781 11.0196V5.02406L8.22553 8.8775C8.16141 8.92851 8.0819 8.95628 7.99997 8.95628C7.91804 8.95628 7.83852 8.92851 7.77441 8.8775L2.92188 5.02406V11.0196C2.92197 11.1038 2.95544 11.1845 3.01494 11.244C3.07444 11.3035 3.15512 11.337 3.23928 11.3371H12.7607ZM12.3663 4.66294L8 8.13031L3.63359 4.66294H12.3663Z" fill="white"/>
</g>
<defs>
<clipPath id="clip0_2795_125548">
<rect width="16" height="16" fill="white"/>
</clipPath>
</defs>
</svg>
