<svg width="40" height="40" viewBox="0 0 40 40" fill="none" xmlns="http://www.w3.org/2000/svg">
<path d="M17.5832 33.0961C18.8225 30.75 20.4304 29.1613 22.4069 28.3301C24.3834 27.4989 26.081 27.0833 27.4998 27.0833C28.1066 27.0833 28.6916 27.1309 29.2546 27.226C29.8176 27.321 30.3694 27.4466 30.91 27.6025C31.6088 26.6004 32.1873 25.4482 32.6456 24.1458C33.104 22.8435 33.3331 21.4615 33.3331 20C33.3331 16.2777 32.0415 13.125 29.4581 10.5416C26.8748 7.95828 23.722 6.66662 19.9998 6.66662C16.2776 6.66662 13.1248 7.95828 10.5415 10.5416C7.95813 13.125 6.66646 16.2777 6.66646 20C6.66646 21.3461 6.85289 22.6234 7.22575 23.8317C7.59862 25.04 8.12587 26.1517 8.8075 27.1667C9.90364 26.579 11.0228 26.1405 12.1649 25.851C13.307 25.5614 14.4816 25.4167 15.6889 25.4167C16.4816 25.4167 17.2476 25.4824 17.987 25.6137C18.7263 25.7452 19.4025 25.9038 20.0158 26.0897C19.5371 26.3589 19.0906 26.657 18.676 26.9839C18.2615 27.3108 17.863 27.6655 17.4806 28.048C17.2113 27.9924 16.9213 27.9566 16.6104 27.9406C16.2995 27.9246 15.9923 27.9166 15.6889 27.9166C14.7676 27.9166 13.8535 28.0245 12.9466 28.2403C12.0397 28.4561 11.1835 28.7798 10.378 29.2115C11.3417 30.2393 12.4389 31.0811 13.6697 31.7371C14.9004 32.3931 16.205 32.8461 17.5832 33.0961ZM20.0026 35.8332C17.8127 35.8332 15.7543 35.4177 13.8274 34.5866C11.9005 33.7555 10.2244 32.6276 8.799 31.2028C7.37362 29.7781 6.24518 28.1027 5.41371 26.1766C4.58224 24.2506 4.1665 22.1926 4.1665 20.0027C4.1665 17.8129 4.58206 15.7545 5.41317 13.8276C6.24428 11.9007 7.3722 10.2245 8.79692 8.79916C10.2217 7.37377 11.8971 6.24534 13.8231 5.41387C15.7492 4.58239 17.8071 4.16666 19.997 4.16666C22.1869 4.16666 24.2453 4.58221 26.1722 5.41333C28.0991 6.24444 29.7752 7.37235 31.2006 8.79707C32.626 10.2218 33.7544 11.8972 34.5859 13.8233C35.4174 15.7493 35.8331 17.8073 35.8331 19.9972C35.8331 22.187 35.4175 24.2454 34.5864 26.1723C33.7553 28.0992 32.6274 29.7754 31.2027 31.2007C29.7779 32.6261 28.1025 33.7546 26.1765 34.586C24.2504 35.4175 22.1925 35.8332 20.0026 35.8332ZM15.8331 22.0832C14.3289 22.0832 13.05 21.5565 11.9966 20.5031C10.9432 19.4497 10.4165 18.1709 10.4165 16.6666C10.4165 15.1623 10.9432 13.8835 11.9966 12.8301C13.05 11.7767 14.3289 11.25 15.8331 11.25C17.3374 11.25 18.6162 11.7767 19.6696 12.8301C20.723 13.8835 21.2498 15.1623 21.2498 16.6666C21.2498 18.1709 20.723 19.4497 19.6696 20.5031C18.6162 21.5565 17.3374 22.0832 15.8331 22.0832ZM15.8331 19.5833C16.6344 19.5833 17.3209 19.2975 17.8925 18.726C18.464 18.1543 18.7498 17.4679 18.7498 16.6666C18.7498 15.8653 18.464 15.1789 17.8925 14.6073C17.3209 14.0357 16.6344 13.7499 15.8331 13.7499C15.0319 13.7499 14.3454 14.0357 13.7738 14.6073C13.2022 15.1789 12.9164 15.8653 12.9164 16.6666C12.9164 17.4679 13.2022 18.1543 13.7738 18.726C14.3454 19.2975 15.0319 19.5833 15.8331 19.5833ZM27.4998 24.0705C26.36 24.0705 25.3967 23.677 24.6098 22.89C23.8228 22.103 23.4293 21.1397 23.4293 20C23.4293 18.8602 23.8228 17.8969 24.6098 17.1099C25.3967 16.3229 26.36 15.9295 27.4998 15.9295C28.6395 15.9295 29.6029 16.3229 30.3898 17.1099C31.1768 17.8969 31.5703 18.8602 31.5703 20C31.5703 21.1397 31.1768 22.103 30.3898 22.89C29.6029 23.677 28.6395 24.0705 27.4998 24.0705Z" fill="#49454F"/>
</svg>
