<svg width="18" height="18" viewBox="0 0 18 18" fill="none" xmlns="http://www.w3.org/2000/svg">
<path d="M9.2 11.975C10.0283 11.975 10.7312 11.6863 11.3087 11.1088C11.8862 10.5313 12.175 9.82833 12.175 9C12.175 8.17167 11.8862 7.46875 11.3087 6.89125C10.7312 6.31375 10.0283 6.025 9.2 6.025C8.37166 6.025 7.66876 6.31375 7.09126 6.89125C6.51376 7.46875 6.22499 8.17167 6.22499 9C6.22499 9.82833 6.51376 10.5313 7.09126 11.1088C7.66876 11.6863 8.37166 11.975 9.2 11.975ZM9.2 10.96C8.65166 10.96 8.18793 10.7704 7.80876 10.3913C7.42959 10.0121 7.23999 9.54833 7.23999 9C7.23999 8.45167 7.42959 7.98791 7.80876 7.60875C8.18793 7.22958 8.65166 7.04 9.2 7.04C9.74833 7.04 10.2121 7.22958 10.5912 7.60875C10.9704 7.98791 11.16 8.45167 11.16 9C11.16 9.54833 10.9704 10.0121 10.5912 10.3913C10.2121 10.7704 9.74833 10.96 9.2 10.96ZM9.2 14.25C7.49666 14.25 5.95668 13.7658 4.58002 12.7975C3.20335 11.8292 2.17667 10.5633 1.5 9C2.17667 7.43667 3.20335 6.17083 4.58002 5.2025C5.95668 4.23417 7.49666 3.75 9.2 3.75C10.9033 3.75 12.4434 4.23417 13.82 5.2025C15.1967 6.17083 16.2233 7.43667 16.9 9C16.2233 10.5633 15.1967 11.8292 13.82 12.7975C12.4434 13.7658 10.9033 14.25 9.2 14.25ZM9.2 13.2C10.6117 13.2 11.9096 12.8179 13.0937 12.0537C14.2779 11.2896 15.1792 10.2717 15.7975 9C15.1792 7.72833 14.2779 6.71042 13.0937 5.94625C11.9096 5.18209 10.6117 4.8 9.2 4.8C7.78833 4.8 6.49043 5.18209 5.30626 5.94625C4.12209 6.71042 3.21499 7.72833 2.58499 9C3.21499 10.2717 4.12209 11.2896 5.30626 12.0537C6.49043 12.8179 7.78833 13.2 9.2 13.2Z" fill="#001E27" fill-opacity="0.9"/>
</svg>
