<svg width="24" height="24" viewBox="0 0 24 24" fill="none" xmlns="http://www.w3.org/2000/svg">
<path d="M12 2C17.5228 2 22 6.47715 22 12C22 17.5228 17.5228 22 12 22C6.47715 22 2 17.5228 2 12C2 6.47715 6.47715 2 12 2ZM12 4C7.58172 4 4 7.58172 4 12C4 16.4183 7.58172 20 12 20C16.4183 20 20 16.4183 20 12C20 7.58172 16.4183 4 12 4ZM12 9.5C12.5523 9.5 13 9.94772 13 10.5V16.5C13 17.0523 12.5523 17.5 12 17.5C11.4477 17.5 11 17.0523 11 16.5V10.5C11 9.94772 11.4477 9.5 12 9.5ZM12.0023 6.5C12.5546 6.5 13.0023 6.94692 13.0023 7.5C13.0023 8.05231 12.5546 8.5 12.0023 8.5C11.45 8.5 11.0023 8.05231 11.0023 7.5C11.0023 6.94692 11.45 6.5 12.0023 6.5Z" fill="#B3BCBE"/>
</svg>
