<svg width="80" height="939" viewBox="0 0 80 939" fill="none" xmlns="http://www.w3.org/2000/svg">
<g filter="url(#filter0_b_62_51462)">
<rect width="80" height="1024" fill="#CCCCCC" fill-opacity="0.3" style="mix-blend-mode:luminosity"/>
<rect x="0.5" y="0.5" width="79" height="1023" stroke="url(#paint0_linear_62_51462)"/>
<g clip-path="url(#clip0_62_51462)">
<path fill-rule="evenodd" clip-rule="evenodd" d="M49 36L49 38L31 38L31 36L49 36ZM49 31L31 31L31 33L49 33L49 31ZM49 26L31 26L31 28L49 28L49 26Z" fill="#49454F"/>
</g>
<g clip-path="url(#clip1_62_51462)">
<g filter="url(#filter1_dd_62_51462)">
<g clip-path="url(#clip2_62_51462)">
<rect x="12" y="60" width="56" height="56" rx="16" fill="white"/>
<path d="M37.02 78.8399L31.63 83.0399C30.73 83.7399 30 85.2299 30 86.3599V93.7699C30 96.0899 31.89 97.9899 34.21 97.9899H45.79C48.11 97.9899 50 96.0899 50 93.7799V86.4999C50 85.2899 49.19 83.7399 48.2 83.0499L42.02 78.7199C40.62 77.7399 38.37 77.7899 37.02 78.8399Z" stroke="#111827" stroke-width="1.5" stroke-linecap="round" stroke-linejoin="round"/>
<path d="M40 93.99V90.99" stroke="#111827" stroke-width="1.5" stroke-linecap="round" stroke-linejoin="round"/>
</g>
</g>
</g>
<g clip-path="url(#clip3_62_51462)">
<path d="M49.67 155.3L49.27 160.3C49.12 161.83 49 163 46.29 163H33.71C31 163 30.88 161.83 30.73 160.3L30.33 155.3C30.25 154.47 30.51 153.7 30.98 153.11C30.99 153.1 30.99 153.1 31 153.09C31.55 152.42 32.38 152 33.31 152H46.69C47.62 152 48.44 152.42 48.98 153.07C48.99 153.08 49 153.09 49 153.1C49.49 153.69 49.76 154.46 49.67 155.3Z" stroke="#49454F" stroke-width="1.5" stroke-miterlimit="10"/>
<path d="M31.5 152.43V147.28C31.5 143.88 32.35 143.03 35.75 143.03H37.02C38.29 143.03 38.58 143.41 39.06 144.05L40.33 145.75C40.65 146.17 40.84 146.43 41.69 146.43H44.24C47.64 146.43 48.49 147.28 48.49 150.68V152.47" stroke="#49454F" stroke-width="1.5" stroke-miterlimit="10" stroke-linecap="round" stroke-linejoin="round"/>
<path d="M37.4301 158H42.5701" stroke="#49454F" stroke-width="1.5" stroke-miterlimit="10" stroke-linecap="round" stroke-linejoin="round"/>
</g>
<path d="M19.1602 177.605L16.6113 185H15.0703L18.2812 176.469H19.2656L19.1602 177.605ZM21.293 185L18.7383 177.605L18.627 176.469H19.6172L22.8398 185H21.293ZM21.1699 181.836V183.002H16.5293V181.836H21.1699ZM25.5723 179.867V185H24.1602V178.66H25.5078L25.5723 179.867ZM27.5117 178.619L27.5 179.932C27.4141 179.916 27.3203 179.904 27.2188 179.896C27.1211 179.889 27.0234 179.885 26.9258 179.885C26.6836 179.885 26.4707 179.92 26.2871 179.99C26.1035 180.057 25.9492 180.154 25.8242 180.283C25.7031 180.408 25.6094 180.561 25.543 180.74C25.4766 180.92 25.4375 181.121 25.4258 181.344L25.1035 181.367C25.1035 180.969 25.1426 180.6 25.2207 180.26C25.2988 179.92 25.416 179.621 25.5723 179.363C25.7324 179.105 25.9316 178.904 26.1699 178.76C26.4121 178.615 26.6914 178.543 27.0078 178.543C27.0938 178.543 27.1855 178.551 27.2832 178.566C27.3848 178.582 27.4609 178.6 27.5117 178.619ZM31.3691 183.992C31.5996 183.992 31.8066 183.947 31.9902 183.857C32.1777 183.764 32.3281 183.635 32.4414 183.471C32.5586 183.307 32.623 183.117 32.6348 182.902H33.9648C33.957 183.312 33.8359 183.686 33.6016 184.021C33.3672 184.357 33.0566 184.625 32.6699 184.824C32.2832 185.02 31.8555 185.117 31.3867 185.117C30.9023 185.117 30.4805 185.035 30.1211 184.871C29.7617 184.703 29.4629 184.473 29.2246 184.18C28.9863 183.887 28.8066 183.549 28.6855 183.166C28.5684 182.783 28.5098 182.373 28.5098 181.936V181.73C28.5098 181.293 28.5684 180.883 28.6855 180.5C28.8066 180.113 28.9863 179.773 29.2246 179.48C29.4629 179.188 29.7617 178.959 30.1211 178.795C30.4805 178.627 30.9004 178.543 31.3809 178.543C31.8887 178.543 32.334 178.645 32.7168 178.848C33.0996 179.047 33.4004 179.326 33.6191 179.686C33.8418 180.041 33.957 180.455 33.9648 180.928H32.6348C32.623 180.693 32.5645 180.482 32.459 180.295C32.3574 180.104 32.2129 179.951 32.0254 179.838C31.8418 179.725 31.6211 179.668 31.3633 179.668C31.0781 179.668 30.8418 179.727 30.6543 179.844C30.4668 179.957 30.3203 180.113 30.2148 180.312C30.1094 180.508 30.0332 180.729 29.9863 180.975C29.9434 181.217 29.9219 181.469 29.9219 181.73V181.936C29.9219 182.197 29.9434 182.451 29.9863 182.697C30.0293 182.943 30.1035 183.164 30.209 183.359C30.3184 183.551 30.4668 183.705 30.6543 183.822C30.8418 183.936 31.0801 183.992 31.3691 183.992ZM36.9434 176V185H35.5371V176H36.9434ZM36.6973 181.596L36.2402 181.59C36.2441 181.152 36.3047 180.748 36.4219 180.377C36.543 180.006 36.7109 179.684 36.9258 179.41C37.1445 179.133 37.4062 178.92 37.7109 178.771C38.0156 178.619 38.3535 178.543 38.7246 178.543C39.0371 178.543 39.3184 178.586 39.5684 178.672C39.8223 178.758 40.041 178.896 40.2246 179.088C40.4082 179.275 40.5469 179.521 40.6406 179.826C40.7383 180.127 40.7871 180.494 40.7871 180.928V185H39.3691V180.916C39.3691 180.611 39.3242 180.369 39.2344 180.189C39.1484 180.01 39.0215 179.881 38.8535 179.803C38.6855 179.721 38.4805 179.68 38.2383 179.68C37.9844 179.68 37.7598 179.73 37.5645 179.832C37.373 179.934 37.2129 180.072 37.084 180.248C36.9551 180.424 36.8574 180.627 36.791 180.857C36.7285 181.088 36.6973 181.334 36.6973 181.596ZM44.2285 178.66V185H42.8105V178.66H44.2285ZM42.7168 176.996C42.7168 176.781 42.7871 176.604 42.9277 176.463C43.0723 176.318 43.2715 176.246 43.5254 176.246C43.7754 176.246 43.9727 176.318 44.1172 176.463C44.2617 176.604 44.334 176.781 44.334 176.996C44.334 177.207 44.2617 177.383 44.1172 177.523C43.9727 177.664 43.7754 177.734 43.5254 177.734C43.2715 177.734 43.0723 177.664 42.9277 177.523C42.7871 177.383 42.7168 177.207 42.7168 176.996ZM48.3379 183.881L49.8906 178.66H51.3555L49.1523 185H48.2383L48.3379 183.881ZM47.1484 178.66L48.7305 183.904L48.8066 185H47.8926L45.6777 178.66H47.1484ZM55.4414 185.117C54.9727 185.117 54.5488 185.041 54.1699 184.889C53.7949 184.732 53.4746 184.516 53.209 184.238C52.9473 183.961 52.7461 183.635 52.6055 183.26C52.4648 182.885 52.3945 182.48 52.3945 182.047V181.812C52.3945 181.316 52.4668 180.867 52.6113 180.465C52.7559 180.062 52.957 179.719 53.2148 179.434C53.4727 179.145 53.7773 178.924 54.1289 178.771C54.4805 178.619 54.8613 178.543 55.2715 178.543C55.7246 178.543 56.1211 178.619 56.4609 178.771C56.8008 178.924 57.082 179.139 57.3047 179.416C57.5312 179.689 57.6992 180.016 57.8086 180.395C57.9219 180.773 57.9785 181.191 57.9785 181.648V182.252H53.0801V181.238H56.584V181.127C56.5762 180.873 56.5254 180.635 56.4316 180.412C56.3418 180.189 56.2031 180.01 56.0156 179.873C55.8281 179.736 55.5781 179.668 55.2656 179.668C55.0312 179.668 54.8223 179.719 54.6387 179.82C54.459 179.918 54.3086 180.061 54.1875 180.248C54.0664 180.436 53.9727 180.662 53.9062 180.928C53.8438 181.189 53.8125 181.484 53.8125 181.812V182.047C53.8125 182.324 53.8496 182.582 53.9238 182.82C54.002 183.055 54.1152 183.26 54.2637 183.436C54.4121 183.611 54.5918 183.75 54.8027 183.852C55.0137 183.949 55.2539 183.998 55.5234 183.998C55.8633 183.998 56.166 183.93 56.4316 183.793C56.6973 183.656 56.9277 183.463 57.123 183.213L57.8672 183.934C57.7305 184.133 57.5527 184.324 57.334 184.508C57.1152 184.688 56.8477 184.834 56.5312 184.947C56.2188 185.061 55.8555 185.117 55.4414 185.117ZM63.1367 183.283C63.1367 183.143 63.1016 183.016 63.0312 182.902C62.9609 182.785 62.8262 182.68 62.627 182.586C62.4316 182.492 62.1426 182.406 61.7598 182.328C61.4238 182.254 61.1152 182.166 60.834 182.064C60.5566 181.959 60.3184 181.832 60.1191 181.684C59.9199 181.535 59.7656 181.359 59.6562 181.156C59.5469 180.953 59.4922 180.719 59.4922 180.453C59.4922 180.195 59.5488 179.951 59.6621 179.721C59.7754 179.49 59.9375 179.287 60.1484 179.111C60.3594 178.936 60.6152 178.797 60.916 178.695C61.2207 178.594 61.5605 178.543 61.9355 178.543C62.4668 178.543 62.9219 178.633 63.3008 178.812C63.6836 178.988 63.9766 179.229 64.1797 179.533C64.3828 179.834 64.4844 180.174 64.4844 180.553H63.0723C63.0723 180.385 63.0293 180.229 62.9434 180.084C62.8613 179.936 62.7363 179.816 62.5684 179.727C62.4004 179.633 62.1895 179.586 61.9355 179.586C61.6934 179.586 61.4922 179.625 61.332 179.703C61.1758 179.777 61.0586 179.875 60.9805 179.996C60.9062 180.117 60.8691 180.25 60.8691 180.395C60.8691 180.5 60.8887 180.596 60.9277 180.682C60.9707 180.764 61.041 180.84 61.1387 180.91C61.2363 180.977 61.3691 181.039 61.5371 181.098C61.709 181.156 61.9238 181.213 62.1816 181.268C62.666 181.369 63.082 181.5 63.4297 181.66C63.7812 181.816 64.0508 182.02 64.2383 182.27C64.4258 182.516 64.5195 182.828 64.5195 183.207C64.5195 183.488 64.459 183.746 64.3379 183.98C64.2207 184.211 64.0488 184.412 63.8223 184.584C63.5957 184.752 63.3242 184.883 63.0078 184.977C62.6953 185.07 62.3438 185.117 61.9531 185.117C61.3789 185.117 60.8926 185.016 60.4941 184.812C60.0957 184.605 59.793 184.342 59.5859 184.021C59.3828 183.697 59.2812 183.361 59.2812 183.014H60.6465C60.6621 183.275 60.7344 183.484 60.8633 183.641C60.9961 183.793 61.1602 183.904 61.3555 183.975C61.5547 184.041 61.7598 184.074 61.9707 184.074C62.2246 184.074 62.4375 184.041 62.6094 183.975C62.7812 183.904 62.9121 183.811 63.002 183.693C63.0918 183.572 63.1367 183.436 63.1367 183.283Z" fill="#49454F"/>
<g clip-path="url(#clip4_62_51462)">
<path d="M32.3077 228.5C31.8106 228.5 31.385 228.323 31.031 227.969C30.677 227.615 30.5 227.189 30.5 226.692V223.952C30.5 223.788 30.5471 223.642 30.6414 223.515C30.7356 223.388 30.8615 223.302 31.0192 223.256C31.4577 223.052 31.8141 222.749 32.0885 222.348C32.3628 221.946 32.5 221.497 32.5 221C32.5 220.502 32.3628 220.053 32.0885 219.652C31.8141 219.251 31.4577 218.948 31.0192 218.744C30.8615 218.698 30.7356 218.611 30.6414 218.485C30.5471 218.358 30.5 218.212 30.5 218.048V215.308C30.5 214.811 30.677 214.385 31.031 214.031C31.385 213.677 31.8106 213.5 32.3077 213.5H47.6923C48.1894 213.5 48.6149 213.677 48.9689 214.031C49.3229 214.385 49.5 214.811 49.5 215.308V218.048C49.5 218.212 49.4528 218.358 49.3586 218.485C49.2644 218.611 49.1384 218.698 48.9807 218.744C48.5423 218.948 48.1858 219.251 47.9115 219.652C47.6371 220.054 47.5 220.503 47.5 221C47.5 221.498 47.6371 221.947 47.9115 222.348C48.1858 222.749 48.5423 223.052 48.9807 223.256C49.1384 223.302 49.2644 223.388 49.3586 223.515C49.4528 223.642 49.5 223.788 49.5 223.952V226.692C49.5 227.189 49.3229 227.615 48.9689 227.969C48.6149 228.323 48.1894 228.5 47.6923 228.5H32.3077ZM32.3077 227H47.6923C47.782 227 47.8557 226.971 47.9134 226.913C47.9711 226.856 48 226.782 48 226.692V224.45C47.3833 224.083 46.8958 223.596 46.5375 222.987C46.1791 222.379 46 221.717 46 221C46 220.283 46.1791 219.621 46.5375 219.012C46.8958 218.404 47.3833 217.917 48 217.55V215.308C48 215.218 47.9711 215.144 47.9134 215.087C47.8557 215.029 47.782 215 47.6923 215H32.3077C32.218 215 32.1442 215.029 32.0865 215.087C32.0288 215.144 32 215.218 32 215.308V217.55C32.6166 217.917 33.1041 218.404 33.4625 219.012C33.8208 219.621 34 220.283 34 221C34 221.717 33.8208 222.379 33.4625 222.987C33.1041 223.596 32.6166 224.083 32 224.45V226.692C32 226.782 32.0288 226.856 32.0865 226.913C32.1442 226.971 32.218 227 32.3077 227ZM40.0003 225.654C40.2129 225.654 40.391 225.582 40.5346 225.438C40.6782 225.294 40.75 225.116 40.75 224.903C40.75 224.691 40.6781 224.513 40.5343 224.369C40.3904 224.226 40.2122 224.154 39.9997 224.154C39.7871 224.154 39.609 224.226 39.4654 224.37C39.3218 224.513 39.25 224.692 39.25 224.904C39.25 225.117 39.3219 225.295 39.4657 225.438C39.6095 225.582 39.7877 225.654 40.0003 225.654ZM40.0003 221.75C40.2129 221.75 40.391 221.678 40.5346 221.534C40.6782 221.39 40.75 221.212 40.75 221C40.75 220.787 40.6781 220.609 40.5343 220.465C40.3904 220.322 40.2122 220.25 39.9997 220.25C39.7871 220.25 39.609 220.322 39.4654 220.466C39.3218 220.61 39.25 220.788 39.25 221C39.25 221.213 39.3219 221.391 39.4657 221.535C39.6095 221.678 39.7877 221.75 40.0003 221.75ZM40.0003 217.846C40.2129 217.846 40.391 217.774 40.5346 217.63C40.6782 217.487 40.75 217.308 40.75 217.096C40.75 216.883 40.6781 216.705 40.5343 216.562C40.3904 216.418 40.2122 216.346 39.9997 216.346C39.7871 216.346 39.609 216.418 39.4654 216.562C39.3218 216.706 39.25 216.884 39.25 217.096C39.25 217.309 39.3219 217.487 39.4657 217.631C39.6095 217.774 39.7877 217.846 40.0003 217.846Z" fill="#49454F"/>
</g>
<path d="M23.1836 244.469V253H21.7246V244.469H23.1836ZM25.8613 244.469V245.641H19.0703V244.469H25.8613ZM28.8574 246.66V253H27.4395V246.66H28.8574ZM27.3457 244.996C27.3457 244.781 27.416 244.604 27.5566 244.463C27.7012 244.318 27.9004 244.246 28.1543 244.246C28.4043 244.246 28.6016 244.318 28.7461 244.463C28.8906 244.604 28.9629 244.781 28.9629 244.996C28.9629 245.207 28.8906 245.383 28.7461 245.523C28.6016 245.664 28.4043 245.734 28.1543 245.734C27.9004 245.734 27.7012 245.664 27.5566 245.523C27.416 245.383 27.3457 245.207 27.3457 244.996ZM33.4941 251.992C33.7246 251.992 33.9316 251.947 34.1152 251.857C34.3027 251.764 34.4531 251.635 34.5664 251.471C34.6836 251.307 34.748 251.117 34.7598 250.902H36.0898C36.082 251.312 35.9609 251.686 35.7266 252.021C35.4922 252.357 35.1816 252.625 34.7949 252.824C34.4082 253.02 33.9805 253.117 33.5117 253.117C33.0273 253.117 32.6055 253.035 32.2461 252.871C31.8867 252.703 31.5879 252.473 31.3496 252.18C31.1113 251.887 30.9316 251.549 30.8105 251.166C30.6934 250.783 30.6348 250.373 30.6348 249.936V249.73C30.6348 249.293 30.6934 248.883 30.8105 248.5C30.9316 248.113 31.1113 247.773 31.3496 247.48C31.5879 247.188 31.8867 246.959 32.2461 246.795C32.6055 246.627 33.0254 246.543 33.5059 246.543C34.0137 246.543 34.459 246.645 34.8418 246.848C35.2246 247.047 35.5254 247.326 35.7441 247.686C35.9668 248.041 36.082 248.455 36.0898 248.928H34.7598C34.748 248.693 34.6895 248.482 34.584 248.295C34.4824 248.104 34.3379 247.951 34.1504 247.838C33.9668 247.725 33.7461 247.668 33.4883 247.668C33.2031 247.668 32.9668 247.727 32.7793 247.844C32.5918 247.957 32.4453 248.113 32.3398 248.312C32.2344 248.508 32.1582 248.729 32.1113 248.975C32.0684 249.217 32.0469 249.469 32.0469 249.73V249.936C32.0469 250.197 32.0684 250.451 32.1113 250.697C32.1543 250.943 32.2285 251.164 32.334 251.359C32.4434 251.551 32.5918 251.705 32.7793 251.822C32.9668 251.936 33.2051 251.992 33.4941 251.992ZM39.0977 244V253H37.6797V244H39.0977ZM43.0352 246.66L40.2754 249.719L38.7637 251.266L38.3945 250.07L39.5371 248.658L41.3301 246.66H43.0352ZM41.6348 253L39.5781 250.023L40.4688 249.033L43.2695 253H41.6348ZM47.1094 253.117C46.6406 253.117 46.2168 253.041 45.8379 252.889C45.4629 252.732 45.1426 252.516 44.877 252.238C44.6152 251.961 44.4141 251.635 44.2734 251.26C44.1328 250.885 44.0625 250.48 44.0625 250.047V249.812C44.0625 249.316 44.1348 248.867 44.2793 248.465C44.4238 248.062 44.625 247.719 44.8828 247.434C45.1406 247.145 45.4453 246.924 45.7969 246.771C46.1484 246.619 46.5293 246.543 46.9395 246.543C47.3926 246.543 47.7891 246.619 48.1289 246.771C48.4688 246.924 48.75 247.139 48.9727 247.416C49.1992 247.689 49.3672 248.016 49.4766 248.395C49.5898 248.773 49.6465 249.191 49.6465 249.648V250.252H44.748V249.238H48.252V249.127C48.2441 248.873 48.1934 248.635 48.0996 248.412C48.0098 248.189 47.8711 248.01 47.6836 247.873C47.4961 247.736 47.2461 247.668 46.9336 247.668C46.6992 247.668 46.4902 247.719 46.3066 247.82C46.127 247.918 45.9766 248.061 45.8555 248.248C45.7344 248.436 45.6406 248.662 45.5742 248.928C45.5117 249.189 45.4805 249.484 45.4805 249.812V250.047C45.4805 250.324 45.5176 250.582 45.5918 250.82C45.6699 251.055 45.7832 251.26 45.9316 251.436C46.0801 251.611 46.2598 251.75 46.4707 251.852C46.6816 251.949 46.9219 251.998 47.1914 251.998C47.5312 251.998 47.834 251.93 48.0996 251.793C48.3652 251.656 48.5957 251.463 48.791 251.213L49.5352 251.934C49.3984 252.133 49.2207 252.324 49.002 252.508C48.7832 252.688 48.5156 252.834 48.1992 252.947C47.8867 253.061 47.5234 253.117 47.1094 253.117ZM54.1543 246.66V247.691H50.5801V246.66H54.1543ZM51.6113 245.107H53.0234V251.248C53.0234 251.443 53.0508 251.594 53.1055 251.699C53.1641 251.801 53.2441 251.869 53.3457 251.904C53.4473 251.939 53.5664 251.957 53.7031 251.957C53.8008 251.957 53.8945 251.951 53.9844 251.939C54.0742 251.928 54.1465 251.916 54.2012 251.904L54.207 252.982C54.0898 253.018 53.9531 253.049 53.7969 253.076C53.6445 253.104 53.4688 253.117 53.2695 253.117C52.9453 253.117 52.6582 253.061 52.4082 252.947C52.1582 252.83 51.9629 252.641 51.8223 252.379C51.6816 252.117 51.6113 251.77 51.6113 251.336V245.107ZM59.3008 251.283C59.3008 251.143 59.2656 251.016 59.1953 250.902C59.125 250.785 58.9902 250.68 58.791 250.586C58.5957 250.492 58.3066 250.406 57.9238 250.328C57.5879 250.254 57.2793 250.166 56.998 250.064C56.7207 249.959 56.4824 249.832 56.2832 249.684C56.084 249.535 55.9297 249.359 55.8203 249.156C55.7109 248.953 55.6562 248.719 55.6562 248.453C55.6562 248.195 55.7129 247.951 55.8262 247.721C55.9395 247.49 56.1016 247.287 56.3125 247.111C56.5234 246.936 56.7793 246.797 57.0801 246.695C57.3848 246.594 57.7246 246.543 58.0996 246.543C58.6309 246.543 59.0859 246.633 59.4648 246.812C59.8477 246.988 60.1406 247.229 60.3438 247.533C60.5469 247.834 60.6484 248.174 60.6484 248.553H59.2363C59.2363 248.385 59.1934 248.229 59.1074 248.084C59.0254 247.936 58.9004 247.816 58.7324 247.727C58.5645 247.633 58.3535 247.586 58.0996 247.586C57.8574 247.586 57.6562 247.625 57.4961 247.703C57.3398 247.777 57.2227 247.875 57.1445 247.996C57.0703 248.117 57.0332 248.25 57.0332 248.395C57.0332 248.5 57.0527 248.596 57.0918 248.682C57.1348 248.764 57.2051 248.84 57.3027 248.91C57.4004 248.977 57.5332 249.039 57.7012 249.098C57.873 249.156 58.0879 249.213 58.3457 249.268C58.8301 249.369 59.2461 249.5 59.5938 249.66C59.9453 249.816 60.2148 250.02 60.4023 250.27C60.5898 250.516 60.6836 250.828 60.6836 251.207C60.6836 251.488 60.623 251.746 60.502 251.98C60.3848 252.211 60.2129 252.412 59.9863 252.584C59.7598 252.752 59.4883 252.883 59.1719 252.977C58.8594 253.07 58.5078 253.117 58.1172 253.117C57.543 253.117 57.0566 253.016 56.6582 252.812C56.2598 252.605 55.957 252.342 55.75 252.021C55.5469 251.697 55.4453 251.361 55.4453 251.014H56.8105C56.8262 251.275 56.8984 251.484 57.0273 251.641C57.1602 251.793 57.3242 251.904 57.5195 251.975C57.7188 252.041 57.9238 252.074 58.1348 252.074C58.3887 252.074 58.6016 252.041 58.7734 251.975C58.9453 251.904 59.0762 251.811 59.166 251.693C59.2559 251.572 59.3008 251.436 59.3008 251.283Z" fill="#49454F"/>
<g clip-path="url(#clip5_62_51462)">
<path d="M40 289C42.7614 289 45 286.761 45 284C45 281.239 42.7614 279 40 279C37.2386 279 35 281.239 35 284C35 286.761 37.2386 289 40 289Z" stroke="#49454F" stroke-width="1.5" stroke-linecap="round" stroke-linejoin="round"/>
<path d="M48.59 299C48.59 295.13 44.74 292 40 292C35.26 292 31.41 295.13 31.41 299" stroke="#49454F" stroke-width="1.5" stroke-linecap="round" stroke-linejoin="round"/>
</g>
<path d="M23.9141 313.605L21.3652 321H19.8242L23.0352 312.469H24.0195L23.9141 313.605ZM26.0469 321L23.4922 313.605L23.3809 312.469H24.3711L27.5938 321H26.0469ZM25.9238 317.836V319.002H21.2832V317.836H25.9238ZM32.9688 314.66H34.252V320.824C34.252 321.395 34.1309 321.879 33.8887 322.277C33.6465 322.676 33.3086 322.979 32.875 323.186C32.4414 323.396 31.9395 323.502 31.3691 323.502C31.127 323.502 30.8574 323.467 30.5605 323.396C30.2676 323.326 29.9824 323.213 29.7051 323.057C29.4316 322.904 29.2031 322.703 29.0195 322.453L29.6816 321.621C29.9082 321.891 30.1582 322.088 30.4316 322.213C30.7051 322.338 30.9922 322.4 31.293 322.4C31.6172 322.4 31.8926 322.34 32.1191 322.219C32.3496 322.102 32.5273 321.928 32.6523 321.697C32.7773 321.467 32.8398 321.186 32.8398 320.854V316.096L32.9688 314.66ZM28.6621 317.9V317.777C28.6621 317.297 28.7207 316.859 28.8379 316.465C28.9551 316.066 29.123 315.725 29.3418 315.439C29.5605 315.15 29.8262 314.93 30.1387 314.777C30.4512 314.621 30.8047 314.543 31.1992 314.543C31.6094 314.543 31.959 314.617 32.248 314.766C32.541 314.914 32.7852 315.127 32.9805 315.404C33.1758 315.678 33.3281 316.006 33.4375 316.389C33.5508 316.768 33.6348 317.189 33.6895 317.654V318.047C33.6387 318.5 33.5527 318.914 33.4316 319.289C33.3105 319.664 33.1504 319.988 32.9512 320.262C32.752 320.535 32.5059 320.746 32.2129 320.895C31.9238 321.043 31.582 321.117 31.1875 321.117C30.8008 321.117 30.4512 321.037 30.1387 320.877C29.8301 320.717 29.5645 320.492 29.3418 320.203C29.123 319.914 28.9551 319.574 28.8379 319.184C28.7207 318.789 28.6621 318.361 28.6621 317.9ZM30.0742 317.777V317.9C30.0742 318.189 30.1016 318.459 30.1562 318.709C30.2148 318.959 30.3027 319.18 30.4199 319.371C30.541 319.559 30.6934 319.707 30.877 319.816C31.0645 319.922 31.2852 319.975 31.5391 319.975C31.8711 319.975 32.1426 319.904 32.3535 319.764C32.5684 319.623 32.7324 319.434 32.8457 319.195C32.9629 318.953 33.0449 318.684 33.0918 318.387V317.326C33.0684 317.096 33.0195 316.881 32.9453 316.682C32.875 316.482 32.7793 316.309 32.6582 316.16C32.5371 316.008 32.3848 315.891 32.2012 315.809C32.0176 315.723 31.8008 315.68 31.5508 315.68C31.2969 315.68 31.0762 315.734 30.8887 315.844C30.7012 315.953 30.5469 316.104 30.4258 316.295C30.3086 316.486 30.2207 316.709 30.1621 316.963C30.1035 317.217 30.0742 317.488 30.0742 317.777ZM39.0117 321.117C38.543 321.117 38.1191 321.041 37.7402 320.889C37.3652 320.732 37.0449 320.516 36.7793 320.238C36.5176 319.961 36.3164 319.635 36.1758 319.26C36.0352 318.885 35.9648 318.48 35.9648 318.047V317.812C35.9648 317.316 36.0371 316.867 36.1816 316.465C36.3262 316.062 36.5273 315.719 36.7852 315.434C37.043 315.145 37.3477 314.924 37.6992 314.771C38.0508 314.619 38.4316 314.543 38.8418 314.543C39.2949 314.543 39.6914 314.619 40.0312 314.771C40.3711 314.924 40.6523 315.139 40.875 315.416C41.1016 315.689 41.2695 316.016 41.3789 316.395C41.4922 316.773 41.5488 317.191 41.5488 317.648V318.252H36.6504V317.238H40.1543V317.127C40.1465 316.873 40.0957 316.635 40.002 316.412C39.9121 316.189 39.7734 316.01 39.5859 315.873C39.3984 315.736 39.1484 315.668 38.8359 315.668C38.6016 315.668 38.3926 315.719 38.209 315.82C38.0293 315.918 37.8789 316.061 37.7578 316.248C37.6367 316.436 37.543 316.662 37.4766 316.928C37.4141 317.189 37.3828 317.484 37.3828 317.812V318.047C37.3828 318.324 37.4199 318.582 37.4941 318.82C37.5723 319.055 37.6855 319.26 37.834 319.436C37.9824 319.611 38.1621 319.75 38.373 319.852C38.584 319.949 38.8242 319.998 39.0938 319.998C39.4336 319.998 39.7363 319.93 40.002 319.793C40.2676 319.656 40.498 319.463 40.6934 319.213L41.4375 319.934C41.3008 320.133 41.123 320.324 40.9043 320.508C40.6855 320.688 40.418 320.834 40.1016 320.947C39.7891 321.061 39.4258 321.117 39.0117 321.117ZM44.5508 316.014V321H43.1387V314.66H44.4688L44.5508 316.014ZM44.2988 317.596L43.8418 317.59C43.8457 317.141 43.9082 316.729 44.0293 316.354C44.1543 315.979 44.3262 315.656 44.5449 315.387C44.7676 315.117 45.0332 314.91 45.3418 314.766C45.6504 314.617 45.9941 314.543 46.373 314.543C46.6777 314.543 46.9531 314.586 47.1992 314.672C47.4492 314.754 47.6621 314.889 47.8379 315.076C48.0176 315.264 48.1543 315.508 48.248 315.809C48.3418 316.105 48.3887 316.471 48.3887 316.904V321H46.9707V316.898C46.9707 316.594 46.9258 316.354 46.8359 316.178C46.75 315.998 46.623 315.871 46.4551 315.797C46.291 315.719 46.0859 315.68 45.8398 315.68C45.5977 315.68 45.3809 315.73 45.1895 315.832C44.998 315.934 44.8359 316.072 44.7031 316.248C44.5742 316.424 44.4746 316.627 44.4043 316.857C44.334 317.088 44.2988 317.334 44.2988 317.596ZM53.2363 314.66V315.691H49.6621V314.66H53.2363ZM50.6934 313.107H52.1055V319.248C52.1055 319.443 52.1328 319.594 52.1875 319.699C52.2461 319.801 52.3262 319.869 52.4277 319.904C52.5293 319.939 52.6484 319.957 52.7852 319.957C52.8828 319.957 52.9766 319.951 53.0664 319.939C53.1562 319.928 53.2285 319.916 53.2832 319.904L53.2891 320.982C53.1719 321.018 53.0352 321.049 52.8789 321.076C52.7266 321.104 52.5508 321.117 52.3516 321.117C52.0273 321.117 51.7402 321.061 51.4902 320.947C51.2402 320.83 51.0449 320.641 50.9043 320.379C50.7637 320.117 50.6934 319.77 50.6934 319.336V313.107ZM58.3828 319.283C58.3828 319.143 58.3477 319.016 58.2773 318.902C58.207 318.785 58.0723 318.68 57.873 318.586C57.6777 318.492 57.3887 318.406 57.0059 318.328C56.6699 318.254 56.3613 318.166 56.0801 318.064C55.8027 317.959 55.5645 317.832 55.3652 317.684C55.166 317.535 55.0117 317.359 54.9023 317.156C54.793 316.953 54.7383 316.719 54.7383 316.453C54.7383 316.195 54.7949 315.951 54.9082 315.721C55.0215 315.49 55.1836 315.287 55.3945 315.111C55.6055 314.936 55.8613 314.797 56.1621 314.695C56.4668 314.594 56.8066 314.543 57.1816 314.543C57.7129 314.543 58.168 314.633 58.5469 314.812C58.9297 314.988 59.2227 315.229 59.4258 315.533C59.6289 315.834 59.7305 316.174 59.7305 316.553H58.3184C58.3184 316.385 58.2754 316.229 58.1895 316.084C58.1074 315.936 57.9824 315.816 57.8145 315.727C57.6465 315.633 57.4355 315.586 57.1816 315.586C56.9395 315.586 56.7383 315.625 56.5781 315.703C56.4219 315.777 56.3047 315.875 56.2266 315.996C56.1523 316.117 56.1152 316.25 56.1152 316.395C56.1152 316.5 56.1348 316.596 56.1738 316.682C56.2168 316.764 56.2871 316.84 56.3848 316.91C56.4824 316.977 56.6152 317.039 56.7832 317.098C56.9551 317.156 57.1699 317.213 57.4277 317.268C57.9121 317.369 58.3281 317.5 58.6758 317.66C59.0273 317.816 59.2969 318.02 59.4844 318.27C59.6719 318.516 59.7656 318.828 59.7656 319.207C59.7656 319.488 59.7051 319.746 59.584 319.98C59.4668 320.211 59.2949 320.412 59.0684 320.584C58.8418 320.752 58.5703 320.883 58.2539 320.977C57.9414 321.07 57.5898 321.117 57.1992 321.117C56.625 321.117 56.1387 321.016 55.7402 320.812C55.3418 320.605 55.0391 320.342 54.832 320.021C54.6289 319.697 54.5273 319.361 54.5273 319.014H55.8926C55.9082 319.275 55.9805 319.484 56.1094 319.641C56.2422 319.793 56.4062 319.904 56.6016 319.975C56.8008 320.041 57.0059 320.074 57.2168 320.074C57.4707 320.074 57.6836 320.041 57.8555 319.975C58.0273 319.904 58.1582 319.811 58.248 319.693C58.3379 319.572 58.3828 319.436 58.3828 319.283Z" fill="#49454F"/>
<g clip-path="url(#clip6_62_51462)">
<path d="M34.73 364.7C35.55 363.82 36.8 363.89 37.52 364.85L38.53 366.2C39.34 367.27 40.65 367.27 41.46 366.2L42.47 364.85C43.19 363.89 44.44 363.82 45.26 364.7C47.04 366.6 48.49 365.97 48.49 363.31V352.04C48.5 348.01 47.56 347 43.78 347H36.22C32.44 347 31.5 348.01 31.5 352.04V363.3C31.5 365.97 32.96 366.59 34.73 364.7Z" stroke="#49454F" stroke-width="1.5" stroke-linecap="round" stroke-linejoin="round"/>
<path d="M36.0961 356H36.1051" stroke="#49454F" stroke-width="2" stroke-linecap="round" stroke-linejoin="round"/>
<path d="M38.8984 356H44.3984" stroke="#49454F" stroke-width="1.5" stroke-linecap="round" stroke-linejoin="round"/>
<path d="M36.0961 352H36.1051" stroke="#49454F" stroke-width="2" stroke-linecap="round" stroke-linejoin="round"/>
<path d="M38.8984 352H44.3984" stroke="#49454F" stroke-width="1.5" stroke-linecap="round" stroke-linejoin="round"/>
</g>
<path d="M18.2383 380.469H21.2559C21.9043 380.469 22.457 380.566 22.9141 380.762C23.3711 380.957 23.7207 381.246 23.9629 381.629C24.209 382.008 24.332 382.477 24.332 383.035C24.332 383.461 24.2539 383.836 24.0977 384.16C23.9414 384.484 23.7207 384.758 23.4355 384.98C23.1504 385.199 22.8105 385.369 22.416 385.49L21.9707 385.707H19.2578L19.2461 384.541H21.2793C21.6309 384.541 21.9238 384.479 22.1582 384.354C22.3926 384.229 22.5684 384.059 22.6855 383.844C22.8066 383.625 22.8672 383.379 22.8672 383.105C22.8672 382.809 22.8086 382.551 22.6914 382.332C22.5781 382.109 22.4023 381.939 22.1641 381.822C21.9258 381.701 21.623 381.641 21.2559 381.641H19.709V389H18.2383V380.469ZM23.1074 389L21.1035 385.168L22.6445 385.162L24.6777 388.924V389H23.1074ZM28.9512 389.117C28.4824 389.117 28.0586 389.041 27.6797 388.889C27.3047 388.732 26.9844 388.516 26.7188 388.238C26.457 387.961 26.2559 387.635 26.1152 387.26C25.9746 386.885 25.9043 386.48 25.9043 386.047V385.812C25.9043 385.316 25.9766 384.867 26.1211 384.465C26.2656 384.062 26.4668 383.719 26.7246 383.434C26.9824 383.145 27.2871 382.924 27.6387 382.771C27.9902 382.619 28.3711 382.543 28.7812 382.543C29.2344 382.543 29.6309 382.619 29.9707 382.771C30.3105 382.924 30.5918 383.139 30.8145 383.416C31.041 383.689 31.209 384.016 31.3184 384.395C31.4316 384.773 31.4883 385.191 31.4883 385.648V386.252H26.5898V385.238H30.0938V385.127C30.0859 384.873 30.0352 384.635 29.9414 384.412C29.8516 384.189 29.7129 384.01 29.5254 383.873C29.3379 383.736 29.0879 383.668 28.7754 383.668C28.541 383.668 28.332 383.719 28.1484 383.82C27.9688 383.918 27.8184 384.061 27.6973 384.248C27.5762 384.436 27.4824 384.662 27.416 384.928C27.3535 385.189 27.3223 385.484 27.3223 385.812V386.047C27.3223 386.324 27.3594 386.582 27.4336 386.82C27.5117 387.055 27.625 387.26 27.7734 387.436C27.9219 387.611 28.1016 387.75 28.3125 387.852C28.5234 387.949 28.7637 387.998 29.0332 387.998C29.373 387.998 29.6758 387.93 29.9414 387.793C30.207 387.656 30.4375 387.463 30.6328 387.213L31.377 387.934C31.2402 388.133 31.0625 388.324 30.8438 388.508C30.625 388.688 30.3574 388.834 30.041 388.947C29.7285 389.061 29.3652 389.117 28.9512 389.117ZM34.5078 383.879V391.438H33.0957V382.66H34.3965L34.5078 383.879ZM38.6387 385.771V385.895C38.6387 386.355 38.584 386.783 38.4746 387.178C38.3691 387.568 38.2109 387.91 38 388.203C37.793 388.492 37.5371 388.717 37.2324 388.877C36.9277 389.037 36.5762 389.117 36.1777 389.117C35.7832 389.117 35.4375 389.045 35.1406 388.9C34.8477 388.752 34.5996 388.543 34.3965 388.273C34.1934 388.004 34.0293 387.688 33.9043 387.324C33.7832 386.957 33.6973 386.555 33.6465 386.117V385.643C33.6973 385.178 33.7832 384.756 33.9043 384.377C34.0293 383.998 34.1934 383.672 34.3965 383.398C34.5996 383.125 34.8477 382.914 35.1406 382.766C35.4336 382.617 35.7754 382.543 36.166 382.543C36.5645 382.543 36.918 382.621 37.2266 382.777C37.5352 382.93 37.7949 383.148 38.0059 383.434C38.2168 383.715 38.375 384.055 38.4805 384.453C38.5859 384.848 38.6387 385.287 38.6387 385.771ZM37.2266 385.895V385.771C37.2266 385.479 37.1992 385.207 37.1445 384.957C37.0898 384.703 37.0039 384.48 36.8867 384.289C36.7695 384.098 36.6191 383.949 36.4355 383.844C36.2559 383.734 36.0391 383.68 35.7852 383.68C35.5352 383.68 35.3203 383.723 35.1406 383.809C34.9609 383.891 34.8105 384.006 34.6895 384.154C34.5684 384.303 34.4746 384.477 34.4082 384.676C34.3418 384.871 34.2949 385.084 34.2676 385.314V386.451C34.3145 386.732 34.3945 386.99 34.5078 387.225C34.6211 387.459 34.7812 387.646 34.9883 387.787C35.1992 387.924 35.4688 387.992 35.7969 387.992C36.0508 387.992 36.2676 387.938 36.4473 387.828C36.627 387.719 36.7734 387.568 36.8867 387.377C37.0039 387.182 37.0898 386.957 37.1445 386.703C37.1992 386.449 37.2266 386.18 37.2266 385.895ZM40.0703 385.9V385.766C40.0703 385.309 40.1367 384.885 40.2695 384.494C40.4023 384.1 40.5938 383.758 40.8438 383.469C41.0977 383.176 41.4062 382.949 41.7695 382.789C42.1367 382.625 42.5508 382.543 43.0117 382.543C43.4766 382.543 43.8906 382.625 44.2539 382.789C44.6211 382.949 44.9316 383.176 45.1855 383.469C45.4395 383.758 45.6328 384.1 45.7656 384.494C45.8984 384.885 45.9648 385.309 45.9648 385.766V385.9C45.9648 386.357 45.8984 386.781 45.7656 387.172C45.6328 387.562 45.4395 387.904 45.1855 388.197C44.9316 388.486 44.623 388.713 44.2598 388.877C43.8965 389.037 43.4844 389.117 43.0234 389.117C42.5586 389.117 42.1426 389.037 41.7754 388.877C41.4121 388.713 41.1035 388.486 40.8496 388.197C40.5957 387.904 40.4023 387.562 40.2695 387.172C40.1367 386.781 40.0703 386.357 40.0703 385.9ZM41.4824 385.766V385.9C41.4824 386.186 41.5117 386.455 41.5703 386.709C41.6289 386.963 41.7207 387.186 41.8457 387.377C41.9707 387.568 42.1309 387.719 42.3262 387.828C42.5215 387.938 42.7539 387.992 43.0234 387.992C43.2852 387.992 43.5117 387.938 43.7031 387.828C43.8984 387.719 44.0586 387.568 44.1836 387.377C44.3086 387.186 44.4004 386.963 44.459 386.709C44.5215 386.455 44.5527 386.186 44.5527 385.9V385.766C44.5527 385.484 44.5215 385.219 44.459 384.969C44.4004 384.715 44.3066 384.49 44.1777 384.295C44.0527 384.1 43.8926 383.947 43.6973 383.838C43.5059 383.725 43.2773 383.668 43.0117 383.668C42.7461 383.668 42.5156 383.725 42.3203 383.838C42.1289 383.947 41.9707 384.1 41.8457 384.295C41.7207 384.49 41.6289 384.715 41.5703 384.969C41.5117 385.219 41.4824 385.484 41.4824 385.766ZM49.0664 383.867V389H47.6543V382.66H49.002L49.0664 383.867ZM51.0059 382.619L50.9941 383.932C50.9082 383.916 50.8145 383.904 50.7129 383.896C50.6152 383.889 50.5176 383.885 50.4199 383.885C50.1777 383.885 49.9648 383.92 49.7812 383.99C49.5977 384.057 49.4434 384.154 49.3184 384.283C49.1973 384.408 49.1035 384.561 49.0371 384.74C48.9707 384.92 48.9316 385.121 48.9199 385.344L48.5977 385.367C48.5977 384.969 48.6367 384.6 48.7148 384.26C48.793 383.92 48.9102 383.621 49.0664 383.363C49.2266 383.105 49.4258 382.904 49.6641 382.76C49.9062 382.615 50.1855 382.543 50.502 382.543C50.5879 382.543 50.6797 382.551 50.7773 382.566C50.8789 382.582 50.9551 382.6 51.0059 382.619ZM55.5898 382.66V383.691H52.0156V382.66H55.5898ZM53.0469 381.107H54.459V387.248C54.459 387.443 54.4863 387.594 54.541 387.699C54.5996 387.801 54.6797 387.869 54.7812 387.904C54.8828 387.939 55.002 387.957 55.1387 387.957C55.2363 387.957 55.3301 387.951 55.4199 387.939C55.5098 387.928 55.582 387.916 55.6367 387.904L55.6426 388.982C55.5254 389.018 55.3887 389.049 55.2324 389.076C55.0801 389.104 54.9043 389.117 54.7051 389.117C54.3809 389.117 54.0938 389.061 53.8438 388.947C53.5938 388.83 53.3984 388.641 53.2578 388.379C53.1172 388.117 53.0469 387.77 53.0469 387.336V381.107ZM60.7363 387.283C60.7363 387.143 60.7012 387.016 60.6309 386.902C60.5605 386.785 60.4258 386.68 60.2266 386.586C60.0312 386.492 59.7422 386.406 59.3594 386.328C59.0234 386.254 58.7148 386.166 58.4336 386.064C58.1562 385.959 57.918 385.832 57.7188 385.684C57.5195 385.535 57.3652 385.359 57.2559 385.156C57.1465 384.953 57.0918 384.719 57.0918 384.453C57.0918 384.195 57.1484 383.951 57.2617 383.721C57.375 383.49 57.5371 383.287 57.748 383.111C57.959 382.936 58.2148 382.797 58.5156 382.695C58.8203 382.594 59.1602 382.543 59.5352 382.543C60.0664 382.543 60.5215 382.633 60.9004 382.812C61.2832 382.988 61.5762 383.229 61.7793 383.533C61.9824 383.834 62.084 384.174 62.084 384.553H60.6719C60.6719 384.385 60.6289 384.229 60.543 384.084C60.4609 383.936 60.3359 383.816 60.168 383.727C60 383.633 59.7891 383.586 59.5352 383.586C59.293 383.586 59.0918 383.625 58.9316 383.703C58.7754 383.777 58.6582 383.875 58.5801 383.996C58.5059 384.117 58.4688 384.25 58.4688 384.395C58.4688 384.5 58.4883 384.596 58.5273 384.682C58.5703 384.764 58.6406 384.84 58.7383 384.91C58.8359 384.977 58.9688 385.039 59.1367 385.098C59.3086 385.156 59.5234 385.213 59.7812 385.268C60.2656 385.369 60.6816 385.5 61.0293 385.66C61.3809 385.816 61.6504 386.02 61.8379 386.27C62.0254 386.516 62.1191 386.828 62.1191 387.207C62.1191 387.488 62.0586 387.746 61.9375 387.98C61.8203 388.211 61.6484 388.412 61.4219 388.584C61.1953 388.752 60.9238 388.883 60.6074 388.977C60.2949 389.07 59.9434 389.117 59.5527 389.117C58.9785 389.117 58.4922 389.016 58.0938 388.812C57.6953 388.605 57.3926 388.342 57.1855 388.021C56.9824 387.697 56.8809 387.361 56.8809 387.014H58.2461C58.2617 387.275 58.334 387.484 58.4629 387.641C58.5957 387.793 58.7598 387.904 58.9551 387.975C59.1543 388.041 59.3594 388.074 59.5703 388.074C59.8242 388.074 60.0371 388.041 60.209 387.975C60.3809 387.904 60.5117 387.811 60.6016 387.693C60.6914 387.572 60.7363 387.436 60.7363 387.283Z" fill="#49454F"/>
</g>
<defs>
<filter id="filter0_b_62_51462" x="-100" y="-100" width="280" height="1224" filterUnits="userSpaceOnUse" color-interpolation-filters="sRGB">
<feFlood flood-opacity="0" result="BackgroundImageFix"/>
<feGaussianBlur in="BackgroundImageFix" stdDeviation="50"/>
<feComposite in2="SourceAlpha" operator="in" result="effect1_backgroundBlur_62_51462"/>
<feBlend mode="normal" in="SourceGraphic" in2="effect1_backgroundBlur_62_51462" result="shape"/>
</filter>
<filter id="filter1_dd_62_51462" x="1" y="53" width="78" height="78" filterUnits="userSpaceOnUse" color-interpolation-filters="sRGB">
<feFlood flood-opacity="0" result="BackgroundImageFix"/>
<feColorMatrix in="SourceAlpha" type="matrix" values="0 0 0 0 0 0 0 0 0 0 0 0 0 0 0 0 0 0 127 0" result="hardAlpha"/>
<feOffset dy="1"/>
<feGaussianBlur stdDeviation="1.5"/>
<feColorMatrix type="matrix" values="0 0 0 0 0 0 0 0 0 0 0 0 0 0 0 0 0 0 0.3 0"/>
<feBlend mode="normal" in2="BackgroundImageFix" result="effect1_dropShadow_62_51462"/>
<feColorMatrix in="SourceAlpha" type="matrix" values="0 0 0 0 0 0 0 0 0 0 0 0 0 0 0 0 0 0 127 0" result="hardAlpha"/>
<feMorphology radius="3" operator="dilate" in="SourceAlpha" result="effect2_dropShadow_62_51462"/>
<feOffset dy="4"/>
<feGaussianBlur stdDeviation="4"/>
<feColorMatrix type="matrix" values="0 0 0 0 0 0 0 0 0 0 0 0 0 0 0 0 0 0 0.15 0"/>
<feBlend mode="normal" in2="effect1_dropShadow_62_51462" result="effect2_dropShadow_62_51462"/>
<feBlend mode="normal" in="SourceGraphic" in2="effect2_dropShadow_62_51462" result="shape"/>
</filter>
<linearGradient id="paint0_linear_62_51462" x1="5.6044" y1="-0.000227041" x2="238.202" y2="41.8339" gradientUnits="userSpaceOnUse">
<stop stop-color="white" stop-opacity="0.4"/>
<stop offset="0.405687" stop-color="white" stop-opacity="0.01"/>
<stop offset="0.574372" stop-color="white" stop-opacity="0.01"/>
<stop offset="1" stop-color="white" stop-opacity="0.1"/>
</linearGradient>
<clipPath id="clip0_62_51462">
<rect x="60" y="52" width="40" height="40" rx="20" transform="rotate(-180 60 52)" fill="white"/>
</clipPath>
<clipPath id="clip1_62_51462">
<rect x="12" y="60" width="56" height="56" rx="16" fill="white"/>
</clipPath>
<clipPath id="clip2_62_51462">
<rect x="12" y="60" width="56" height="56" rx="16" fill="white"/>
</clipPath>
<clipPath id="clip3_62_51462">
<rect x="12" y="137" width="56" height="32" rx="16" fill="white"/>
</clipPath>
<clipPath id="clip4_62_51462">
<rect x="12" y="205" width="56" height="32" rx="16" fill="white"/>
</clipPath>
<clipPath id="clip5_62_51462">
<rect x="12" y="273" width="56" height="32" rx="16" fill="white"/>
</clipPath>
<clipPath id="clip6_62_51462">
<rect x="12" y="341" width="56" height="32" rx="16" fill="white"/>
</clipPath>
</defs>
</svg>
