<svg width="18" height="18" viewBox="0 0 18 18" fill="none" xmlns="http://www.w3.org/2000/svg">
<rect width="18" height="18" fill="#A6A5A5"/>
<g id="Ticket View" clip-path="url(#clip0_745_53208)">
<rect width="1513" height="1262" transform="translate(-1463 -474)" fill="#F0F2F2"/>
<g id="Navigation Rail">
<rect width="80" height="1120" transform="translate(-31 -332)" fill="white"/>
<g id="Destinations">
<g id="Segment 5">
<g id="icon-container">
<g clip-path="url(#clip1_745_53208)">
<g id="state-layer">
<g id="Icon">
<g id="Group">
<path id="Vector" d="M17.4993 8.82376C15.8529 8.58221 14.5908 7.16552 14.5908 5.45151V3.90862V3.40862H14.0908H12.4965C10.7825 3.40862 9.36578 2.14647 9.12423 0.5H17.2537C17.3889 0.5 17.4994 0.610417 17.4993 0.745702V0.745745V8.82376Z" stroke="#49454F"/>
<path id="Vector_2" d="M10.2969 8.2289V7.7289H9.79685H8.20256C6.48855 7.7289 5.07184 6.46677 4.83028 4.82031H12.9598C13.0951 4.82031 13.2055 4.93077 13.2055 5.06606V13.1441C11.5591 12.9025 10.2969 11.4858 10.2969 9.77182V8.2289Z" stroke="#49454F"/>
<path id="Vector_3" d="M6.00291 12.5492V12.0492H5.50291H3.90862C2.1946 12.0492 0.777893 10.7871 0.536337 9.14062H8.66585C8.80117 9.14062 8.9116 9.25105 8.9116 9.38637V17.4644C7.26511 17.2229 6.00291 15.8061 6.00291 14.0921V12.5492Z" stroke="#49454F"/>
</g>
</g>
</g>
</g>
</g>
</g>
</g>
</g>
</g>
<defs>
<clipPath id="clip0_745_53208">
<rect width="1513" height="1262" fill="white" transform="translate(-1463 -474)"/>
</clipPath>
<clipPath id="clip1_745_53208">
<rect x="-19" y="-7" width="56" height="32" rx="16" fill="white"/>
</clipPath>
</defs>
</svg>
