<svg width="24" height="24" viewBox="0 0 24 24" fill="none" xmlns="http://www.w3.org/2000/svg">
<path d="M8.0769 9.05771C7.8644 9.05771 7.68628 8.9858 7.54255 8.84198C7.3988 8.69818 7.32693 8.51998 7.32693 8.30738C7.32693 8.0948 7.3988 7.91671 7.54255 7.77311C7.68628 7.62952 7.8644 7.55773 8.0769 7.55773H19.75C19.9625 7.55773 20.1406 7.62964 20.2843 7.77346C20.4281 7.91727 20.5 8.09547 20.5 8.30806C20.5 8.52066 20.4281 8.69875 20.2843 8.84233C20.1406 8.98591 19.9625 9.05771 19.75 9.05771H8.0769ZM8.0769 12.75C7.8644 12.75 7.68628 12.6781 7.54255 12.5343C7.3988 12.3905 7.32693 12.2123 7.32693 11.9997C7.32693 11.7871 7.3988 11.609 7.54255 11.4654C7.68628 11.3218 7.8644 11.25 8.0769 11.25H19.75C19.9625 11.25 20.1406 11.3219 20.2843 11.4657C20.4281 11.6095 20.5 11.7877 20.5 12.0003C20.5 12.2129 20.4281 12.391 20.2843 12.5346C20.1406 12.6782 19.9625 12.75 19.75 12.75H8.0769ZM8.0769 16.4423C7.8644 16.4423 7.68628 16.3704 7.54255 16.2266C7.3988 16.0827 7.32693 15.9045 7.32693 15.692C7.32693 15.4794 7.3988 15.3013 7.54255 15.1577C7.68628 15.0141 7.8644 14.9423 8.0769 14.9423H19.75C19.9625 14.9423 20.1406 15.0142 20.2843 15.158C20.4281 15.3018 20.5 15.48 20.5 15.6926C20.5 15.9052 20.4281 16.0833 20.2843 16.2269C20.1406 16.3705 19.9625 16.4423 19.75 16.4423H8.0769ZM4.3077 9.11541C4.07885 9.11541 3.88702 9.03708 3.73222 8.88043C3.57741 8.72378 3.5 8.52967 3.5 8.29811C3.5 8.07199 3.57741 7.88245 3.73222 7.72948C3.88702 7.57651 4.07885 7.50003 4.3077 7.50003C4.53653 7.50003 4.72835 7.57651 4.88315 7.72948C5.03797 7.88245 5.11537 8.07199 5.11537 8.29811C5.11537 8.52967 5.03797 8.72378 4.88315 8.88043C4.72835 9.03708 4.53653 9.11541 4.3077 9.11541ZM4.3077 12.7981C4.07885 12.7981 3.88702 12.7216 3.73222 12.5686C3.57741 12.4157 3.5 12.2261 3.5 12C3.5 11.7616 3.57741 11.5657 3.73222 11.4125C3.88702 11.2593 4.07885 11.1827 4.3077 11.1827C4.53653 11.1827 4.72835 11.2593 4.88315 11.4125C5.03797 11.5657 5.11537 11.7616 5.11537 12C5.11537 12.2261 5.03797 12.4157 4.88315 12.5686C4.72835 12.7216 4.53653 12.7981 4.3077 12.7981ZM4.3077 16.5C4.07885 16.5 3.88702 16.4217 3.73222 16.265C3.57741 16.1084 3.5 15.9142 3.5 15.6827C3.5 15.4566 3.57741 15.267 3.73222 15.1141C3.88702 14.9611 4.07885 14.8846 4.3077 14.8846C4.53653 14.8846 4.72835 14.9611 4.88315 15.1141C5.03797 15.267 5.11537 15.4566 5.11537 15.6827C5.11537 15.9142 5.03797 16.1084 4.88315 16.265C4.72835 16.4217 4.53653 16.5 4.3077 16.5Z" fill="#49454F"/>
</svg>
