<svg width="27" height="23" viewBox="0 0 27 23" fill="none" xmlns="http://www.w3.org/2000/svg">
<path d="M2.57695 22.1499C1.87104 22.1499 1.26675 21.8986 0.764067 21.3959C0.261362 20.8932 0.0100098 20.2889 0.0100098 19.583V15.6917C0.0100098 15.4587 0.0769156 15.2521 0.210727 15.0718C0.344539 14.8916 0.5234 14.7687 0.747311 14.7032C1.36994 14.4137 1.87605 13.9839 2.26565 13.4137C2.65523 12.8435 2.85002 12.2054 2.85002 11.4994C2.85002 10.7934 2.65523 10.1555 2.26565 9.58567C1.87605 9.01585 1.36994 8.5862 0.747311 8.29674C0.5234 8.2312 0.344539 8.10833 0.210727 7.9281C0.0769156 7.74786 0.0100098 7.54123 0.0100098 7.3082V3.41694C0.0100098 2.71104 0.261362 2.10674 0.764067 1.60406C1.26675 1.10136 1.87104 0.850006 2.57695 0.850006H24.4231C25.129 0.850006 25.7333 1.10136 26.236 1.60406C26.7387 2.10674 26.99 2.71104 26.99 3.41694V7.3082C26.99 7.54123 26.9231 7.74786 26.7893 7.9281C26.6555 8.10833 26.4766 8.2312 26.2527 8.29674C25.6301 8.5862 25.124 9.01605 24.7344 9.58628C24.3448 10.1565 24.15 10.7946 24.15 11.5005C24.15 12.2065 24.3448 12.8444 24.7344 13.4143C25.124 13.9841 25.6301 14.4137 26.2527 14.7032C26.4766 14.7687 26.6555 14.8916 26.7893 15.0718C26.9231 15.2521 26.99 15.4587 26.99 15.6917V19.583C26.99 20.2889 26.7387 20.8932 26.236 21.3959C25.7333 21.8986 25.129 22.1499 24.4231 22.1499H2.57695ZM2.57695 20.02H24.4231C24.5505 20.02 24.6552 19.979 24.7371 19.8971C24.8191 19.8151 24.86 19.7104 24.86 19.583V16.399C23.9844 15.8783 23.2921 15.1861 22.7833 14.3222C22.2744 13.4584 22.02 12.5176 22.02 11.5C22.02 10.4823 22.2744 9.54156 22.7833 8.67772C23.2921 7.81389 23.9844 7.12164 24.86 6.60097V3.41694C24.86 3.2895 24.8191 3.18481 24.7371 3.10287C24.6552 3.02094 24.5505 2.97997 24.4231 2.97997H2.57695C2.44951 2.97997 2.34482 3.02094 2.26288 3.10287C2.18095 3.18481 2.13998 3.2895 2.13998 3.41694V6.60097C3.01565 7.12164 3.7079 7.81389 4.21673 8.67772C4.72557 9.54156 4.97999 10.4823 4.97999 11.5C4.97999 12.5176 4.72557 13.4584 4.21673 14.3222C3.7079 15.1861 3.01565 15.8783 2.13998 16.399V19.583C2.13998 19.7104 2.18095 19.8151 2.26288 19.8971C2.34482 19.979 2.44951 20.02 2.57695 20.02ZM13.5005 18.1084C13.8024 18.1084 14.0553 18.0063 14.2591 17.8021C14.463 17.5979 14.565 17.3448 14.565 17.0429C14.565 16.7411 14.4629 16.4882 14.2587 16.2843C14.0545 16.0804 13.8014 15.9784 13.4995 15.9784C13.1977 15.9784 12.9448 16.0806 12.7409 16.2848C12.537 16.489 12.435 16.742 12.435 17.0439C12.435 17.3458 12.5371 17.5987 12.7413 17.8026C12.9456 18.0065 13.1986 18.1084 13.5005 18.1084ZM13.5005 12.5649C13.8024 12.5649 14.0553 12.4628 14.2591 12.2586C14.463 12.0544 14.565 11.8014 14.565 11.4995C14.565 11.1976 14.4629 10.9447 14.2587 10.7408C14.0545 10.537 13.8014 10.435 13.4995 10.435C13.1977 10.435 12.9448 10.5371 12.7409 10.7413C12.537 10.9455 12.435 11.1986 12.435 11.5004C12.435 11.8023 12.5371 12.0552 12.7413 12.2591C12.9456 12.463 13.1986 12.5649 13.5005 12.5649ZM13.5005 7.02151C13.8024 7.02151 14.0553 6.91939 14.2591 6.71518C14.463 6.51096 14.565 6.25791 14.565 5.95604C14.565 5.65418 14.4629 5.40128 14.2587 5.19737C14.0545 4.99348 13.8014 4.89154 13.4995 4.89154C13.1977 4.89154 12.9448 4.99365 12.7409 5.19787C12.537 5.40207 12.435 5.65511 12.435 5.957C12.435 6.25887 12.5371 6.51176 12.7413 6.71567C12.9456 6.91956 13.1986 7.02151 13.5005 7.02151Z" fill="#111827"/>
</svg>
