<svg width="18" height="20" viewBox="0 0 18 20" fill="none" xmlns="http://www.w3.org/2000/svg">
<mask id="mask0_240_32398" style="mask-type:luminance" maskUnits="userSpaceOnUse" x="0" y="0" width="18" height="20">
<path d="M14.7682 13.8898C14.2933 13.1096 13.96 11.9166 13.96 10.9975V6.99781C13.96 4.24027 11.7248 2 8.97097 2C6.22028 2 3.98198 4.2408 3.98198 6.99781V10.9975C3.98198 11.9069 3.65298 13.1042 3.18608 13.8906L3.12113 14H14.8353L14.7682 13.8898ZM8.97097 0C12.8284 0 15.9555 3.13718 15.9555 6.99781V10.9975C15.9555 11.5512 16.189 12.3835 16.4719 12.8483L17.8739 15.1517C18.159 15.6202 17.9445 16 17.3938 16L11.8033 16.0001C11.9136 16.3128 11.9736 16.6494 11.9736 17C11.9736 18.6569 10.6334 20 8.98018 20C7.32697 20 5.98678 18.6569 5.98678 17C5.98678 16.6494 6.04679 16.3128 6.15708 16.0001L0.607986 16C0.0577132 16 -0.16067 15.6165 0.126916 15.1321L1.4711 12.8679C1.75568 12.3886 1.98639 11.5442 1.98639 10.9975V6.99781C1.98639 3.13303 5.12134 0 8.97097 0ZM8.98018 16C8.42911 16 7.98238 16.4477 7.98238 17C7.98238 17.5523 8.42911 18 8.98018 18C9.53124 18 9.97797 17.5523 9.97797 17C9.97797 16.4477 9.53124 16 8.98018 16Z" fill="white"/>
</mask>
<g mask="url(#mask0_240_32398)">
<path fill-rule="evenodd" clip-rule="evenodd" d="M21 -2H-3V22H21V-2Z" fill="white"/>
</g>
</svg>
