<svg width="24" height="24" viewBox="0 0 24 24" fill="none" xmlns="http://www.w3.org/2000/svg">
<path d="M16.1396 15.1183C15.8931 14.5905 15.4562 14.1899 14.9088 13.9907C14.3621 13.7922 13.7696 13.8184 13.2411 14.0641L11.7231 14.7817C11.0245 14.0714 10.456 13.2543 10.035 12.3521C9.61265 11.4455 9.35021 10.4815 9.25788 9.50517L10.7817 8.79417C11.8714 8.28527 12.344 6.98468 11.8358 5.89565L10.6065 3.2603C10.36 2.7325 9.92308 2.33193 9.37565 2.13273C8.82895 1.93353 8.23645 1.95898 7.70793 2.20616L5.25869 3.34899C4.46917 3.71757 3.97482 4.52236 4.00099 5.39911C4.08896 8.46411 4.78905 11.4237 6.0831 14.1965C7.35897 16.9314 9.22807 19.4366 11.4868 21.4424C11.8998 21.8088 12.4218 22 12.9488 22C13.26 22 13.5726 21.9331 13.8648 21.7972L16.0611 20.7721C16.6936 20.4769 17.1545 20.0299 17.3951 19.4788C17.6379 18.9219 17.6292 18.3091 17.3704 17.7544L16.1411 15.119L16.1396 15.1183ZM16.0611 18.8972C15.9666 19.1153 15.747 19.313 15.4453 19.4541L13.2491 20.4791C12.9874 20.602 12.6733 20.5526 12.4516 20.3548C10.3396 18.4799 8.59341 16.1383 7.40041 13.5814C6.19069 10.9897 5.5364 8.22275 5.45352 5.35694C5.4448 5.06106 5.60983 4.78989 5.873 4.66703L8.32224 3.52419C8.42111 3.47767 8.5258 3.45586 8.6283 3.45586C8.90165 3.45586 9.16482 3.61143 9.28841 3.87533L10.5178 6.51068C10.6871 6.87418 10.5301 7.30747 10.1666 7.47686L8.64212 8.18858C8.08597 8.44812 7.75082 9.02608 7.80753 9.62658C7.91803 10.7861 8.22409 11.9101 8.71627 12.9678C9.20844 14.0212 9.87073 14.9751 10.6857 15.8024C11.1124 16.2371 11.7747 16.3549 12.3316 16.0939L13.8547 15.3829C14.0306 15.3 14.2269 15.292 14.4108 15.3582C14.5933 15.4243 14.7387 15.5574 14.8208 15.734L16.0502 18.3694C16.1316 18.5431 16.1345 18.7264 16.0596 18.8979L16.0611 18.8972ZM17.3762 8.11298C17.9193 9.14385 18.0276 10.3245 17.683 11.4375C17.5863 11.7494 17.2991 11.9493 16.9887 11.9493C16.9175 11.9493 16.8448 11.9384 16.7728 11.9166C16.3897 11.7974 16.1752 11.3903 16.2937 11.0071C16.5234 10.2656 16.4507 9.47827 16.0894 8.79126C15.7274 8.10353 15.1196 7.59826 14.3774 7.36854C13.9942 7.24931 13.7798 6.84219 13.8983 6.45907C14.0168 6.07594 14.4253 5.8593 14.8077 5.97998C15.9208 6.3253 16.8324 7.08283 17.3755 8.1137L17.3762 8.11298ZM20.4601 12.299C20.3634 12.6109 20.0763 12.8108 19.7658 12.8108C19.6946 12.8108 19.6219 12.7999 19.5499 12.7781C19.1668 12.6589 18.9523 12.2517 19.0708 11.8686C19.531 10.3848 19.3856 8.81089 18.6623 7.43615C17.9382 6.0614 16.7226 5.05088 15.2389 4.59069C14.8557 4.47147 14.6413 4.06435 14.7598 3.68123C14.8783 3.2981 15.2868 3.08218 15.6692 3.20214C19.4983 4.38932 21.6473 8.47066 20.4594 12.2997L20.4601 12.299Z" fill="#001E27"/>
</svg>
