<svg width="24" height="24" viewBox="0 0 24 24" fill="none" xmlns="http://www.w3.org/2000/svg">
<g clip-path="url(#clip0_240_32869)">
<path d="M22.713 9.82618C22.8862 9.75653 22.9999 9.58783 22.9999 9.40084V6.45835C22.9999 6.20535 22.7945 6 22.5415 6H1.45835C1.20535 6.00004 1 6.20535 1 6.45835V9.40084C1 9.58783 1.11365 9.75649 1.2869 9.82618C2.2118 10.1974 2.83329 11.2388 2.83329 12.4167C2.83329 13.5946 2.2118 14.6359 1.2869 15.0072C1.11365 15.0768 1 15.2455 1 15.4325V18.375C1 18.628 1.20535 18.8333 1.45835 18.8333H22.5416C22.7946 18.8333 22.9999 18.628 22.9999 18.375V15.4325C22.9999 15.2455 22.8863 15.0769 22.713 15.0072C21.7881 14.6359 21.1666 13.5946 21.1666 12.4167C21.1666 11.2388 21.788 10.1974 22.713 9.82618ZM20.2499 12.4167C20.2499 13.8448 20.975 15.1328 22.0832 15.7231V17.9166H16.5833V17.4583C16.5833 17.2053 16.3779 17 16.1249 17C15.8719 17 15.6666 17.2053 15.6666 17.4583V17.9166H1.91665V15.7231C3.02489 15.1328 3.74998 13.8458 3.74998 12.4167C3.74998 10.9876 3.02489 9.70058 1.91665 9.11028V6.91669H15.6666V7.37504C15.6666 7.62804 15.8719 7.83338 16.1249 7.83338C16.3779 7.83338 16.5833 7.62804 16.5833 7.37504V6.91669H22.0832V9.11028C20.975 9.70153 20.2499 10.9885 20.2499 12.4167Z" fill="white" fill-opacity="0.6" stroke="white" stroke-opacity="0.6" stroke-width="0.3"/>
<path d="M16.1244 8.75C15.8714 8.75 15.666 8.95535 15.666 9.20835V10.125C15.666 10.378 15.8714 10.5833 16.1244 10.5833C16.3774 10.5833 16.5827 10.378 16.5827 10.125V9.20835C16.5827 8.9553 16.3774 8.75 16.1244 8.75Z" fill="white" fill-opacity="0.6" stroke="white" stroke-opacity="0.6" stroke-width="0.3"/>
<path d="M16.1244 11.5C15.8714 11.5 15.666 11.7053 15.666 11.9583V12.875C15.666 13.128 15.8714 13.3333 16.1244 13.3333C16.3774 13.3333 16.5827 13.128 16.5827 12.875V11.9583C16.5827 11.7053 16.3774 11.5 16.1244 11.5Z" fill="white" fill-opacity="0.6" stroke="white" stroke-opacity="0.6" stroke-width="0.3"/>
<path d="M16.1244 14.25C15.8714 14.25 15.666 14.4553 15.666 14.7083V15.625C15.666 15.878 15.8714 16.0833 16.1244 16.0833C16.3774 16.0833 16.5827 15.878 16.5827 15.625V14.7083C16.5827 14.4553 16.3774 14.25 16.1244 14.25Z" fill="white" fill-opacity="0.6" stroke="white" stroke-opacity="0.6" stroke-width="0.3"/>
<path d="M10.6257 15.1666H6.04233C5.78933 15.1666 5.58398 15.372 5.58398 15.625C5.58398 15.878 5.78933 16.0833 6.04233 16.0833H10.6257C10.8787 16.0833 11.084 15.878 11.084 15.625C11.084 15.372 10.8787 15.1666 10.6257 15.1666Z" fill="white" fill-opacity="0.6" stroke="white" stroke-opacity="0.6" stroke-width="0.3"/>
<path d="M12.459 13.3333H6.04233C5.78933 13.3333 5.58398 13.5387 5.58398 13.7917C5.58398 14.0447 5.78933 14.25 6.04233 14.25H12.4589C12.7119 14.25 12.9173 14.0447 12.9173 13.7917C12.9173 13.5387 12.712 13.3333 12.459 13.3333Z" fill="white" fill-opacity="0.6" stroke="white" stroke-opacity="0.6" stroke-width="0.3"/>
</g>
<defs>
<clipPath id="clip0_240_32869">
<rect width="24" height="24" fill="white"/>
</clipPath>
</defs>
</svg>
