<svg width="24" height="24" viewBox="0 0 24 24" fill="none" xmlns="http://www.w3.org/2000/svg">
<path d="M9.99863 14.1776H9.84863V14.3276V19.3276C9.84863 19.7948 9.46579 20.1776 8.99863 20.1776H5.99863C5.53148 20.1776 5.14863 19.7948 5.14863 19.3276V12.3276V12.1776H4.99863H3.29863C2.97837 12.1776 2.83035 11.7797 3.06788 11.5701L3.06788 11.5701L3.06902 11.5691L11.4287 4.03939C11.4287 4.03937 11.4287 4.03934 11.4287 4.03931C11.7518 3.75037 12.2455 3.75037 12.5685 4.03931C12.5686 4.03934 12.5686 4.03937 12.5686 4.03939L20.9282 11.5691L20.9282 11.5691L20.931 11.5715C21.1707 11.7769 21.0255 12.1776 20.6986 12.1776H18.9986H18.8486V12.3276V19.3276C18.8486 19.7948 18.4658 20.1776 17.9986 20.1776H14.9986C14.5315 20.1776 14.1486 19.7948 14.1486 19.3276V14.3276V14.1776H13.9986H9.99863Z" fill="white" fill-opacity="0.6" stroke="#001E27" stroke-width="0.3"/>
</svg>
