<svg width="24" height="24" viewBox="0 0 24 24" fill="none" xmlns="http://www.w3.org/2000/svg">
<path d="M10.1611 5.41627L10.161 5.4171C10.3283 5.43888 10.514 5.34885 10.656 5.20659C10.7912 5.07109 10.8659 4.89248 10.8668 4.70039V4.16693C10.8668 3.80796 11.1412 3.5352 11.5 3.5352C11.8608 3.5352 12.1381 3.80713 12.1381 4.16693L12.1381 4.70138L12.1381 4.7016M10.1611 5.41627L12.851 5.51627C12.4039 5.51432 12.039 5.14942 12.0381 4.7016H12.1381M10.1611 5.41627H10.1481H9.85678H9.75678V5.51627V6.05386V6.15386H9.85678H13.1471H13.2471V6.05386V5.81775H13.2478L13.2464 5.80615C13.2464 5.80617 13.2464 5.80598 13.2464 5.80557L13.2462 5.8039L13.246 5.79824C13.2458 5.79354 13.2457 5.78765 13.2458 5.78082C13.2459 5.76711 13.2465 5.75093 13.2478 5.73482L13.2481 5.73484L13.2481 5.72655L13.2471 5.51581L13.2466 5.41627H13.1471H12.8512M10.1611 5.41627H12.8512M12.1381 4.7016C12.139 5.09422 12.4592 5.41444 12.8512 5.41627M12.1381 4.7016L12.8512 5.41627M6.69322 11.0662L6.69323 11.0662L6.69197 11.065C6.48168 10.8624 6.41604 10.5528 6.52837 10.2783C6.63988 10.0063 6.89866 9.83208 7.19065 9.83208H7.1972C7.3917 9.833 7.5713 9.90977 7.7076 10.0489L7.70833 10.0496L8.17769 10.5189L8.2484 10.5896L8.3191 10.5189L8.79136 10.0467L8.79137 10.0467L8.79234 10.0457C8.91933 9.91513 9.09311 9.83803 9.27936 9.83203L9.27936 9.83207L9.28195 9.83192C9.57206 9.81501 9.84892 9.99498 9.96504 10.2687C10.0805 10.5409 10.015 10.8626 9.80189 11.068L9.80188 11.068L9.80066 11.0692L9.33421 11.5346L9.26326 11.6053L9.33421 11.6761L9.80356 12.1445L9.80355 12.1445L9.80487 12.1457C9.98954 12.3234 10.0654 12.5923 9.9991 12.8443L9.9989 12.8451C9.93536 13.0946 9.73838 13.2925 9.48778 13.3585C9.23022 13.4262 8.96656 13.3475 8.78909 13.1617L8.7891 13.1617L8.78756 13.1602L8.31917 12.6909L8.24839 12.6199L8.17761 12.6909L7.70536 13.1641L7.70534 13.164L7.70405 13.1654C7.57056 13.3042 7.38395 13.3815 7.19065 13.3815C7.13061 13.3815 7.07026 13.3739 7.00943 13.3583C6.75737 13.2923 6.56134 13.0945 6.49686 12.8439L6.49678 12.8436C6.43141 12.5928 6.50694 12.3235 6.69501 12.1416L6.69502 12.1416L6.69605 12.1406L7.1625 11.6762L7.2336 11.6054L7.16258 11.5346L6.69322 11.0662ZM9.63576 14.9352L9.63577 14.9352L9.6371 14.9338C9.76322 14.8007 9.93561 14.7228 10.1229 14.7143V14.7144L10.1278 14.7142C10.4059 14.7006 10.6947 14.878 10.81 15.1473L10.8102 15.1478C10.9272 15.4171 10.8653 15.7378 10.6539 15.9449L10.6539 15.9449L10.6526 15.9461L8.58965 18.0396C8.448 18.1824 8.26365 18.2549 8.07904 18.2549C7.92079 18.2549 7.76122 18.2012 7.62831 18.093L6.57355 17.2325L6.57358 17.2325L6.57107 17.2306C6.36832 17.0756 6.26337 16.8145 6.30336 16.5555L6.30342 16.5551C6.3425 16.2947 6.51993 16.0773 6.76793 15.9874C7.00874 15.9002 7.28594 15.9498 7.48388 16.1228L7.48384 16.1229L7.48648 16.125L7.95777 16.5094L8.02832 16.567L8.09222 16.5021L9.63576 14.9352ZM8.32517 6.86874V6.86853V6.60413V6.50413H8.22517H5.63259H5.53259V6.60413V20.3648V20.4648H5.63259H17.3684H17.4684V20.3648V6.60413V6.50413H17.3684H14.7758H14.6758V6.60413V6.86951L14.6758 6.86972C14.6767 7.26467 14.357 7.58821 13.9627 7.59003H9.03829C8.644 7.58821 8.32432 7.26475 8.32517 6.86874ZM8.22517 6.86853V6.70413V6.86853ZM18.9 21.1804L18.9 21.1809C18.9008 21.3727 18.8263 21.553 18.6911 21.6884L18.6907 21.6888C18.5568 21.8246 18.3784 21.899 18.187 21.9C18.1869 21.9 18.1868 21.9 18.1866 21.9L4.81872 21.9H4.81389C4.62779 21.9 4.44415 21.8239 4.31079 21.6913C4.17567 21.5559 4.09917 21.3698 4.10001 21.1799V21.1795V5.78457C4.10001 5.41228 4.37773 5.10538 4.74618 5.06943L4.76033 5.06807L4.83269 5.06987L4.83269 5.0699L4.8352 5.0699L8.2252 5.06893L8.32517 5.0689V4.96893L8.32517 4.70062L8.32517 4.70018C8.32432 4.50812 8.39809 4.32802 8.53379 4.19292L8.53445 4.19225C8.66864 4.05611 8.84728 3.98101 9.03732 3.98009H9.37H9.45721L9.46907 3.8937C9.60767 2.88484 10.4765 2.1 11.5 2.1C12.5265 2.1 13.3962 2.88498 13.5338 3.89361L13.5456 3.98009H13.6329H13.9617C14.1538 3.98101 14.3324 4.0562 14.4665 4.19225L14.467 4.1927C14.602 4.32804 14.6767 4.50833 14.6758 4.70115V4.7016V4.96893V5.06893H14.7758H18.1859C18.5767 5.07075 18.8972 5.3908 18.9 5.78383L18.9 21.1804ZM15.9274 17.2012H12.3429C11.9493 17.2012 11.6271 16.8794 11.6271 16.4827C11.6271 16.0859 11.9493 15.7641 12.3429 15.7641H15.9274C16.321 15.7641 16.6432 16.0859 16.6432 16.4827C16.6432 16.8794 16.321 17.2012 15.9274 17.2012ZM11.6397 11.6053C11.6397 11.2188 11.9539 10.8969 12.3391 10.8887H15.9264C16.3236 10.8969 16.6306 11.2114 16.6306 11.6053C16.6306 11.9927 16.3155 12.3148 15.9301 12.3239H12.344C11.9536 12.3148 11.6397 11.9925 11.6397 11.6053Z" fill="white" fill-opacity="0.6" stroke="black" stroke-width="0.2"/>
</svg>
