<svg width="24" height="24" viewBox="0 0 24 24" fill="none" xmlns="http://www.w3.org/2000/svg">
<g clip-path="url(#clip0_240_32881)">
<path d="M12 2C13.345 2 14.445 3.067 14.498 4.397C14.88 4.522 15.251 4.676 15.609 4.858C16.591 3.953 18.122 3.979 19.071 4.929C20.022 5.88 20.046 7.412 19.142 8.39C19.324 8.749 19.478 9.12 19.603 9.502C20.933 9.554 22 10.655 22 12C22 13.345 20.933 14.445 19.603 14.498C19.478 14.88 19.324 15.251 19.142 15.609C20.047 16.588 20.022 18.12 19.071 19.071C18.12 20.024 16.588 20.047 15.609 19.143C15.251 19.324 14.88 19.479 14.498 19.604C14.445 20.934 13.345 22 12 22C10.655 22 9.554 20.934 9.502 19.604C9.12 19.479 8.749 19.324 8.391 19.143C7.931 19.567 7.334 19.802 6.7 19.802C6.038 19.802 5.393 19.536 4.929 19.071C3.978 18.12 3.954 16.588 4.857 15.609C4.676 15.251 4.522 14.88 4.397 14.498C3.066 14.445 2 13.345 2 12C2 10.655 3.066 9.555 4.397 9.502C4.522 9.12 4.676 8.749 4.857 8.39C3.954 7.412 3.978 5.88 4.929 4.929C5.88 3.978 7.411 3.954 8.39 4.858C8.748 4.676 9.12 4.522 9.502 4.397C9.555 3.067 10.655 2 12 2ZM11.9995 3.9996C11.7315 3.9996 11.4995 4.2226 11.4995 4.4966V6.0206C10.2185 6.1266 9.0515 6.6346 8.1255 7.4186L7.0475 6.3406C6.8565 6.1496 6.5385 6.1476 6.3435 6.3436C6.1535 6.5326 6.1465 6.8536 6.3405 7.0476L7.4185 8.1256C6.6345 9.0516 6.1265 10.2186 6.0205 11.4996H4.4965C4.2265 11.4996 3.9995 11.7236 3.9995 11.9996C3.9995 12.2686 4.2225 12.4996 4.4965 12.4996H6.0205C6.1265 13.7816 6.6345 14.9486 7.4185 15.8746L6.3405 16.9526C6.1495 17.1436 6.1475 17.4616 6.3435 17.6566C6.5325 17.8466 6.8535 17.8536 7.0475 17.6596L8.1255 16.5816C9.0515 17.3656 10.2185 17.8736 11.4995 17.9796V19.5036C11.4995 19.7736 11.7235 19.9996 11.9995 19.9996C12.2675 19.9996 12.4995 19.7776 12.4995 19.5036V17.9796C13.7815 17.8736 14.9485 17.3656 15.8745 16.5816L16.9525 17.6596C17.1435 17.8506 17.4615 17.8526 17.6565 17.6566C17.8465 17.4676 17.8535 17.1466 17.6595 16.9526L16.5815 15.8746C17.3655 14.9486 17.8735 13.7816 17.9795 12.4996H19.5035C19.7735 12.4996 19.9995 12.2766 19.9995 11.9996C19.9995 11.7316 19.7775 11.4996 19.5035 11.4996H17.9795C17.8735 10.2186 17.3655 9.0516 16.5815 8.1256L17.6595 7.0476C17.8505 6.8566 17.8525 6.5386 17.6565 6.3436C17.4675 6.1536 17.1465 6.1466 16.9525 6.3406L15.8745 7.4186C14.9485 6.6346 13.7815 6.1266 12.4995 6.0206V4.4966C12.4995 4.2266 12.2765 3.9996 11.9995 3.9996ZM11.9999 8.0001C14.209 8.0001 15.9999 9.79096 15.9999 12.0001C15.9999 14.2092 14.209 16.0001 11.9999 16.0001C9.79076 16.0001 7.9999 14.2092 7.9999 12.0001C7.9999 9.79096 9.79076 8.0001 11.9999 8.0001ZM11.9999 10.0001C10.8953 10.0001 9.9999 10.8955 9.9999 12.0001C9.9999 13.1047 10.8953 14.0001 11.9999 14.0001C13.1045 14.0001 13.9999 13.1047 13.9999 12.0001C13.9999 10.8955 13.1045 10.0001 11.9999 10.0001Z" fill="white" fill-opacity="0.6" stroke="#001E27" stroke-width="0.3"/>
</g>
<defs>
<clipPath id="clip0_240_32881">
<rect width="24" height="24" fill="white"/>
</clipPath>
</defs>
</svg>
