<svg width="24" height="24" viewBox="0 0 24 24" fill="none" xmlns="http://www.w3.org/2000/svg">
<path d="M14.5915 5.85H14.2083L14.4897 6.11014L16.4534 7.92552L12.2397 12.7799L8.75745 10.5303L8.66042 10.4676L8.57503 10.5454L2.89897 15.7172L2.77817 15.8273L2.89817 15.9383L4.16578 17.1101L4.26666 17.2034L4.3684 17.1111L8.69148 13.1885L12.1862 15.4463L12.2931 15.5154L12.3786 15.4212L17.9389 9.29881L19.8982 11.1101L20.15 11.343V11V6V5.85H20H14.5915ZM8.96314 15.388L8.86631 15.3254L8.78094 15.4029L5.51074 18.3701C4.80061 19.0144 3.71586 19.0094 3.01176 18.3584L1.74415 17.1866C0.94805 16.4506 0.952599 15.1909 1.754 14.4607L7.43005 9.28878C8.05078 8.72319 8.9746 8.64663 9.67996 9.10233L11.8136 10.4808L11.923 10.5514L12.0083 10.4531L13.9943 8.16516L14.0896 8.05537L13.9828 7.95669L13.3357 7.35844C12.0996 6.21569 12.9082 4.15 14.5915 4.15H20C21.0217 4.15 21.85 4.97827 21.85 6V11C21.85 12.6134 19.9289 13.4537 18.7442 12.3584L18.1554 11.8141L18.0443 11.7114L17.9425 11.8234L13.6371 16.5641C13.0284 17.2343 12.0241 17.3655 11.2637 16.8742L8.96314 15.388Z" fill="white" fill-opacity="0.6" stroke="black" stroke-width="0.3"/>
</svg>
