<svg width="24" height="24" viewBox="0 0 24 24" fill="none" xmlns="http://www.w3.org/2000/svg">
<path d="M18.3 3.26444L18.3009 3.26442C18.641 3.25849 18.952 3.45578 19.0914 3.76606L19.0914 3.76608L19.0923 3.76793L20.887 7.35732V7.40851V7.41806L20.8905 7.42694C20.927 7.51886 20.9471 7.61644 20.95 7.71528V20.3143C20.95 20.7837 20.5694 21.1643 20.1 21.1643H3.9C3.43056 21.1643 3.05 20.7837 3.05 20.3143V7.71824L3.06694 7.60546C3.08303 7.53263 3.10867 7.46206 3.14333 7.39564L3.149 7.38477V7.37251V7.32132L4.94365 3.73207C4.94367 3.73204 4.94368 3.73201 4.94369 3.73199C5.08773 3.44623 5.38006 3.26557 5.70009 3.26443L18.3 3.26444ZM19.25 8.61449V8.56449H19.2H4.8H4.75V8.61449V19.4143V19.4643H4.8H19.2H19.25V19.4143V8.61449ZM17.7867 4.99219L17.7729 4.96455H17.742H6.258H6.2271L6.21328 4.99219L5.31328 6.79216L5.2771 6.86452H5.358H18.642H18.7229L18.6867 6.79216L17.7867 4.99219ZM14.7 10.4645C15.1694 10.4645 15.55 10.845 15.55 11.3144C15.55 11.7839 15.1694 12.1644 14.7 12.1644H9.3C8.83056 12.1644 8.45 11.7839 8.45 11.3144C8.45 10.845 8.83056 10.4645 9.3 10.4645H14.7Z" fill="white" fill-opacity="0.6" stroke="black" stroke-width="0.1"/>
</svg>
