<svg width="24" height="24" viewBox="0 0 24 24" fill="none" xmlns="http://www.w3.org/2000/svg">
<path d="M8.8769 20.5H4.99997C4.58461 20.5 4.23077 20.3538 3.93845 20.0615C3.64615 19.7692 3.5 19.4154 3.5 19V15.1231C4.18462 15.0397 4.77243 14.7551 5.26345 14.2692C5.75447 13.7833 5.99997 13.1936 5.99997 12.5C5.99997 11.8064 5.75447 11.2167 5.26345 10.7308C4.77243 10.2449 4.18462 9.96028 3.5 9.87693V6C3.5 5.58464 3.64615 5.2308 3.93845 4.93848C4.23077 4.64618 4.58461 4.50003 4.99997 4.50003H8.99997C9.08973 3.86415 9.36825 3.3398 9.83555 2.92698C10.3029 2.51416 10.8577 2.30775 11.5 2.30775C12.1423 2.30775 12.6971 2.51416 13.1644 2.92698C13.6317 3.3398 13.9102 3.86415 14 4.50003H18C18.4153 4.50003 18.7692 4.64618 19.0615 4.93848C19.3538 5.2308 19.5 5.58464 19.5 6V10C20.1358 10.0898 20.6602 10.3683 21.073 10.8356C21.4858 11.3029 21.6922 11.8577 21.6922 12.5C21.6922 13.1423 21.4858 13.6971 21.073 14.1644C20.6602 14.6317 20.1358 14.9103 19.5 15V19C19.5 19.4154 19.3538 19.7692 19.0615 20.0615C18.7692 20.3538 18.4153 20.5 18 20.5H14.123C14.0333 19.782 13.7403 19.1859 13.2442 18.7115C12.748 18.2372 12.1666 18 11.5 18C10.8333 18 10.2519 18.2372 9.75575 18.7115C9.2596 19.1859 8.96665 19.782 8.8769 20.5ZM4.99997 19H7.71155C8.05385 18.118 8.59455 17.4808 9.33365 17.0885C10.0727 16.6962 10.7949 16.5 11.5 16.5C12.2051 16.5 12.9272 16.6962 13.6663 17.0885C14.4054 17.4808 14.9461 18.118 15.2884 19H18V13.5577H19.2307C19.5371 13.5193 19.774 13.3955 19.9413 13.1866C20.1086 12.9776 20.1922 12.7487 20.1922 12.5C20.1922 12.2513 20.1086 12.0224 19.9413 11.8134C19.774 11.6045 19.5371 11.4807 19.2307 11.4423H18V6H12.5577V4.76928C12.5192 4.46286 12.3955 4.226 12.1866 4.05868C11.9776 3.89138 11.7487 3.80773 11.5 3.80773C11.2512 3.80773 11.0224 3.89138 10.8134 4.05868C10.6044 4.226 10.4807 4.46286 10.4423 4.76928V6H4.99997V8.7385C5.75894 9.0526 6.36534 9.55164 6.81918 10.2356C7.27303 10.9196 7.49995 11.6744 7.49995 12.5C7.49995 13.3154 7.27303 14.065 6.81918 14.749C6.36534 15.433 5.75894 15.9372 4.99997 16.2615V19Z" fill="#49454F"/>
</svg>
