<svg width="24" height="24" viewBox="0 0 24 24" fill="none" xmlns="http://www.w3.org/2000/svg">
<path d="M4.3077 19.5C3.81058 19.5 3.38503 19.323 3.03102 18.969C2.67701 18.615 2.5 18.1894 2.5 17.6923V14.952C2.5 14.7879 2.54712 14.6423 2.64135 14.5154C2.73558 14.3885 2.86154 14.302 3.01923 14.2558C3.45769 14.052 3.81411 13.7492 4.08847 13.3477C4.36283 12.9461 4.5 12.4968 4.5 11.9996C4.5 11.5024 4.36283 11.0532 4.08847 10.6519C3.81411 10.2506 3.45769 9.94806 3.01923 9.74421C2.86154 9.69806 2.73558 9.61152 2.64135 9.48461C2.54712 9.35767 2.5 9.21216 2.5 9.04806V6.30773C2.5 5.81061 2.67701 5.38506 3.03102 5.03106C3.38503 4.67704 3.81058 4.50003 4.3077 4.50003H19.6923C20.1894 4.50003 20.6149 4.67704 20.9689 5.03106C21.3229 5.38506 21.5 5.81061 21.5 6.30773V9.04806C21.5 9.21216 21.4528 9.35767 21.3586 9.48461C21.2644 9.61152 21.1384 9.69806 20.9807 9.74421C20.5423 9.94806 20.1858 10.2508 19.9115 10.6523C19.6371 11.0539 19.5 11.5032 19.5 12.0004C19.5 12.4976 19.6371 12.9468 19.9115 13.3481C20.1858 13.7494 20.5423 14.052 20.9807 14.2558C21.1384 14.302 21.2644 14.3885 21.3586 14.5154C21.4528 14.6423 21.5 14.7879 21.5 14.952V17.6923C21.5 18.1894 21.3229 18.615 20.9689 18.969C20.6149 19.323 20.1894 19.5 19.6923 19.5H4.3077ZM4.3077 18H19.6923C19.782 18 19.8557 17.9712 19.9134 17.9135C19.9711 17.8558 20 17.782 20 17.6923V15.45C19.3833 15.0833 18.8958 14.5958 18.5375 13.9875C18.1791 13.3792 18 12.7167 18 12C18 11.2833 18.1791 10.6208 18.5375 10.0125C18.8958 9.40417 19.3833 8.91667 20 8.55001V6.30773C20 6.21798 19.9711 6.14426 19.9134 6.08656C19.8557 6.02886 19.782 6.00001 19.6923 6.00001H4.3077C4.21795 6.00001 4.14423 6.02886 4.08653 6.08656C4.02883 6.14426 3.99998 6.21798 3.99998 6.30773V8.55001C4.61664 8.91667 5.10414 9.40417 5.46248 10.0125C5.82081 10.6208 5.99998 11.2833 5.99998 12C5.99998 12.7167 5.82081 13.3792 5.46248 13.9875C5.10414 14.5958 4.61664 15.0833 3.99998 15.45V17.6923C3.99998 17.782 4.02883 17.8558 4.08653 17.9135C4.14423 17.9712 4.21795 18 4.3077 18ZM12.0003 16.6538C12.2129 16.6538 12.391 16.5819 12.5346 16.4381C12.6782 16.2943 12.75 16.1161 12.75 15.9035C12.75 15.6909 12.6781 15.5128 12.5343 15.3692C12.3904 15.2256 12.2122 15.1539 11.9997 15.1539C11.7871 15.1539 11.609 15.2258 11.4654 15.3696C11.3218 15.5134 11.25 15.6916 11.25 15.9042C11.25 16.1168 11.3219 16.2949 11.4657 16.4385C11.6095 16.582 11.7877 16.6538 12.0003 16.6538ZM12.0003 12.75C12.2129 12.75 12.391 12.6781 12.5346 12.5343C12.6782 12.3905 12.75 12.2123 12.75 11.9997C12.75 11.7871 12.6781 11.609 12.5343 11.4654C12.3904 11.3218 12.2122 11.25 11.9997 11.25C11.7871 11.25 11.609 11.3219 11.4654 11.4657C11.3218 11.6095 11.25 11.7877 11.25 12.0003C11.25 12.2129 11.3219 12.391 11.4657 12.5346C11.6095 12.6782 11.7877 12.75 12.0003 12.75ZM12.0003 8.84616C12.2129 8.84616 12.391 8.77425 12.5346 8.63043C12.6782 8.48661 12.75 8.30841 12.75 8.09583C12.75 7.88325 12.6781 7.70516 12.5343 7.56156C12.3904 7.41797 12.2122 7.34618 11.9997 7.34618C11.7871 7.34618 11.609 7.41809 11.4654 7.56191C11.3218 7.70571 11.25 7.88391 11.25 8.09651C11.25 8.30909 11.3219 8.48718 11.4657 8.63078C11.6095 8.77436 11.7877 8.84616 12.0003 8.84616Z" fill="#49454F"/>
</svg>
