<svg width="16" height="16" viewBox="0 0 16 16" fill="none" xmlns="http://www.w3.org/2000/svg">
<g clip-path="url(#clip0_2795_125562)">
<path d="M8 16C12.4183 16 16 12.4183 16 8C16 3.58172 12.4183 0 8 0C3.58172 0 0 3.58172 0 8C0 12.4183 3.58172 16 8 16Z" fill="#039BE5"/>
<path d="M3.66072 7.82667L11.3741 4.85267C11.7321 4.72333 12.0447 4.94 11.9287 5.48133L11.9294 5.48067L10.6161 11.668C10.5187 12.1067 10.2581 12.2133 9.89339 12.0067L7.89339 10.5327L6.92872 11.462C6.82205 11.5687 6.73205 11.6587 6.52539 11.6587L6.66739 9.62333L10.3741 6.27467C10.5354 6.13267 10.3381 6.05267 10.1254 6.194L5.54472 9.078L3.57005 8.462C3.14139 8.326 3.13205 8.03333 3.66072 7.82667Z" fill="white"/>
</g>
<defs>
<clipPath id="clip0_2795_125562">
<rect width="16" height="16" fill="white"/>
</clipPath>
</defs>
</svg>
