<svg width="350" height="300" viewBox="0 0 298 220" fill="none" xmlns="http://www.w3.org/2000/svg">
<g clip-path="url(#clip0_58_38997)">
<path opacity="0.9" d="M230.419 3.91228C235.198 2.22277 240.265 1.50008 245.325 1.78621C270.428 3.37473 286.228 25.3724 290.843 48.3788C297.547 81.7437 280.575 115.882 256.723 138.435C255.95 139.172 255.164 139.891 254.367 140.604C229.555 162.68 196.341 173.981 163.399 174.923C142.682 175.527 118.099 168.514 104.43 152.073C90.1335 134.89 93.3045 96.0585 120.527 94.2465C131.616 93.5036 141.957 97.5323 152.635 99.7429C167.439 102.811 183.554 99.8396 195.701 90.6286C219.861 72.3334 198.117 38.8899 212.897 16.9406C216.986 10.8522 223.388 6.38264 230.419 3.91228Z" fill="#EDF7FB"/>
<path fill-rule="evenodd" clip-rule="evenodd" d="M75.1593 115.798C74.3175 115.782 73.4756 115.752 72.6338 115.709C72.3787 115.696 72.1619 115.893 72.1489 116.147C72.1358 116.402 72.3326 116.619 72.5868 116.632C73.4391 116.675 74.2905 116.705 75.141 116.722C75.3961 116.726 75.6068 116.524 75.612 116.269C75.6163 116.014 75.4135 115.803 75.1593 115.798ZM83.1911 115.554C82.3528 115.622 81.5118 115.676 80.67 115.718C80.4158 115.731 80.219 115.948 80.2321 116.202C80.2443 116.457 80.461 116.654 80.7152 116.641C81.5675 116.599 82.4189 116.544 83.2669 116.475C83.5211 116.454 83.7108 116.231 83.6891 115.977C83.6691 115.722 83.4453 115.532 83.1911 115.554ZM67.1388 115.25C66.3022 115.151 65.4673 115.042 64.6324 114.919C64.38 114.882 64.1458 115.057 64.1084 115.309C64.0709 115.561 64.2459 115.796 64.4984 115.833C65.3411 115.957 66.1855 116.069 67.0317 116.167C67.285 116.197 67.514 116.016 67.5436 115.762C67.5732 115.509 67.3921 115.279 67.1388 115.25ZM91.1515 114.475C90.3254 114.634 89.4957 114.776 88.6626 114.907C88.4101 114.946 88.2378 115.182 88.2769 115.434C88.3161 115.686 88.552 115.858 88.8045 115.82C89.6472 115.688 90.4873 115.543 91.3239 115.383C91.5746 115.335 91.7392 115.093 91.6922 114.842C91.6443 114.592 91.4023 114.427 91.1515 114.476V114.475ZM59.2053 113.941C58.3809 113.765 57.5591 113.577 56.7417 113.377C56.4927 113.316 56.2437 113.468 56.1828 113.716C56.1227 113.964 56.2742 114.214 56.5223 114.274C57.3502 114.477 58.1807 114.666 59.013 114.844C59.2628 114.897 59.5083 114.738 59.5614 114.488C59.6154 114.238 59.4561 113.993 59.2062 113.94L59.2053 113.941ZM98.9396 112.522C98.1361 112.773 97.3291 113.01 96.5177 113.231C96.2713 113.298 96.1259 113.552 96.193 113.799C96.26 114.045 96.5142 114.19 96.7606 114.123C97.5841 113.898 98.4025 113.659 99.2164 113.404C99.4593 113.328 99.5951 113.069 99.5185 112.824C99.4428 112.581 99.1834 112.445 98.9396 112.522ZM51.4286 111.898C50.6233 111.645 49.8233 111.382 49.0276 111.107C48.7864 111.024 48.5227 111.152 48.44 111.393C48.3564 111.634 48.4844 111.898 48.7255 111.98C49.5308 112.259 50.3395 112.524 51.1526 112.779C51.3964 112.855 51.6558 112.719 51.7324 112.476C51.8082 112.233 51.6724 111.973 51.4295 111.897L51.4286 111.898ZM106.437 109.662C105.672 110.009 104.899 110.341 104.12 110.66C103.884 110.756 103.771 111.026 103.867 111.262C103.963 111.498 104.233 111.611 104.469 111.516C105.259 111.194 106.043 110.856 106.82 110.502C107.052 110.397 107.155 110.123 107.049 109.891C106.944 109.659 106.67 109.556 106.437 109.662ZM43.8765 109.14C43.0991 108.814 42.3269 108.476 41.5608 108.127C41.3292 108.022 41.0541 108.124 40.9488 108.356C40.8426 108.588 40.9453 108.863 41.1777 108.968C41.9525 109.321 42.7325 109.662 43.5187 109.992C43.7537 110.091 44.0253 109.979 44.1228 109.743C44.2221 109.508 44.1106 109.237 43.8765 109.139V109.14ZM113.511 105.88C112.795 106.325 112.073 106.754 111.342 107.168C111.12 107.292 111.041 107.575 111.167 107.797C111.292 108.019 111.575 108.097 111.797 107.972C112.539 107.552 113.273 107.116 113.999 106.665C114.215 106.53 114.282 106.245 114.147 106.029C114.013 105.813 113.727 105.746 113.511 105.88V105.88ZM36.6221 105.679C35.8786 105.279 35.143 104.869 34.4152 104.447C34.1949 104.319 33.912 104.394 33.784 104.615C33.6561 104.836 33.7309 105.119 33.952 105.246C34.6885 105.672 35.4329 106.089 36.1842 106.492C36.4079 106.613 36.6891 106.529 36.8101 106.304C36.9311 106.08 36.8467 105.799 36.6221 105.679V105.679ZM120.018 101.196C119.369 101.734 118.71 102.256 118.042 102.762C117.839 102.916 117.799 103.207 117.954 103.409C118.107 103.613 118.398 103.652 118.6 103.498C119.279 102.984 119.948 102.453 120.607 101.907C120.804 101.744 120.831 101.453 120.668 101.257C120.505 101.061 120.214 101.033 120.018 101.196ZM29.7455 101.52C29.0482 101.049 28.3569 100.565 27.677 100.07C27.4707 99.9206 27.1817 99.9659 27.0319 100.173C26.8822 100.379 26.9275 100.668 27.1347 100.818C27.8233 101.318 28.5206 101.808 29.2284 102.286C29.439 102.429 29.7263 102.373 29.87 102.162C30.0136 101.951 29.9579 101.664 29.7464 101.52H29.7455ZM23.3416 96.6713C22.6983 96.1273 22.0654 95.5719 21.4429 95.0062C21.254 94.8356 20.9624 94.8495 20.7909 95.0375C20.6194 95.2264 20.6324 95.5188 20.8222 95.6894C21.4516 96.2622 22.0932 96.8254 22.7444 97.3755C22.9394 97.5409 23.2302 97.5156 23.3956 97.3215C23.5601 97.1265 23.5358 96.8349 23.3407 96.6704L23.3416 96.6713ZM17.5184 91.1449C16.943 90.5304 16.3788 89.9054 15.8278 89.2718C15.6606 89.0785 15.3681 89.0585 15.1757 89.2256C14.9833 89.3927 14.9633 89.6852 15.1305 89.8767C15.6894 90.5208 16.2605 91.1536 16.8446 91.7769C17.0196 91.9623 17.3112 91.9718 17.4984 91.7978C17.6838 91.6228 17.6934 91.3303 17.5184 91.1441V91.1449ZM12.3986 84.9675C12.06 84.5035 11.7283 84.0352 11.4036 83.5617C11.253 83.3424 11.1041 83.1222 10.9561 82.8993C10.8151 82.6869 10.5269 82.6295 10.3154 82.7696C10.103 82.9106 10.0446 83.1988 10.1857 83.4111C10.3363 83.6375 10.4877 83.862 10.641 84.0857C10.9709 84.5653 11.3069 85.0406 11.65 85.5115C11.8006 85.7178 12.0896 85.763 12.2959 85.6125C12.5022 85.4627 12.5475 85.1738 12.3978 84.9675H12.3986ZM8.1529 78.1729C7.76201 77.4321 7.3868 76.681 7.02552 75.9185C6.9167 75.6878 6.64073 75.5886 6.4109 75.6974C6.1802 75.8062 6.08183 76.083 6.19065 76.3128C6.55628 77.0874 6.93846 77.8517 7.33544 78.6037C7.45383 78.8292 7.73415 78.9162 7.95963 78.797C8.18511 78.6786 8.27216 78.3983 8.1529 78.1729ZM4.90221 70.843C4.61406 70.0552 4.33896 69.2596 4.08127 68.458C4.00292 68.2151 3.74175 68.0819 3.49886 68.1594C3.25685 68.2378 3.12278 68.4989 3.20113 68.7417C3.46317 69.5547 3.74088 70.3625 4.03426 71.1607C4.12219 71.4 4.38858 71.5236 4.62798 71.4357C4.86739 71.3478 4.99014 71.0815 4.90221 70.8421V70.843ZM2.61698 63.1527C2.4272 62.3336 2.25396 61.5111 2.09464 60.6833C2.04676 60.4326 1.80475 60.2681 1.55402 60.3168C1.3033 60.3647 1.13877 60.6067 1.18752 60.8574C1.34857 61.6956 1.52443 62.5312 1.71595 63.3607C1.77428 63.6097 2.02152 63.7646 2.2705 63.7063C2.51948 63.6488 2.67444 63.4008 2.61698 63.1527ZM1.28415 55.2396C1.19448 54.4031 1.12135 53.5649 1.0639 52.7258C1.04736 52.4707 0.826234 52.2784 0.571158 52.2958C0.316954 52.3123 0.124559 52.5334 0.141971 52.7876C0.199428 53.6389 0.274296 54.4884 0.364835 55.3371C0.391822 55.5904 0.619039 55.774 0.873244 55.7471C1.12658 55.7201 1.31027 55.492 1.28328 55.2387L1.28415 55.2396ZM0.923737 47.2247C0.938536 46.3829 0.969876 45.543 1.01863 44.7039C1.03343 44.4497 0.838421 44.2304 0.584217 44.2156C0.329142 44.2008 0.11063 44.3957 0.0958307 44.6508C0.0462086 45.5012 0.0148683 46.3533 6.8765e-05 47.2081C-0.00428405 47.4623 0.198557 47.6729 0.453632 47.6773C0.708707 47.6816 0.919384 47.4788 0.922866 47.2238L0.923737 47.2247ZM1.58536 39.2332C1.71073 38.4011 1.85437 37.5724 2.01629 36.749C2.06505 36.4992 1.90138 36.2563 1.6524 36.2067C1.40168 36.158 1.15879 36.3216 1.11004 36.5714C0.945501 37.4079 0.799246 38.2496 0.672144 39.0948C0.633839 39.3472 0.807952 39.5831 1.06042 39.6206C1.31288 39.6589 1.5488 39.4848 1.58624 39.2323L1.58536 39.2332ZM3.34303 31.4176C3.58766 30.6125 3.85231 29.816 4.13612 29.0274C4.2223 28.788 4.09694 28.5225 3.85666 28.4372C3.61726 28.3502 3.35174 28.4764 3.26642 28.7158C2.97827 29.5192 2.70926 30.3304 2.45941 31.1495C2.38454 31.3932 2.52209 31.6509 2.76585 31.7257C3.00961 31.7997 3.26903 31.6622 3.34216 31.4176H3.34303ZM6.28206 23.9763C6.65466 23.2242 7.04728 22.4826 7.4608 21.7541C7.58616 21.5321 7.50781 21.2501 7.28581 21.1247C7.06382 20.9994 6.78176 21.0769 6.6564 21.2988C6.23417 22.043 5.83371 22.7986 5.45415 23.5663C5.34011 23.7944 5.43413 24.072 5.66308 24.1852C5.89117 24.2983 6.16888 24.2043 6.28206 23.9763ZM115.066 22.0848C115.923 22.0491 116.776 21.9952 117.622 21.9212C117.876 21.8994 118.065 21.6757 118.042 21.4216C118.021 21.1674 117.797 20.9785 117.543 21.0011C116.71 21.0734 115.871 21.1265 115.027 21.1622C114.772 21.1735 114.574 21.3885 114.584 21.6435C114.596 21.8986 114.811 22.0961 115.066 22.0848ZM106.931 21.9194C107.784 21.9856 108.635 22.0378 109.483 22.0744C109.738 22.0857 109.953 21.8881 109.964 21.6331C109.976 21.378 109.778 21.163 109.523 21.1517C108.686 21.116 107.845 21.0638 107.003 20.9985C106.749 20.9785 106.526 21.1683 106.506 21.4224C106.487 21.6766 106.676 21.8994 106.931 21.9194ZM98.8691 20.8897C99.7092 21.0368 100.55 21.1717 101.39 21.2945C101.644 21.3302 101.879 21.1561 101.914 20.9037C101.951 20.6512 101.777 20.4171 101.524 20.3797C100.691 20.2587 99.8589 20.1246 99.0275 19.9793C98.7759 19.9357 98.5365 20.1037 98.493 20.3553C98.4495 20.6068 98.6175 20.8462 98.8691 20.8897ZM123.164 21.0986C124.004 20.9124 124.834 20.6974 125.655 20.4545C125.899 20.3823 126.039 20.1246 125.967 19.8809C125.894 19.6363 125.637 19.4962 125.393 19.5684C124.592 19.806 123.783 20.0149 122.964 20.1969C122.715 20.2517 122.558 20.4989 122.613 20.7478C122.669 20.9968 122.915 21.1543 123.165 21.0986H123.164ZM90.9313 19.1785C91.7548 19.3882 92.581 19.5893 93.4107 19.7808C93.6596 19.8391 93.9069 19.6842 93.9643 19.4352C94.0227 19.1863 93.8677 18.9382 93.6187 18.8808C92.796 18.691 91.9768 18.4917 91.1594 18.2828C90.913 18.2201 90.6605 18.369 90.5979 18.6162C90.5352 18.8625 90.6841 19.1149 90.9313 19.1776V19.1785ZM130.896 18.456C131.267 18.2819 131.635 18.1009 132.004 17.9137C132.398 17.7126 132.792 17.5081 133.184 17.3009C133.41 17.1817 133.496 16.9014 133.376 16.676C133.257 16.4505 132.978 16.3643 132.752 16.4836C132.364 16.689 131.975 16.891 131.584 17.0894C131.224 17.2722 130.865 17.4489 130.503 17.6186C130.273 17.7274 130.173 18.0034 130.282 18.234C130.39 18.4638 130.666 18.5639 130.896 18.4551V18.456ZM83.1389 16.9084C83.9442 17.1704 84.7555 17.428 85.5712 17.6761C85.815 17.7509 86.0727 17.6134 86.1475 17.3697C86.2215 17.126 86.084 16.8666 85.8402 16.7935C85.0306 16.5454 84.2245 16.2921 83.4262 16.0301C83.1833 15.9518 82.9221 16.0841 82.8429 16.326C82.7637 16.568 82.8969 16.83 83.1389 16.9092V16.9084ZM10.459 17.166C10.9605 16.4967 11.4828 15.8421 12.0278 15.2023C12.1932 15.0082 12.1688 14.7166 11.9747 14.5512C11.7805 14.3867 11.4889 14.4102 11.3235 14.6043C10.7672 15.2589 10.2327 15.9274 9.71991 16.6115C9.56669 16.8161 9.60848 17.106 9.81219 17.2592C10.0168 17.4115 10.3058 17.3697 10.459 17.1669V17.166ZM191.628 15.3825C191.707 15.6332 191.787 15.883 191.866 16.1346C191.944 16.3774 192.203 16.5123 192.447 16.4357C192.69 16.3583 192.825 16.098 192.748 15.8551C192.669 15.6036 192.588 15.352 192.509 15.1014C192.431 14.8585 192.17 14.7245 191.927 14.8019C191.684 14.8794 191.55 15.1388 191.628 15.3825ZM75.5058 14.1578C76.2902 14.4677 77.0841 14.7715 77.8876 15.0709C78.1262 15.1597 78.3926 15.0378 78.4822 14.7993C78.571 14.5599 78.45 14.2936 78.2106 14.2048C77.4132 13.9071 76.6245 13.6051 75.8453 13.2987C75.6076 13.2055 75.3386 13.3222 75.2455 13.5589C75.1523 13.7966 75.2699 14.0647 75.5058 14.1578ZM138.045 14.6035C138.781 14.183 139.516 13.7618 140.251 13.3422C140.472 13.2169 140.55 12.934 140.423 12.712C140.297 12.4909 140.015 12.4135 139.793 12.5405C139.057 12.9601 138.322 13.3814 137.587 13.8018C137.365 13.928 137.288 14.21 137.414 14.432C137.54 14.6539 137.823 14.7305 138.045 14.6035ZM68.039 11.0094C68.8198 11.3524 69.5973 11.6919 70.3703 12.027C70.6045 12.128 70.877 12.0209 70.9771 11.7859C71.079 11.5517 70.971 11.2793 70.7368 11.1792C69.9655 10.8458 69.189 10.5063 68.4098 10.1634C68.1756 10.0607 67.9031 10.1669 67.8004 10.401C67.6977 10.6343 67.8039 10.9076 68.0381 11.0103L68.039 11.0094ZM15.8513 11.281C16.472 10.7257 17.1136 10.1878 17.7761 9.66637C17.9755 9.50969 18.0112 9.2181 17.8536 9.0179C17.6951 8.8177 17.4052 8.78288 17.205 8.94043C16.5268 9.47401 15.8704 10.0241 15.2349 10.5916C15.0451 10.7614 15.0286 11.0538 15.1992 11.2436C15.369 11.4342 15.6615 11.4499 15.8513 11.2802V11.281ZM145.067 10.5943C145.802 10.1756 146.538 9.75864 147.277 9.34866C147.5 9.22419 147.58 8.94304 147.456 8.72021C147.332 8.49651 147.05 8.41643 146.828 8.5409C146.086 8.95262 145.347 9.37043 144.609 9.79084C144.387 9.91706 144.31 10.1991 144.437 10.421C144.563 10.643 144.845 10.7205 145.067 10.5943ZM188.518 8.07261C188.967 8.77679 189.358 9.50447 189.709 10.2496C189.818 10.4794 190.094 10.5786 190.324 10.4707C190.554 10.3618 190.654 10.0859 190.546 9.85526C190.177 9.07535 189.767 8.31372 189.298 7.57646C189.161 7.36147 188.875 7.29792 188.66 7.43545C188.445 7.57211 188.38 7.85761 188.518 8.07261ZM60.6287 7.7932C61.4096 8.12048 62.1879 8.45125 62.9636 8.78549C63.1978 8.88733 63.4694 8.7794 63.5704 8.54438C63.6713 8.31024 63.5634 8.03779 63.3292 7.93769C62.5509 7.60258 61.7692 7.26833 60.9857 6.94192C60.7497 6.84269 60.479 6.95497 60.3815 7.18999C60.2822 7.42588 60.3945 7.69658 60.6296 7.79407L60.6287 7.7932ZM152.163 6.78611C152.895 6.43272 153.661 6.07845 154.456 5.7268C154.69 5.62321 154.796 5.35077 154.692 5.11662C154.59 4.88335 154.316 4.77715 154.083 4.88073C153.278 5.23674 152.503 5.59623 151.762 5.95398C151.532 6.06452 151.435 6.34132 151.547 6.57024C151.657 6.80004 151.934 6.89666 152.163 6.78524V6.78611ZM22.3048 6.58504C23.0212 6.16549 23.756 5.76335 24.5108 5.38036C24.738 5.2646 24.8285 4.98693 24.7128 4.75975C24.5978 4.53256 24.3193 4.44204 24.092 4.5578C23.3216 4.94863 22.5686 5.35947 21.8382 5.7886C21.617 5.91742 21.543 6.20031 21.6727 6.42053C21.8016 6.64075 22.0845 6.71474 22.3048 6.58591V6.58504ZM53.1062 4.92426C53.9036 5.19148 54.6984 5.47263 55.4915 5.76422C55.7309 5.85214 55.9964 5.72941 56.0835 5.49004C56.1723 5.25067 56.0496 4.98432 55.8102 4.8964C55.0092 4.60133 54.2057 4.31757 53.3996 4.04773C53.1584 3.96765 52.8955 4.09735 52.8145 4.33846C52.7336 4.58044 52.8642 4.84331 53.1053 4.92339L53.1062 4.92426ZM182.827 2.81607C183.552 3.18861 184.249 3.62209 184.911 4.12085C185.115 4.27491 185.405 4.234 185.558 4.03032C185.711 3.82664 185.671 3.53679 185.468 3.38359C184.762 2.85263 184.021 2.3913 183.249 1.99351C183.022 1.87687 182.744 1.96653 182.628 2.19371C182.51 2.42002 182.6 2.69943 182.827 2.8152V2.81607ZM159.575 3.69259C160.36 3.41667 161.161 3.15206 161.971 2.90311C162.215 2.82826 162.351 2.56974 162.277 2.32602C162.202 2.0823 161.943 1.94564 161.7 2.02049C160.878 2.27292 160.066 2.54101 159.269 2.82129C159.028 2.90659 158.901 3.16947 158.986 3.41057C159.071 3.65081 159.334 3.77703 159.575 3.69259ZM45.3608 2.85089C46.1826 3.00669 47.0018 3.186 47.821 3.38533C48.07 3.44539 48.319 3.29307 48.379 3.04499C48.4391 2.79692 48.2876 2.54711 48.0386 2.48705C47.2046 2.28511 46.3698 2.10232 45.5332 1.9439C45.2824 1.89602 45.0404 2.06053 44.9925 2.31122C44.9446 2.5619 45.1101 2.80388 45.3608 2.85089ZM29.5705 3.34529C30.3793 3.10505 31.188 2.90398 31.9968 2.7386C32.2466 2.68725 32.4077 2.44265 32.3563 2.19371C32.3058 1.94303 32.0612 1.78287 31.8113 1.83335C30.9765 2.00396 30.1425 2.21199 29.3076 2.46006C29.0638 2.53318 28.9237 2.78996 28.9959 3.03455C29.0691 3.27827 29.3267 3.41841 29.5705 3.34616V3.34529ZM37.4178 2.13974C38.2544 2.12146 39.0892 2.13539 39.9241 2.17978C40.1792 2.19284 40.396 1.99699 40.409 1.74196C40.4229 1.48779 40.2271 1.26931 39.972 1.25713C39.1145 1.21186 38.2561 1.19794 37.3969 1.21622C37.1418 1.22144 36.9398 1.43295 36.945 1.68799C36.9503 1.94303 37.1618 2.14497 37.4169 2.13974H37.4178ZM167.298 1.56439C168.124 1.4051 168.952 1.27018 169.778 1.16399C170.031 1.13178 170.21 0.899378 170.178 0.646082C170.145 0.393657 169.913 0.214348 169.661 0.246554C168.816 0.355358 167.969 0.492886 167.124 0.655657C166.873 0.703531 166.709 0.945511 166.757 1.1962C166.805 1.44688 167.048 1.61139 167.299 1.56265L167.298 1.56439ZM175.227 0.922009C176.067 0.96466 176.893 1.04909 177.704 1.18053C177.955 1.22144 178.193 1.04996 178.233 0.797537C178.274 0.545982 178.103 0.308354 177.852 0.268314C177.009 0.131657 176.148 0.0428725 175.274 -0.00151956C175.02 -0.014576 174.803 0.181271 174.79 0.436308C174.776 0.691345 174.973 0.908082 175.227 0.921139V0.922009Z" fill="#157FA1"/>
<path fill-rule="evenodd" clip-rule="evenodd" d="M269.05 165.767C269.876 165.519 270.686 165.248 271.487 164.956C271.726 164.868 271.849 164.603 271.762 164.364C271.674 164.124 271.409 164.001 271.168 164.089C270.385 164.375 269.591 164.641 268.783 164.882C268.539 164.956 268.4 165.214 268.473 165.458C268.547 165.702 268.805 165.84 269.049 165.768L269.05 165.767ZM276.621 162.733C277.378 162.356 278.133 161.96 278.888 161.544C279.111 161.422 279.192 161.141 279.07 160.917C278.947 160.693 278.666 160.612 278.442 160.735C277.698 161.144 276.955 161.535 276.208 161.906C275.98 162.021 275.888 162.298 276.001 162.526C276.115 162.754 276.392 162.847 276.62 162.733H276.621ZM283.633 158.568C284.323 158.06 284.997 157.526 285.648 156.966C285.843 156.8 285.864 156.507 285.698 156.314C285.532 156.121 285.239 156.099 285.047 156.265C284.413 156.809 283.757 157.33 283.085 157.824C282.879 157.976 282.835 158.265 282.985 158.47C283.137 158.675 283.426 158.72 283.632 158.568L283.633 158.568ZM289.567 152.932C289.743 152.713 289.914 152.491 290.082 152.267C290.434 151.796 290.767 151.319 291.079 150.835C291.217 150.621 291.156 150.336 290.942 150.197C290.728 150.058 290.443 150.119 290.303 150.333C290.002 150.8 289.682 151.26 289.342 151.713C289.179 151.93 289.014 152.145 288.844 152.356C288.685 152.555 288.718 152.847 288.917 153.005C289.116 153.165 289.408 153.132 289.566 152.932H289.567ZM293.585 145.785C293.881 144.97 294.13 144.144 294.339 143.311C294.401 143.063 294.25 142.813 294.004 142.751C293.756 142.689 293.505 142.84 293.443 143.086C293.242 143.89 293.001 144.686 292.717 145.471C292.63 145.711 292.754 145.976 292.994 146.062C293.234 146.149 293.499 146.025 293.585 145.785ZM295.128 137.737C295.161 136.88 295.158 136.018 295.118 135.157C295.107 134.903 294.891 134.705 294.636 134.717C294.381 134.729 294.184 134.945 294.196 135.2C294.234 136.035 294.237 136.868 294.204 137.701C294.194 137.956 294.393 138.171 294.648 138.181C294.903 138.192 295.118 137.992 295.129 137.737H295.128ZM294.386 129.591C294.205 128.754 293.995 127.922 293.756 127.097C293.685 126.852 293.429 126.71 293.184 126.781C292.939 126.852 292.798 127.108 292.869 127.353C293.102 128.159 293.307 128.97 293.483 129.786C293.537 130.035 293.782 130.193 294.032 130.14C294.282 130.086 294.44 129.841 294.387 129.591H294.386ZM291.822 121.836C291.473 121.054 291.098 120.282 290.702 119.524C290.584 119.299 290.304 119.211 290.078 119.329C289.852 119.448 289.764 119.727 289.882 119.953C290.27 120.694 290.636 121.449 290.978 122.215C291.082 122.446 291.356 122.551 291.589 122.448C291.822 122.344 291.926 122.07 291.822 121.837V121.836ZM287.791 114.74C287.494 114.317 287.191 113.902 286.881 113.494C286.674 113.221 286.464 112.951 286.252 112.683C286.092 112.483 285.802 112.451 285.602 112.609C285.403 112.768 285.371 113.059 285.528 113.258C285.737 113.519 285.943 113.784 286.145 114.051C286.448 114.451 286.744 114.858 287.034 115.27C287.181 115.479 287.469 115.529 287.678 115.384C287.886 115.237 287.936 114.948 287.79 114.74H287.791ZM282.598 108.472C282.026 107.847 281.452 107.224 280.885 106.597C280.714 106.409 280.421 106.394 280.233 106.566C280.043 106.737 280.029 107.029 280.2 107.218C280.769 107.845 281.344 108.468 281.915 109.096C282.087 109.284 282.38 109.297 282.569 109.125C282.756 108.952 282.77 108.66 282.599 108.472L282.598 108.472ZM277.335 102.395C276.83 101.73 276.349 101.048 275.896 100.343C275.759 100.128 275.472 100.067 275.257 100.204C275.043 100.342 274.981 100.628 275.119 100.843C275.585 101.567 276.079 102.269 276.596 102.953C276.75 103.157 277.041 103.197 277.244 103.043C277.448 102.889 277.487 102.599 277.334 102.396L277.335 102.395ZM273.476 95.4847C273.2 94.717 272.936 93.9188 272.689 93.0945C272.616 92.8507 272.358 92.7123 272.114 92.7846C271.87 92.8586 271.732 93.1162 271.804 93.3599C272.057 94.1999 272.325 95.0138 272.607 95.7963C272.694 96.0365 272.958 96.161 273.198 96.0748C273.438 95.9887 273.562 95.724 273.477 95.4847H273.476ZM271.396 87.757C271.244 86.9379 271.111 86.1084 270.998 85.271C270.965 85.0177 270.731 84.8402 270.478 84.875C270.226 84.9081 270.048 85.1413 270.082 85.3938C270.197 86.2477 270.333 87.0928 270.488 87.9267C270.534 88.1774 270.775 88.3428 271.026 88.2966C271.277 88.2496 271.443 88.0085 271.396 87.7579V87.757ZM270.593 79.8021C270.583 78.9621 270.602 78.1248 270.646 77.2918C270.66 77.0376 270.465 76.82 270.21 76.8061C269.956 76.7921 269.738 76.988 269.724 77.2422C269.678 78.0952 269.661 78.9534 269.669 79.8125C269.672 80.0676 269.882 80.2721 270.137 80.2687C270.392 80.266 270.596 80.0571 270.593 79.8021ZM271.389 71.8846C271.578 71.0682 271.803 70.2665 272.067 69.484C272.148 69.2429 272.019 68.98 271.777 68.8982C271.536 68.8172 271.273 68.9469 271.192 69.188C270.918 69.9993 270.684 70.8297 270.488 71.6766C270.431 71.9256 270.587 72.1736 270.834 72.2311C271.083 72.2885 271.331 72.1327 271.389 71.8846ZM274.428 64.62C274.885 63.935 275.389 63.2822 275.943 62.6633C276.112 62.4727 276.096 62.1811 275.906 62.0113C275.716 61.8416 275.424 61.8581 275.254 62.0479C274.672 62.6981 274.141 63.3866 273.661 64.1065C273.518 64.318 273.575 64.6052 273.787 64.748C273.999 64.889 274.287 64.8324 274.429 64.62H274.428Z" fill="#0096C5"/>
<path fill-rule="evenodd" clip-rule="evenodd" d="M180.659 180.437L192.184 173.785L260.718 213.347L249.194 220L180.659 180.437Z" fill="#157FA1"/>
<path fill-rule="evenodd" clip-rule="evenodd" d="M258.373 65.7881C258.373 61.3289 255.994 57.2092 252.132 54.98C239.66 47.7806 211.683 31.6306 197.975 23.7175C196.351 22.7801 194.349 22.7792 192.725 23.7175C191.102 24.655 186.928 27.2541 186.928 29.129C186.928 57.6392 190.101 143.968 190.101 168.141C190.101 172.022 192.172 175.609 195.534 177.549C207.597 184.512 235.434 204.322 249.402 212.385C251.003 213.309 253.664 211.166 255.263 210.242C256.863 209.32 258.374 206.718 258.374 204.871V65.7881H258.373Z" fill="#157FA1"/>
<path fill-rule="evenodd" clip-rule="evenodd" d="M254.682 68.9069C254.682 64.1831 252.161 59.8187 248.071 57.4572C235.567 50.2388 208.481 34.6032 194.75 26.677C193.029 25.6839 190.91 25.683 189.19 26.677C187.469 27.6693 186.409 29.5051 186.409 31.4914V170.46C186.409 174.572 188.603 178.371 192.164 180.427C204.28 187.421 232.456 203.686 246.466 211.774C248.16 212.752 250.249 212.753 251.943 211.774C253.637 210.796 254.681 208.988 254.681 207.032V68.9069H254.682Z" fill="#47B3D5"/>
<path fill-rule="evenodd" clip-rule="evenodd" d="M251.531 71.4642C251.531 66.7413 249.011 62.3769 244.919 60.0146L198.368 33.1426C196.648 32.1494 194.528 32.1486 192.808 33.1426C191.088 34.1349 190.028 35.9706 190.028 37.957V167.667C190.028 171.779 192.221 175.578 195.783 177.633C206.748 183.964 230.67 197.773 243.317 205.073C245.011 206.051 247.098 206.051 248.792 205.073C250.486 204.095 251.531 202.287 251.531 200.331V71.4642Z" fill="white"/>
<path fill-rule="evenodd" clip-rule="evenodd" d="M230.913 50.1917C230.913 49.1133 230.337 48.1184 229.403 47.5787C226.829 46.0929 221.492 43.0124 217.624 40.7789C216.69 40.2401 215.54 40.2392 214.606 40.7789C213.673 41.3186 213.097 42.3135 213.097 43.3919V44.2545C213.097 45.3313 213.673 46.3279 214.606 46.8667C217.181 48.3534 222.518 51.4339 226.386 53.6665C227.32 54.2053 228.47 54.2053 229.403 53.6665C230.337 53.1277 230.913 52.1319 230.913 51.0535V50.1909V50.1917Z" fill="#47B3D5"/>
<path fill-rule="evenodd" clip-rule="evenodd" d="M197.661 53.4237L243.463 79.863V83.1576L197.661 56.7182V53.4237Z" fill="#47B3D5"/>
<path fill-rule="evenodd" clip-rule="evenodd" d="M197.661 63.2979L243.463 89.7372V93.0327L197.661 66.5924V63.2979Z" fill="#47B3D5"/>
<path fill-rule="evenodd" clip-rule="evenodd" d="M196.356 93.6324L242.158 120.072V123.366L196.356 96.927V93.6324Z" fill="#47B3D5"/>
<path fill-rule="evenodd" clip-rule="evenodd" d="M196.356 139.54L242.158 165.979V169.274L196.356 142.834V139.54Z" fill="#47B3D5"/>
<path fill-rule="evenodd" clip-rule="evenodd" d="M196.356 150.803L242.158 177.243V180.537L196.356 154.098V150.803Z" fill="#E6F5F9"/>
<path fill-rule="evenodd" clip-rule="evenodd" d="M196.356 162.787L242.158 189.227V192.521L196.356 166.082V162.787Z" fill="#47B3D5"/>
<path fill-rule="evenodd" clip-rule="evenodd" d="M198.579 74.22L206.936 79.044V82.3386L198.579 77.5146V74.22Z" fill="#47B3D5"/>
<path fill-rule="evenodd" clip-rule="evenodd" d="M210.9 81.3332L219.257 86.1571V89.4517L210.9 84.6278V81.3332Z" fill="#E6F5F9"/>
<path fill-rule="evenodd" clip-rule="evenodd" d="M222.623 88.0999L230.98 92.9239V96.2185L222.623 91.3945V88.0999Z" fill="#E6F5F9"/>
<path fill-rule="evenodd" clip-rule="evenodd" d="M221.317 118.434L229.674 123.258V126.553L221.317 121.729V118.434Z" fill="#47B3D5"/>
<path fill-rule="evenodd" clip-rule="evenodd" d="M209.562 111.649L217.918 116.472V119.767L209.562 114.943V111.649Z" fill="#47B3D5"/>
<path fill-rule="evenodd" clip-rule="evenodd" d="M282.755 121.562L278.298 114.757L264.596 106.857V134.377L282.761 144.863L282.755 121.563V121.562Z" fill="#157FA1"/>
<path fill-rule="evenodd" clip-rule="evenodd" d="M278.276 114.752L282.76 121.531L277.45 121.15L278.276 114.751V114.752Z" fill="#D9ECEF"/>
<path fill-rule="evenodd" clip-rule="evenodd" d="M270.19 133.075L270.098 118.98L269.63 118.714L269.722 132.81L270.19 133.075Z" fill="#D9ECEF"/>
<path fill-rule="evenodd" clip-rule="evenodd" d="M272.849 134.54L272.768 122.119L272.296 121.851L272.377 134.272L272.849 134.54Z" fill="#D9ECEF"/>
<path fill-rule="evenodd" clip-rule="evenodd" d="M275.379 135.774L275.313 125.569L274.895 125.331L274.962 135.537L275.379 135.774Z" fill="#D9ECEF"/>
<path fill-rule="evenodd" clip-rule="evenodd" d="M277.826 137.108L277.767 128.325L277.308 128.063L277.365 136.847L277.826 137.108Z" fill="#D9ECEF"/>
<path fill-rule="evenodd" clip-rule="evenodd" d="M180.139 58.8638C180.139 53.0877 176.084 46.065 171.081 43.1778L157.655 35.4266C152.652 32.5385 148.596 34.8791 148.596 40.6553V48.154C148.596 53.9276 152.652 60.9538 157.655 63.841L171.081 71.5922C176.085 74.4803 180.139 72.1362 180.139 66.3626V58.8638Z" fill="#157FA1"/>
<path fill-rule="evenodd" clip-rule="evenodd" d="M180.178 68.0521L148.555 49.7974C148.555 52.1528 149.364 54.8773 150.807 57.3737C152.248 59.8709 154.204 61.9347 156.243 63.1124L172.489 72.4905C174.529 73.6682 176.484 73.8623 177.926 73.0284C179.368 72.198 180.178 70.4075 180.178 68.0521Z" fill="#D4F0F8"/>
<path fill-rule="evenodd" clip-rule="evenodd" d="M152.554 40.8737L153.99 41.7033V50.2631L152.554 49.4336V40.8737Z" fill="white"/>
<path fill-rule="evenodd" clip-rule="evenodd" d="M155.338 40.4298L156.775 41.2594V51.8656L155.338 51.0361V40.4298Z" fill="white"/>
<path fill-rule="evenodd" clip-rule="evenodd" d="M158.117 39.7648L159.554 40.5943V53.3436L158.117 52.514V39.7648Z" fill="white"/>
<path fill-rule="evenodd" clip-rule="evenodd" d="M161.05 40.1173L162.487 40.9469V54.919L161.05 54.0895V40.1173Z" fill="white"/>
<path fill-rule="evenodd" clip-rule="evenodd" d="M168.106 54.9695C168.881 56.31 169.93 57.4172 171.023 58.0491C173.3 59.3643 175.15 58.2963 175.15 55.6667C175.15 54.4037 174.715 52.9405 173.942 51.601L172.483 52.4435C172.87 53.1129 173.087 53.8441 173.087 54.4751C173.087 55.7903 172.163 56.3239 171.024 55.6667C170.477 55.3508 169.952 54.798 169.566 54.1278L168.107 54.9704L168.106 54.9695Z" fill="white"/>
<path fill-rule="evenodd" clip-rule="evenodd" d="M174.037 51.7968C173.262 50.4572 172.214 49.3491 171.12 48.7181C168.842 47.4029 166.992 48.4709 166.992 51.1005C166.992 52.3635 167.428 53.8267 168.201 55.1662L169.66 54.3237C169.272 53.6543 169.056 52.9231 169.056 52.2912C169.056 50.976 169.98 50.4424 171.119 51.1005C171.666 51.4164 172.191 51.9691 172.577 52.6394L174.036 51.7968H174.037Z" fill="white"/>
<path fill-rule="evenodd" clip-rule="evenodd" d="M172.525 140.727L178.051 152.172L175.835 140.941C176.409 140.468 176.755 139.636 176.755 138.514V125.84C176.755 123.269 174.952 120.143 172.721 118.855L157.882 110.289C157.784 110.225 157.687 110.164 157.585 110.105L141.244 100.672C139.017 99.3868 137.211 100.428 137.211 103V115.673C137.211 118.243 139.017 121.37 141.244 122.657L156.082 131.223C156.18 131.287 156.282 131.351 156.383 131.409L172.525 140.727Z" fill="#157FA1"/>
<path fill-rule="evenodd" clip-rule="evenodd" d="M148.185 114.873L149.129 115.418V123.188L148.185 122.643V114.873Z" fill="white"/>
<path fill-rule="evenodd" clip-rule="evenodd" d="M150.678 113.481L151.623 114.026V124.718L150.678 124.173V113.481Z" fill="white"/>
<path fill-rule="evenodd" clip-rule="evenodd" d="M153.115 114.802L154.058 115.347V126.033L153.115 125.488V114.802Z" fill="white"/>
<path fill-rule="evenodd" clip-rule="evenodd" d="M155.474 114.222L156.418 114.767V127.446L155.474 126.901V114.222Z" fill="white"/>
<path fill-rule="evenodd" clip-rule="evenodd" d="M157.749 117.88L158.693 118.426V128.732L157.749 128.187V117.88Z" fill="white"/>
<path fill-rule="evenodd" clip-rule="evenodd" d="M160.119 117.669L161.063 118.214V130.262L160.119 129.717V117.669Z" fill="white"/>
<path fill-rule="evenodd" clip-rule="evenodd" d="M162.564 115.971L163.508 116.516V131.427L162.564 130.882V115.971Z" fill="white"/>
<path fill-rule="evenodd" clip-rule="evenodd" d="M256.378 38.8465L250.937 43.8341L253.12 35.2952C252.554 34.1758 252.213 32.9641 252.213 31.8578V19.3784C252.213 16.8464 253.989 15.8192 256.186 17.0875L270.797 25.522C270.892 25.569 270.989 25.6203 271.089 25.6786L287.18 34.967C289.374 36.2335 291.151 39.3113 291.151 41.8443V54.3228C291.151 56.8532 289.374 57.8811 287.18 56.6147L272.569 48.1802C272.473 48.1332 272.373 48.0792 272.273 48.0218L256.378 38.8465Z" fill="#157FA1"/>
<path fill-rule="evenodd" clip-rule="evenodd" d="M257.365 23.0995L286.143 39.7126V40.5639L257.365 23.9508V23.0995Z" fill="white"/>
<path fill-rule="evenodd" clip-rule="evenodd" d="M257.363 27.2855L278.671 39.5864V40.4368L257.363 28.1367V27.2855Z" fill="white"/>
<path fill-rule="evenodd" clip-rule="evenodd" d="M257.363 31.6689L272.734 40.5421V41.3925L257.363 32.5194V31.6689Z" fill="white"/>
<path d="M230.911 29.1865V28.0131C230.402 27.6458 229.99 27.2759 229.672 26.9042C229.354 26.5316 229.079 26.0677 228.848 25.5132C228.616 24.9579 228.482 24.366 228.445 23.7358L229.466 24.104C229.545 24.7795 229.684 25.3226 229.884 25.7326C230.169 26.3149 230.512 26.7449 230.911 27.0226V23.2893C230.493 22.9568 230.066 22.5233 229.629 21.9889C229.306 21.5937 229.057 21.1611 228.882 20.6902C228.707 20.2201 228.62 19.7501 228.62 19.2809C228.62 18.4471 228.875 17.9187 229.387 17.6976C229.73 17.5479 230.238 17.628 230.911 17.9387V17.3782L231.509 17.7237V18.2843C232.099 18.6908 232.568 19.1608 232.914 19.6953C233.358 20.3768 233.625 21.1158 233.715 21.9105L232.665 21.4866C232.605 20.9913 232.48 20.5666 232.29 20.2114C232.1 19.8563 231.839 19.5438 231.508 19.2748V22.6565C232.02 23.0995 232.359 23.4103 232.524 23.5878C232.84 23.9308 233.098 24.2755 233.297 24.621C233.496 24.9666 233.65 25.3287 233.757 25.7073C233.864 26.086 233.918 26.4603 233.918 26.8302C233.918 27.6423 233.694 28.1907 233.247 28.4753C232.799 28.7599 232.219 28.7164 231.508 28.3448V29.5311L230.91 29.1856L230.911 29.1865ZM230.911 18.9171C230.516 18.7587 230.204 18.7613 229.977 18.9249C229.749 19.0886 229.636 19.3732 229.636 19.7771C229.636 20.181 229.732 20.5666 229.926 20.9478C230.12 21.3291 230.449 21.7338 230.912 22.1612V18.9162L230.911 18.9171ZM231.509 27.3681C231.904 27.5396 232.231 27.5309 232.488 27.3403C232.746 27.1505 232.875 26.805 232.875 26.3062C232.875 25.8806 232.783 25.4854 232.602 25.1215C232.419 24.7577 232.055 24.3164 231.51 23.7976V27.3681H231.509Z" fill="#157FA1"/>
<path d="M286.436 99.3067V98.1334C285.927 97.7661 285.514 97.3961 285.197 97.0245C284.879 96.6519 284.604 96.188 284.372 95.6335C284.141 95.0782 284.007 94.4863 283.969 93.8561L284.99 94.2243C285.07 94.8997 285.209 95.4429 285.408 95.8529C285.694 96.4352 286.037 96.8652 286.436 97.1429V93.4096C286.018 93.0771 285.591 92.6436 285.154 92.1091C284.83 91.714 284.581 91.2814 284.406 90.8105C284.231 90.3404 284.144 89.8704 284.144 89.4012C284.144 88.5673 284.4 88.039 284.912 87.8179C285.254 87.6682 285.763 87.7483 286.436 88.059V87.4985L287.034 87.844V88.4046C287.624 88.8111 288.092 89.2811 288.439 89.8155C288.883 90.4971 289.15 91.2361 289.24 92.0308L288.19 91.6069C288.13 91.1116 288.004 90.6869 287.815 90.3317C287.625 89.9766 287.364 89.6641 287.033 89.3951V92.7768C287.545 93.2198 287.883 93.5306 288.049 93.7081C288.365 94.0511 288.622 94.3958 288.822 94.7413C289.021 95.0869 289.174 95.449 289.281 95.8276C289.388 96.2063 289.442 96.5805 289.442 96.9505C289.442 97.7626 289.219 98.311 288.771 98.5956C288.324 98.8802 287.744 98.8367 287.033 98.465V99.6514L286.435 99.3059L286.436 99.3067ZM286.436 89.0374C286.04 88.879 285.729 88.8816 285.501 89.0452C285.273 89.2089 285.16 89.4935 285.16 89.8974C285.16 90.3013 285.257 90.6869 285.451 91.0681C285.645 91.4494 285.973 91.8541 286.436 92.2815V89.0365L286.436 89.0374ZM287.034 97.4884C287.429 97.6599 287.755 97.6512 288.013 97.4606C288.271 97.2708 288.4 96.9252 288.4 96.4265C288.4 96.0008 288.308 95.6057 288.126 95.2418C287.943 94.878 287.579 94.4367 287.035 93.9179V97.4884H287.034Z" fill="#157FA1"/>
<path d="M173.923 93.3852V92.7506C173.648 92.5522 173.425 92.352 173.253 92.1501C173.08 91.9481 172.932 91.6974 172.807 91.3971C172.682 91.0968 172.609 90.7765 172.588 90.4353L173.141 90.6346C173.184 91.0002 173.26 91.2935 173.368 91.5164C173.522 91.8315 173.708 92.0639 173.924 92.2145V90.1942C173.697 90.014 173.467 89.7799 173.231 89.4909C173.056 89.2767 172.921 89.0426 172.826 88.7884C172.731 88.5343 172.684 88.2801 172.684 88.0259C172.684 87.5742 172.823 87.2887 173.099 87.1694C173.285 87.0885 173.56 87.132 173.924 87.3V86.9971L174.248 87.1842V87.4871C174.567 87.7065 174.821 87.9615 175.009 88.2505C175.249 88.6196 175.393 89.0191 175.442 89.4491L174.874 89.2202C174.841 88.9521 174.773 88.7223 174.671 88.5299C174.568 88.3376 174.427 88.1687 174.248 88.0233V89.853C174.525 90.0923 174.708 90.2612 174.797 90.357C174.968 90.5424 175.108 90.7286 175.216 90.9158C175.324 91.1029 175.406 91.2988 175.465 91.5033C175.523 91.7087 175.552 91.9107 175.552 92.1109C175.552 92.5504 175.431 92.8473 175.189 93.0013C174.947 93.1554 174.633 93.1319 174.249 92.9308V93.5723L173.925 93.3852H173.923ZM173.923 87.8284C173.709 87.7431 173.541 87.7439 173.417 87.8327C173.294 87.9215 173.233 88.0756 173.233 88.294C173.233 88.5125 173.285 88.7214 173.39 88.9277C173.496 89.134 173.673 89.3533 173.923 89.5849V87.8292V87.8284ZM174.247 92.4016C174.461 92.4947 174.637 92.4895 174.777 92.3868C174.916 92.2841 174.986 92.0969 174.986 91.8271C174.986 91.5964 174.936 91.3832 174.838 91.1865C174.739 90.9898 174.542 90.7504 174.247 90.4701V92.4025V92.4016Z" fill="#157FA1"/>
<path d="M267.014 59.8892V59.2547C266.739 59.0562 266.516 58.856 266.344 58.6541C266.171 58.4521 266.023 58.2014 265.898 57.9011C265.773 57.6008 265.7 57.2805 265.679 56.9393L266.232 57.1386C266.275 57.5042 266.351 57.7976 266.459 58.0204C266.614 58.3355 266.799 58.5679 267.015 58.7185V56.6982C266.789 56.518 266.558 56.2839 266.322 55.9949C266.147 55.7808 266.012 55.5466 265.917 55.2925C265.822 55.0383 265.775 54.7841 265.775 54.53C265.775 54.0782 265.914 53.7927 266.19 53.6735C266.376 53.5925 266.651 53.636 267.015 53.804V53.5011L267.339 53.6883V53.9912C267.658 54.2105 267.912 54.4655 268.1 54.7545C268.34 55.1236 268.484 55.5231 268.533 55.9531L267.965 55.7242C267.932 55.4561 267.865 55.2263 267.762 55.0339C267.659 54.8416 267.518 54.6727 267.339 54.5274V56.357C267.616 56.5964 267.799 56.7652 267.888 56.861C268.059 57.0464 268.199 57.2327 268.307 57.4198C268.415 57.6069 268.497 57.8028 268.556 58.0073C268.614 58.2128 268.643 58.4147 268.643 58.6149C268.643 59.0545 268.522 59.3513 268.28 59.5054C268.038 59.6594 267.724 59.6359 267.34 59.4348V60.0764L267.016 59.8892H267.014ZM267.014 54.3324C266.8 54.2471 266.632 54.2479 266.508 54.3367C266.385 54.4255 266.324 54.5796 266.324 54.7981C266.324 55.0165 266.376 55.2254 266.481 55.4317C266.587 55.638 266.764 55.8574 267.014 56.0889V54.3332V54.3324ZM267.338 58.9056C267.552 58.9988 267.728 58.9935 267.868 58.8908C268.007 58.7881 268.077 58.601 268.077 58.3311C268.077 58.1005 268.027 57.8872 267.929 57.6905C267.83 57.4938 267.633 57.2544 267.338 56.9741V58.9065V58.9056Z" fill="#157FA1"/>
<path d="M267.014 153.513V152.878C266.739 152.68 266.516 152.48 266.344 152.278C266.171 152.076 266.023 151.825 265.898 151.525C265.773 151.225 265.7 150.904 265.679 150.563L266.232 150.762C266.275 151.128 266.351 151.421 266.459 151.644C266.614 151.959 266.799 152.192 267.015 152.342V150.322C266.789 150.142 266.558 149.908 266.322 149.619C266.147 149.404 266.012 149.17 265.917 148.916C265.822 148.662 265.775 148.408 265.775 148.154C265.775 147.702 265.914 147.416 266.19 147.297C266.376 147.216 266.651 147.26 267.015 147.428V147.125L267.339 147.312V147.615C267.658 147.834 267.912 148.089 268.1 148.378C268.34 148.747 268.484 149.147 268.533 149.577L267.965 149.348C267.932 149.08 267.865 148.85 267.762 148.658C267.659 148.465 267.518 148.296 267.339 148.151V149.981C267.616 150.22 267.799 150.389 267.888 150.485C268.059 150.67 268.199 150.856 268.307 151.043C268.415 151.231 268.497 151.426 268.556 151.631C268.614 151.836 268.643 152.038 268.643 152.239C268.643 152.678 268.522 152.975 268.28 153.129C268.038 153.283 267.724 153.26 267.34 153.059V153.7L267.016 153.513H267.014ZM267.014 147.956C266.8 147.871 266.632 147.872 266.508 147.96C266.385 148.049 266.324 148.203 266.324 148.422C266.324 148.64 266.376 148.849 266.481 149.055C266.587 149.262 266.764 149.481 267.014 149.713V147.957V147.956ZM267.338 152.529C267.552 152.622 267.728 152.617 267.868 152.515C268.007 152.412 268.077 152.225 268.077 151.955C268.077 151.724 268.027 151.511 267.929 151.314C267.83 151.117 267.633 150.878 267.338 150.598V152.53V152.529Z" fill="#157FA1"/>
<path d="M267.014 189.738V189.103C266.739 188.905 266.516 188.704 266.344 188.503C266.171 188.301 266.023 188.05 265.898 187.75C265.773 187.449 265.7 187.129 265.679 186.788L266.232 186.987C266.275 187.353 266.351 187.646 266.459 187.869C266.614 188.184 266.799 188.416 267.015 188.567V186.547C266.789 186.366 266.558 186.132 266.322 185.843C266.147 185.629 266.012 185.395 265.917 185.141C265.822 184.887 265.775 184.633 265.775 184.378C265.775 183.927 265.914 183.641 266.19 183.522C266.376 183.441 266.651 183.484 267.015 183.652V183.35L267.339 183.537V183.84C267.658 184.059 267.912 184.314 268.1 184.603C268.34 184.972 268.484 185.372 268.533 185.802L267.965 185.573C267.932 185.305 267.865 185.075 267.762 184.882C267.659 184.69 267.518 184.521 267.339 184.376V186.205C267.616 186.445 267.799 186.614 267.888 186.709C268.059 186.895 268.199 187.081 268.307 187.268C268.415 187.455 268.497 187.651 268.556 187.856C268.614 188.061 268.643 188.263 268.643 188.463C268.643 188.903 268.522 189.2 268.28 189.354C268.038 189.508 267.724 189.484 267.34 189.283V189.925L267.016 189.738H267.014ZM267.014 184.181C266.8 184.096 266.632 184.096 266.508 184.185C266.385 184.274 266.324 184.427 266.324 184.647C266.324 184.866 266.376 185.074 266.481 185.28C266.587 185.487 266.764 185.706 267.014 185.937V184.182V184.181ZM267.338 188.754C267.552 188.847 267.728 188.842 267.868 188.739C268.007 188.637 268.077 188.449 268.077 188.18C268.077 187.949 268.027 187.736 267.929 187.539C267.83 187.342 267.633 187.103 267.338 186.823V188.755V188.754Z" fill="#157FA1"/>
<path d="M264.051 89.4012V88.7667C263.776 88.5682 263.553 88.368 263.38 88.1661C263.208 87.9641 263.06 87.7135 262.935 87.4132C262.809 87.1129 262.737 86.7925 262.716 86.4513L263.269 86.6507C263.312 87.0162 263.387 87.3096 263.495 87.5324C263.65 87.8475 263.836 88.0799 264.052 88.2305V86.2102C263.825 86.03 263.594 85.7959 263.359 85.5069C263.184 85.2928 263.049 85.0586 262.954 84.8045C262.859 84.5503 262.812 84.2961 262.812 84.042C262.812 83.5902 262.95 83.3047 263.227 83.1855C263.413 83.1045 263.688 83.148 264.052 83.316V83.0131L264.375 83.2003V83.5032C264.695 83.7225 264.948 83.9776 265.136 84.2665C265.377 84.6356 265.521 85.0351 265.57 85.4651L265.001 85.2362C264.969 84.9681 264.901 84.7383 264.798 84.546C264.696 84.3536 264.555 84.1847 264.375 84.0394V85.869C264.652 86.1084 264.836 86.2772 264.925 86.373C265.095 86.5584 265.235 86.7447 265.343 86.9318C265.451 87.1189 265.534 87.3148 265.592 87.5193C265.651 87.7248 265.679 87.9267 265.679 88.1269C265.679 88.5665 265.558 88.8633 265.316 89.0174C265.074 89.1714 264.761 89.1479 264.376 88.9469V89.5884L264.052 89.4012H264.051ZM264.051 83.8444C263.836 83.7591 263.668 83.76 263.545 83.8487C263.421 83.9375 263.36 84.0916 263.36 84.3101C263.36 84.5285 263.413 84.7374 263.518 84.9437C263.623 85.15 263.801 85.3694 264.051 85.6009V83.8453V83.8444ZM264.374 88.4176C264.589 88.5108 264.764 88.5055 264.905 88.4028C265.044 88.3001 265.114 88.113 265.114 87.8431C265.114 87.6125 265.064 87.3992 264.966 87.2025C264.866 87.0058 264.67 86.7664 264.374 86.4861V88.4185V88.4176Z" fill="#157FA1"/>
<path d="M296.373 70.4476V69.813C296.098 69.6145 295.875 69.4143 295.703 69.2124C295.53 69.0105 295.382 68.7598 295.257 68.4595C295.131 68.1592 295.059 67.8389 295.038 67.4977L295.591 67.697C295.634 68.0626 295.71 68.3559 295.817 68.5787C295.972 68.8938 296.158 69.1262 296.374 69.2768V67.2565C296.147 67.0764 295.917 66.8422 295.681 66.5532C295.506 66.3391 295.371 66.105 295.276 65.8508C295.181 65.5966 295.134 65.3425 295.134 65.0883C295.134 64.6365 295.273 64.351 295.549 64.2318C295.735 64.1508 296.01 64.1944 296.374 64.3624V64.0594L296.698 64.2466V64.5495C297.017 64.7689 297.27 65.0239 297.459 65.3129C297.699 65.6819 297.843 66.0815 297.892 66.5115L297.324 66.2825C297.291 66.0144 297.223 65.7846 297.121 65.5923C297.018 65.3999 296.877 65.231 296.698 65.0857V66.9153C296.974 67.1547 297.158 67.3236 297.247 67.4193C297.418 67.6047 297.558 67.791 297.666 67.9781C297.774 68.1653 297.856 68.3611 297.915 68.5657C297.973 68.7711 298.002 68.973 298.002 69.1732C298.002 69.6128 297.881 69.9096 297.639 70.0637C297.397 70.2178 297.083 70.1943 296.699 69.9932V70.6347L296.375 70.4476H296.373ZM296.373 64.8907C296.159 64.8054 295.991 64.8063 295.867 64.8951C295.743 64.9838 295.683 65.1379 295.683 65.3564C295.683 65.5749 295.735 65.7838 295.84 65.9901C295.945 66.1964 296.123 66.4157 296.373 66.6472V64.8916V64.8907ZM296.697 69.464C296.911 69.5571 297.087 69.5519 297.227 69.4492C297.366 69.3465 297.436 69.1593 297.436 68.8895C297.436 68.6588 297.386 68.4456 297.288 68.2488C297.189 68.0521 296.992 67.8127 296.697 67.5325V69.4648V69.464Z" fill="#157FA1"/>
<path d="M176.453 29.841V29.2065C176.178 29.008 175.955 28.8078 175.782 28.6059C175.61 28.404 175.462 28.1533 175.337 27.853C175.211 27.5527 175.139 27.2324 175.118 26.8911L175.671 27.0905C175.714 27.4561 175.789 27.7494 175.897 27.9722C176.052 28.2873 176.238 28.5197 176.454 28.6703V26.65C176.227 26.4699 175.997 26.2357 175.761 25.9467C175.586 25.7326 175.451 25.4985 175.356 25.2443C175.261 24.9901 175.214 24.736 175.214 24.4818C175.214 24.03 175.352 23.7445 175.629 23.6253C175.815 23.5443 176.09 23.5879 176.454 23.7559V23.4529L176.777 23.6401V23.943C177.097 24.1623 177.35 24.4174 177.538 24.7064C177.779 25.0754 177.923 25.475 177.972 25.9049L177.403 25.676C177.371 25.4079 177.303 25.1781 177.201 24.9858C177.098 24.7934 176.957 24.6245 176.777 24.4792V26.3088C177.054 26.5482 177.238 26.7171 177.327 26.8128C177.497 26.9982 177.638 27.1845 177.746 27.3716C177.853 27.5588 177.936 27.7546 177.994 27.9592C178.053 28.1646 178.082 28.3665 178.082 28.5667C178.082 29.0063 177.961 29.3031 177.719 29.4572C177.477 29.6113 177.163 29.5877 176.778 29.3867V30.0282L176.454 29.841H176.453ZM176.453 24.2842C176.239 24.1989 176.071 24.1998 175.947 24.2886C175.823 24.3773 175.762 24.5305 175.762 24.7499C175.762 24.9692 175.815 25.1773 175.92 25.3836C176.025 25.5899 176.203 25.8092 176.453 26.0407V24.2851V24.2842ZM176.777 28.8575C176.991 28.9506 177.167 28.9454 177.307 28.8427C177.446 28.7399 177.516 28.5528 177.516 28.283C177.516 28.0523 177.466 27.8391 177.368 27.6423C177.268 27.4456 177.072 27.2062 176.777 26.926V28.8583V28.8575Z" fill="#157FA1"/>
<path d="M206.185 10.1745V9.53993C205.91 9.34148 205.687 9.14128 205.515 8.93934C205.342 8.7374 205.194 8.48671 205.069 8.18641C204.944 7.88611 204.871 7.56579 204.851 7.22458L205.403 7.42391C205.446 7.78949 205.522 8.08283 205.63 8.30566C205.785 8.62076 205.97 8.85316 206.186 9.00375V6.98347C205.96 6.8033 205.729 6.56915 205.493 6.28017C205.318 6.06604 205.183 5.83189 205.088 5.57773C204.993 5.32356 204.946 5.06939 204.946 4.81523C204.946 4.36347 205.085 4.07797 205.362 3.95872C205.547 3.87777 205.822 3.92129 206.186 4.08929V3.78638L206.51 3.97352V4.27643C206.829 4.49578 207.083 4.75082 207.271 5.0398C207.511 5.40886 207.656 5.80839 207.704 6.23838L207.136 6.00946C207.104 5.74137 207.036 5.51157 206.933 5.31921C206.83 5.12684 206.689 4.95798 206.51 4.81262V6.64227C206.787 6.88163 206.97 7.0505 207.059 7.14625C207.23 7.33165 207.37 7.51792 207.478 7.70506C207.586 7.89221 207.669 8.08805 207.727 8.2926C207.785 8.49803 207.814 8.69997 207.814 8.90017C207.814 9.33973 207.693 9.63655 207.451 9.79062C207.209 9.94469 206.896 9.92118 206.511 9.72011V10.3616L206.187 10.1745H206.185ZM206.185 4.61764C205.971 4.53234 205.803 4.53321 205.679 4.62199C205.556 4.71078 205.495 4.86397 205.495 5.08332C205.495 5.30267 205.547 5.5107 205.652 5.717C205.758 5.92329 205.935 6.14264 206.185 6.37417V4.61851V4.61764ZM206.509 9.19089C206.723 9.28403 206.899 9.2788 207.039 9.17609C207.178 9.07338 207.248 8.88624 207.248 8.61641C207.248 8.38574 207.198 8.17248 207.1 7.97577C207.001 7.77905 206.804 7.53968 206.509 7.2594V9.19176V9.19089Z" fill="#157FA1"/>
<path d="M167.933 168.48V167.845C167.658 167.647 167.435 167.447 167.263 167.245C167.091 167.043 166.943 166.792 166.817 166.492C166.692 166.192 166.62 165.871 166.599 165.53L167.152 165.729C167.194 166.095 167.27 166.388 167.378 166.611C167.533 166.926 167.718 167.159 167.934 167.309V165.289C167.708 165.109 167.477 164.875 167.241 164.586C167.066 164.372 166.931 164.137 166.837 163.883C166.742 163.629 166.695 163.375 166.695 163.121C166.695 162.669 166.833 162.383 167.11 162.264C167.295 162.183 167.57 162.227 167.934 162.395V162.092L168.258 162.279V162.582C168.578 162.801 168.831 163.056 169.019 163.345C169.259 163.714 169.404 164.114 169.453 164.544L168.884 164.315C168.852 164.047 168.784 163.817 168.681 163.625C168.579 163.432 168.438 163.263 168.258 163.118V164.948C168.535 165.187 168.719 165.356 168.808 165.452C168.978 165.637 169.118 165.823 169.226 166.011C169.334 166.198 169.417 166.394 169.475 166.598C169.534 166.804 169.562 167.005 169.562 167.206C169.562 167.645 169.441 167.942 169.199 168.096C168.957 168.25 168.644 168.227 168.259 168.026V168.667L167.935 168.48H167.933ZM167.933 162.923C167.719 162.838 167.551 162.839 167.428 162.928C167.304 163.016 167.243 163.17 167.243 163.389C167.243 163.607 167.295 163.816 167.401 164.023C167.506 164.229 167.684 164.448 167.933 164.68V162.924V162.923ZM168.257 167.496C168.471 167.59 168.647 167.584 168.787 167.482C168.927 167.379 168.996 167.192 168.996 166.922C168.996 166.691 168.947 166.478 168.848 166.281C168.749 166.085 168.552 165.845 168.257 165.565V167.497V167.496Z" fill="#157FA1"/>
<path d="M285.078 171.953V171.318C284.803 171.12 284.58 170.92 284.408 170.718C284.236 170.516 284.088 170.265 283.962 169.965C283.837 169.665 283.765 169.344 283.744 169.003L284.296 169.202C284.339 169.568 284.415 169.861 284.523 170.084C284.678 170.399 284.863 170.632 285.079 170.782V168.762C284.853 168.582 284.622 168.348 284.386 168.059C284.211 167.845 284.076 167.61 283.981 167.356C283.886 167.102 283.839 166.848 283.839 166.594C283.839 166.142 283.978 165.857 284.255 165.737C284.44 165.656 284.715 165.7 285.079 165.868V165.565L285.403 165.752V166.055C285.722 166.274 285.976 166.529 286.164 166.818C286.404 167.187 286.549 167.587 286.597 168.017L286.029 167.788C285.997 167.52 285.929 167.29 285.826 167.098C285.723 166.905 285.582 166.737 285.403 166.591V168.421C285.68 168.66 285.863 168.829 285.952 168.925C286.123 169.11 286.263 169.296 286.371 169.484C286.479 169.671 286.562 169.867 286.62 170.071C286.678 170.277 286.707 170.479 286.707 170.679C286.707 171.118 286.586 171.415 286.344 171.569C286.102 171.723 285.789 171.7 285.404 171.499V172.14L285.08 171.953H285.078ZM285.078 166.396C284.864 166.311 284.696 166.312 284.572 166.401C284.449 166.489 284.388 166.643 284.388 166.862C284.388 167.08 284.44 167.289 284.545 167.496C284.651 167.702 284.828 167.921 285.078 168.153V166.397V166.396ZM285.402 170.969C285.616 171.063 285.792 171.057 285.932 170.955C286.072 170.852 286.141 170.665 286.141 170.395C286.141 170.164 286.092 169.951 285.993 169.754C285.894 169.558 285.697 169.318 285.402 169.038V170.97V170.969Z" fill="#157FA1"/>
<path fill-rule="evenodd" clip-rule="evenodd" d="M128.772 61.1496C128.772 57.0943 126.604 53.3444 123.095 51.3181C112.267 45.0675 88.2812 31.2215 71.818 21.7181C68.3062 19.6909 63.9795 19.6918 60.4659 21.719C56.9531 23.7471 54.7898 27.4943 54.7898 31.5505V45.8387C54.7898 49.894 56.954 53.6421 60.4659 55.6694C71.2913 61.9191 95.2832 75.7685 111.74 85.2684C115.255 87.2974 119.58 87.2956 123.094 85.2684C126.603 83.2386 128.771 79.494 128.771 75.4377V61.1487L128.772 61.1496Z" fill="#157FA1"/>
<mask id="mask0_58_38997" style="mask-type:luminance" maskUnits="userSpaceOnUse" x="54" y="20" width="75" height="67">
<path d="M128.772 61.1496C128.772 57.0943 126.604 53.3444 123.095 51.3181C112.267 45.0675 88.2812 31.2215 71.818 21.7181C68.3062 19.6909 63.9795 19.6918 60.4659 21.719C56.9531 23.7471 54.7898 27.4943 54.7898 31.5505V45.8387C54.7898 49.894 56.954 53.6421 60.4659 55.6694C71.2913 61.9191 95.2832 75.7685 111.74 85.2684C115.255 87.2974 119.58 87.2956 123.094 85.2684C126.603 83.2386 128.771 79.494 128.771 75.4377V61.1487L128.772 61.1496Z" fill="white"/>
</mask>
<g mask="url(#mask0_58_38997)">
<path fill-rule="evenodd" clip-rule="evenodd" d="M51.2927 47.2175C55.6542 47.8181 57.3118 43.8167 59.9949 41.4143C61.1884 40.3445 62.6736 39.0598 64.736 39.9102C67.5679 41.0774 69.0975 44.3346 70.6436 47.5648C72.746 51.9578 74.7474 56.1359 78.6502 57.7828C79.9656 58.3372 81.1391 58.4086 82.2987 58.3642C87.765 58.1571 89.675 52.1163 93.1137 48.6676C94.7756 47.0007 96.8606 45.0675 99.9468 46.5942C102.975 48.0931 105.078 51.2859 106.648 54.9661C109.086 60.6796 109.757 67.2653 113.02 72.7307C114.251 74.7962 115.723 76.2777 117.412 77.2126C120.604 78.9795 123.733 79.1989 126.934 82.1436C131.479 86.3242 133.316 95.1539 129.77 96.8756C124.164 99.5983 114.886 91.573 108.083 87.4027C103.213 84.418 98.3571 82.2933 93.4907 79.3408C84.9417 74.1539 76.4094 67.8276 67.87 62.2925C63.5633 59.501 59.1304 58.2833 54.8916 55.0496L51.2936 47.2149L51.2927 47.2175Z" fill="#E6F5F9"/>
<path fill-rule="evenodd" clip-rule="evenodd" d="M77.0796 52.776C77.2659 52.8875 77.4461 52.9867 77.6219 53.0763C77.7168 53.1242 77.7882 53.072 77.7813 52.9606C77.7743 52.8483 77.6933 52.7195 77.6019 52.6733C77.4322 52.588 77.2624 52.494 77.0865 52.3887C76.9917 52.3312 76.9133 52.373 76.9133 52.481C76.9098 52.5872 76.9847 52.7195 77.0796 52.776ZM79.545 53.7039C79.7148 53.7292 79.8811 53.7448 80.0473 53.7535C80.1318 53.7579 80.1692 53.663 80.1283 53.5411C80.0909 53.421 79.989 53.3192 79.9046 53.3148C79.7487 53.307 79.5894 53.2922 79.4266 53.2678C79.3387 53.2548 79.2943 53.3418 79.3282 53.4628C79.3622 53.5838 79.4571 53.6891 79.545 53.7022V53.7039ZM74.6786 50.5355C74.8309 50.7418 74.9867 50.9412 75.1495 51.1318C75.234 51.2301 75.3358 51.251 75.3802 51.1805C75.4212 51.1074 75.3872 50.9699 75.3054 50.8733C75.153 50.6957 75.0068 50.5103 74.8684 50.3205C74.79 50.2152 74.6855 50.1778 74.6307 50.2361C74.5802 50.2962 74.6002 50.4302 74.6786 50.5355ZM56.3419 40.1852C56.4403 40.0721 56.5352 39.9546 56.6335 39.8397C56.6814 39.7761 56.6605 39.6438 56.583 39.5394C56.5021 39.4341 56.3967 39.3992 56.3454 39.4602C56.2505 39.5768 56.1556 39.6926 56.0572 39.8057C56.0067 39.8667 56.0302 40.0016 56.1077 40.106C56.1861 40.2105 56.2905 40.2462 56.3419 40.1852ZM81.7354 53.6056C81.8807 53.5751 82.027 53.542 82.1759 53.5081C82.2507 53.4889 82.2673 53.3758 82.2133 53.2565C82.1593 53.1373 82.054 53.0554 81.9756 53.0729C81.8329 53.1094 81.6875 53.1407 81.5447 53.1703C81.4664 53.186 81.4463 53.2957 81.5003 53.4167C81.5508 53.5351 81.6561 53.6195 81.7345 53.6038L81.7354 53.6056ZM72.9009 47.4864C73.0132 47.7127 73.1246 47.9364 73.2404 48.1593C73.3013 48.2768 73.4067 48.3473 73.4781 48.3177C73.5495 48.289 73.5599 48.1706 73.4981 48.0539C73.3858 47.8363 73.2744 47.6152 73.1655 47.395C73.1081 47.2775 72.9993 47.2009 72.9279 47.227C72.853 47.2514 72.8399 47.3672 72.9009 47.4864ZM57.6773 38.5828C57.7757 38.4714 57.8741 38.3608 57.9759 38.2529C58.0299 38.1954 58.0099 38.0614 57.935 37.9569C57.8567 37.8499 57.7522 37.8116 57.6974 37.8681C57.5955 37.9778 57.4971 38.0901 57.3953 38.2024C57.3448 38.2625 57.3648 38.3965 57.4432 38.501C57.5215 38.6063 57.626 38.6428 57.6773 38.5828ZM83.695 52.9928C83.8308 52.9336 83.9596 52.8674 84.0885 52.8004C84.1564 52.7647 84.1599 52.6429 84.0955 52.5271C84.031 52.4122 83.9222 52.346 83.8543 52.3817C83.7289 52.4479 83.6001 52.5106 83.4713 52.5715C83.3999 52.6028 83.3929 52.7229 83.4573 52.8404C83.5183 52.9562 83.6271 53.0259 83.695 52.9928ZM71.3878 44.3842C71.5001 44.6044 71.6081 44.8246 71.7204 45.0492C71.7779 45.1667 71.8832 45.2416 71.9581 45.2172C72.0329 45.1928 72.0425 45.0753 71.985 44.9578C71.8727 44.7315 71.7613 44.5078 71.649 44.2858C71.5916 44.1692 71.4827 44.0943 71.4113 44.1222C71.34 44.1492 71.3304 44.2667 71.3878 44.3842ZM59.139 37.1822C59.2235 37.117 59.3123 37.056 59.4002 36.996C59.4306 36.9768 59.4611 36.9577 59.4916 36.9385C59.556 36.8967 59.5525 36.7705 59.4846 36.6582C59.4167 36.5451 59.3079 36.4859 59.2435 36.5268C59.213 36.546 59.1825 36.566 59.1521 36.586C59.0607 36.6469 58.9727 36.7113 58.8839 36.7775C58.8195 36.8219 58.83 36.9516 58.8979 37.0613C58.9692 37.1735 59.0772 37.2275 59.139 37.1822ZM85.4144 51.9291C85.5293 51.8386 85.6451 51.7454 85.7539 51.648C85.8148 51.5983 85.8018 51.4678 85.7304 51.359C85.6555 51.2484 85.551 51.2014 85.4892 51.251C85.3804 51.3459 85.269 51.4382 85.1567 51.5278C85.0957 51.5748 85.1062 51.7045 85.1767 51.8151C85.2481 51.9256 85.356 51.9779 85.4144 51.9282V51.9291ZM69.7268 41.389C69.8556 41.5936 69.9845 41.8042 70.1099 42.0175C70.1778 42.1315 70.2866 42.1925 70.351 42.1515C70.4154 42.1115 70.4119 41.9853 70.344 41.8704C70.2152 41.651 70.0829 41.4334 69.9505 41.2228C69.8792 41.1105 69.7712 41.0565 69.7094 41.1027C69.6485 41.1497 69.6554 41.2768 69.7259 41.389H69.7268ZM60.8888 36.27C61.0281 36.23 61.1666 36.1943 61.3128 36.1691C61.3912 36.1543 61.4112 36.0446 61.3607 35.9253C61.3102 35.8061 61.2049 35.7199 61.1265 35.7347C60.9742 35.7617 60.8279 35.7974 60.686 35.8409C60.6111 35.8627 60.5946 35.9758 60.6521 36.0951C60.7095 36.2143 60.8148 36.2927 60.8897 36.27H60.8888ZM86.8995 50.5059C87.0014 50.3954 87.0998 50.2814 87.1981 50.1665C87.2486 50.1056 87.2251 49.9706 87.1476 49.8662C87.0693 49.7617 86.9648 49.726 86.9135 49.787C86.8186 49.9019 86.7202 50.0142 86.6218 50.1247C86.5679 50.183 86.5879 50.3162 86.6662 50.4215C86.7446 50.5277 86.849 50.5651 86.9004 50.5051L86.8995 50.5059ZM67.6984 38.7795C67.8612 38.9431 68.017 39.1103 68.1729 39.2852C68.2538 39.3792 68.3557 39.3966 68.3966 39.3226C68.4375 39.2487 68.4035 39.112 68.3182 39.0162C68.1554 38.8326 67.9857 38.6524 67.8159 38.4809C67.728 38.3921 67.6296 38.3869 67.5991 38.4714C67.5652 38.5532 67.6096 38.6916 67.6975 38.7795H67.6984ZM63.0017 36.1943C63.1645 36.2222 63.3308 36.2587 63.4971 36.3005C63.585 36.3223 63.6398 36.2457 63.612 36.1255C63.5885 36.008 63.4936 35.8923 63.4048 35.8705C63.2315 35.827 63.0592 35.7887 62.8894 35.7591C62.8015 35.7434 62.7536 35.8279 62.7841 35.948C62.8145 36.0672 62.9129 36.1786 63.0008 36.1934L63.0017 36.1943ZM65.3522 37.0247C65.5316 37.1196 65.7013 37.2162 65.8711 37.3198C65.966 37.3781 66.0443 37.3381 66.0443 37.2301C66.0478 37.1248 65.9764 36.9925 65.8815 36.9342C65.7048 36.8262 65.5255 36.7235 65.3392 36.6252C65.2443 36.5747 65.1729 36.6252 65.1764 36.7357C65.1833 36.848 65.2608 36.9768 65.3531 37.0238L65.3522 37.0247ZM88.2193 48.8652C88.3107 48.7433 88.4021 48.6206 88.4944 48.497C88.5423 48.4317 88.5144 48.2959 88.4335 48.1932C88.3525 48.0914 88.2507 48.0635 88.2028 48.1288C88.1114 48.2515 88.02 48.3734 87.9312 48.497C87.8807 48.5597 87.9077 48.6963 87.9886 48.799C88.067 48.9 88.1714 48.9305 88.2193 48.8652ZM89.4668 47.1417C89.5548 47.0173 89.6462 46.8945 89.735 46.7701C89.7828 46.7039 89.755 46.5681 89.6775 46.4689C89.5965 46.367 89.4912 46.3366 89.4433 46.4027C89.3554 46.5281 89.264 46.6508 89.1752 46.7761C89.1273 46.8423 89.1552 46.9772 89.2327 47.0773C89.3136 47.1792 89.4189 47.2088 89.4668 47.1426V47.1417Z" fill="white"/>
<path fill-rule="evenodd" clip-rule="evenodd" d="M118.287 74.6578C118.466 74.7571 118.643 74.8493 118.823 74.939C118.918 74.986 118.986 74.932 118.982 74.8223C118.975 74.7109 118.895 74.5821 118.8 74.5342C118.626 74.4481 118.454 74.3575 118.281 74.2618C118.186 74.2096 118.111 74.2557 118.114 74.3662C118.114 74.4742 118.193 74.6047 118.288 74.6578H118.287ZM125.513 78.7288C125.564 78.7802 125.612 78.8307 125.662 78.8838C125.747 78.9743 125.849 78.9856 125.883 78.9055C125.92 78.8272 125.879 78.6897 125.791 78.5974C125.741 78.5426 125.686 78.4869 125.635 78.4338C125.547 78.3441 125.449 78.3389 125.415 78.4198C125.381 78.5017 125.425 78.6401 125.513 78.7288ZM115.811 72.8151C115.977 72.9823 116.153 73.1468 116.33 73.3017C116.421 73.3809 116.513 73.3713 116.537 73.2799C116.561 73.1894 116.507 73.051 116.415 72.9718C116.249 72.8264 116.086 72.6741 115.927 72.5148C115.839 72.4269 115.74 72.4226 115.71 72.5061C115.676 72.5879 115.724 72.7281 115.812 72.816L115.811 72.8151ZM120.745 75.7946C120.922 75.8686 121.094 75.9417 121.271 76.0175C121.363 76.0566 121.43 75.9974 121.417 75.8825C121.403 75.7676 121.319 75.6432 121.228 75.604C121.051 75.5283 120.875 75.4543 120.702 75.382C120.607 75.342 120.543 75.4038 120.556 75.5187C120.57 75.6336 120.655 75.7572 120.746 75.7955L120.745 75.7946ZM123.166 76.9331C123.34 77.0315 123.512 77.136 123.685 77.2465C123.78 77.3074 123.858 77.2691 123.865 77.1647C123.868 77.0594 123.797 76.9253 123.705 76.867C123.526 76.7521 123.346 76.6442 123.163 76.5397C123.071 76.4875 122.993 76.531 122.997 76.6407C122.997 76.7486 123.071 76.8783 123.166 76.9331ZM113.695 70.0419C113.823 70.2613 113.959 70.478 114.101 70.6921C114.173 70.801 114.281 70.8523 114.339 70.8018C114.396 70.7513 114.387 70.6225 114.315 70.5128C114.183 70.3109 114.054 70.1046 113.929 69.8948C113.861 69.7808 113.752 69.7216 113.688 69.7625C113.623 69.8034 113.627 69.9296 113.695 70.0437V70.0419ZM112.155 66.891C112.246 67.1208 112.344 67.3523 112.443 67.5795C112.497 67.7005 112.602 67.7849 112.68 67.7701C112.759 67.7544 112.779 67.6448 112.725 67.5238C112.63 67.3027 112.535 67.079 112.444 66.8535C112.396 66.7334 112.291 66.6438 112.209 66.6533C112.131 66.6647 112.104 66.7691 112.155 66.891H112.155ZM111.035 63.6939C111.103 63.9211 111.178 64.1526 111.252 64.3833C111.289 64.5034 111.391 64.6052 111.476 64.6096C111.56 64.6139 111.597 64.519 111.56 64.3989C111.485 64.1709 111.415 63.9446 111.347 63.72C111.309 63.599 111.211 63.4963 111.123 63.4876C111.039 63.4815 110.998 63.5729 111.035 63.6939ZM110.15 60.5272C110.211 60.7518 110.268 60.9773 110.329 61.2079C110.363 61.3289 110.458 61.436 110.546 61.4499C110.634 61.4638 110.682 61.3794 110.648 61.2575C110.587 61.0277 110.529 60.8032 110.471 60.5812C110.437 60.4602 110.342 60.3514 110.254 60.3366C110.166 60.3218 110.118 60.4071 110.149 60.5264L110.15 60.5272Z" fill="white"/>
</g>
</g>
<defs>
<clipPath id="clip0_58_38997">
<rect width="298" height="220" fill="white"/>
</clipPath>
</defs>
</svg>
