<svg width="24" height="24" viewBox="0 0 24 24" fill="none" xmlns="http://www.w3.org/2000/svg">
<path d="M7.83 12.9525C7.61264 12.4112 7.50064 11.8333 7.5 11.25V5.24999C7.50086 4.26682 7.82368 3.31098 8.41911 2.52862C9.01453 1.74625 9.8498 1.18042 10.7972 0.917631C11.7446 0.654842 12.752 0.709558 13.6654 1.07341C14.5787 1.43727 15.3478 2.09024 15.855 2.93249C15.9167 3.01736 15.9599 3.11424 15.9819 3.21687C16.0038 3.31949 16.004 3.42558 15.9823 3.52827C15.9607 3.63095 15.9177 3.72796 15.8563 3.813C15.7948 3.89805 15.7161 3.96925 15.6254 4.022C15.5347 4.07474 15.4339 4.10786 15.3296 4.11921C15.2252 4.13057 15.1197 4.1199 15.0198 4.0879C14.9198 4.0559 14.8277 4.00328 14.7494 3.93345C14.671 3.86362 14.6082 3.77812 14.565 3.68249C14.2995 3.24078 13.9231 2.87618 13.4731 2.62489C13.0232 2.3736 12.5153 2.24436 12 2.24999C11.2044 2.24999 10.4413 2.56606 9.87868 3.12867C9.31607 3.69128 9 4.45434 9 5.24999V11.25C8.99921 11.6387 9.07569 12.0236 9.225 12.3825C9.27192 12.4967 9.28992 12.6207 9.2774 12.7436C9.26487 12.8664 9.22222 12.9843 9.15321 13.0866C9.08421 13.189 8.99099 13.2728 8.88184 13.3305C8.77269 13.3882 8.65097 13.4181 8.5275 13.4175C8.37815 13.4182 8.23198 13.3744 8.10772 13.2915C7.98345 13.2087 7.88675 13.0906 7.83 12.9525ZM12.75 19.5V21.75H15.75C15.9489 21.75 16.1397 21.829 16.2803 21.9697C16.421 22.1103 16.5 22.3011 16.5 22.5C16.5 22.6989 16.421 22.8897 16.2803 23.0303C16.1397 23.171 15.9489 23.25 15.75 23.25H8.25C8.05109 23.25 7.86032 23.171 7.71967 23.0303C7.57902 22.8897 7.5 22.6989 7.5 22.5C7.5 22.3011 7.57902 22.1103 7.71967 21.9697C7.86032 21.829 8.05109 21.75 8.25 21.75H11.25V19.4475C10.2032 19.3488 9.18495 19.051 8.25 18.57L5.1075 22.935C5.03849 23.0319 4.9474 23.111 4.84177 23.1658C4.73614 23.2206 4.61899 23.2494 4.5 23.25C4.34369 23.249 4.19161 23.1992 4.065 23.1075C3.9045 22.9917 3.7963 22.8171 3.76399 22.6218C3.73167 22.4265 3.77787 22.2264 3.8925 22.065L18.8925 1.06499C19.0146 0.922444 19.1856 0.830836 19.3719 0.808253C19.5582 0.78567 19.7462 0.833754 19.8988 0.943012C20.0514 1.05227 20.1575 1.21476 20.1961 1.39841C20.2348 1.58206 20.2031 1.77352 20.1075 1.93499L16.5 6.98999V11.25C16.5 11.8409 16.3836 12.4261 16.1575 12.9721C15.9313 13.518 15.5998 14.0141 15.182 14.432C14.7641 14.8498 14.268 15.1813 13.7221 15.4075C13.1761 15.6336 12.5909 15.75 12 15.75C11.4695 15.7498 10.9435 15.6532 10.4475 15.465L9.105 17.34C10.0091 17.7721 10.998 17.9976 12 18C13.7902 18 15.5071 17.2888 16.773 16.023C18.0388 14.7571 18.75 13.0402 18.75 11.25C18.75 11.0511 18.829 10.8603 18.9697 10.7197C19.1103 10.579 19.3011 10.5 19.5 10.5C19.6989 10.5 19.8897 10.579 20.0303 10.7197C20.171 10.8603 20.25 11.0511 20.25 11.25C20.2585 13.3141 19.493 15.3064 18.1046 16.8337C16.7161 18.361 14.8056 19.3124 12.75 19.5ZM15 9.12749L11.3625 14.22C11.5734 14.2521 11.787 14.2622 12 14.25C12.7956 14.25 13.5587 13.9339 14.1213 13.3713C14.6839 12.8087 15 12.0456 15 11.25V9.12749ZM6.1725 16.7175C6.31379 16.7166 6.45194 16.6757 6.57104 16.5997C6.69015 16.5237 6.78536 16.4156 6.84571 16.2879C6.90606 16.1601 6.92909 16.0179 6.91216 15.8776C6.89523 15.7374 6.83902 15.6047 6.75 15.495C5.77893 14.2934 5.24946 12.795 5.25 11.25C5.25 11.0511 5.17098 10.8603 5.03033 10.7197C4.88968 10.579 4.69891 10.5 4.5 10.5C4.30109 10.5 4.11032 10.579 3.96967 10.7197C3.82902 10.8603 3.75 11.0511 3.75 11.25C3.75436 13.1386 4.40252 14.9693 5.5875 16.44C5.65809 16.527 5.74728 16.5971 5.84851 16.6451C5.94975 16.6931 6.06045 16.7179 6.1725 16.7175Z" fill="black"/>
</svg>
