<svg width="54" height="32" viewBox="0 0 54 32" fill="none" xmlns="http://www.w3.org/2000/svg">
<rect width="54" height="32" rx="4" fill="#F0F2F2"/>
<rect x="0.5" y="0.5" width="53" height="31" rx="3.5" stroke="#001E27" stroke-opacity="0.2"/>
<path fill-rule="evenodd" clip-rule="evenodd" d="M29.07 16.9525L33.3675 21.25L32.25 22.3675L27.9525 18.07C27.15 18.6475 26.1825 19 25.125 19C22.4325 19 20.25 16.8175 20.25 14.125C20.25 11.4325 22.4325 9.25 25.125 9.25C27.8175 9.25 30 11.4325 30 14.125C30 15.1825 29.6475 16.15 29.07 16.9525ZM25.125 10.75C23.2575 10.75 21.75 12.2575 21.75 14.125C21.75 15.9925 23.2575 17.5 25.125 17.5C26.9925 17.5 28.5 15.9925 28.5 14.125C28.5 12.2575 26.9925 10.75 25.125 10.75Z" fill="#001E27" fill-opacity="0.8"/>
</svg>
