<svg width="18" height="18" viewBox="0 0 18 18" fill="none" xmlns="http://www.w3.org/2000/svg">
<path d="M8.89229 16.6462C13.1746 16.6462 16.6461 13.1746 16.6461 8.89231C16.6461 4.60998 13.1746 1.13846 8.89229 1.13846C4.60997 1.13846 1.13846 4.60998 1.13846 8.89231C1.13846 13.1746 4.60997 16.6462 8.89229 16.6462Z" fill="#D13384" stroke="white" stroke-width="1.72308"/>
<path d="M13.1541 11.6375C13.1541 11.7875 13.1208 11.9417 13.0499 12.0917C12.9791 12.2417 12.8874 12.3834 12.7666 12.5167C12.5624 12.7417 12.3374 12.9042 12.0833 13.0084C11.8333 13.1125 11.5624 13.1667 11.2708 13.1667C10.8458 13.1667 10.3916 13.0667 9.91242 12.8625C9.43325 12.6584 8.95409 12.3834 8.47909 12.0375C7.99992 11.6875 7.54575 11.3 7.11242 10.8709C6.68325 10.4375 6.29575 9.98337 5.94992 9.50837C5.60825 9.03337 5.33325 8.55837 5.13325 8.08754C4.93325 7.61254 4.83325 7.15837 4.83325 6.72504C4.83325 6.44171 4.88325 6.17087 4.98325 5.92087C5.08325 5.66671 5.24159 5.43337 5.46242 5.22504C5.72909 4.96254 6.02075 4.83337 6.32909 4.83337C6.44575 4.83337 6.56242 4.85837 6.66659 4.90837C6.77492 4.95837 6.87075 5.03337 6.94575 5.14171L7.91242 6.50421C7.98742 6.60837 8.04159 6.70421 8.07909 6.79587C8.11659 6.88337 8.13742 6.97087 8.13742 7.05004C8.13742 7.15004 8.10825 7.25004 8.04992 7.34587C7.99575 7.44171 7.91659 7.54171 7.81659 7.64171L7.49992 7.97087C7.45409 8.01671 7.43325 8.07087 7.43325 8.13754C7.43325 8.17087 7.43742 8.20004 7.44575 8.23337C7.45825 8.26671 7.47075 8.29171 7.47909 8.31671C7.55409 8.45421 7.68325 8.63337 7.86659 8.85004C8.05409 9.06671 8.25409 9.28754 8.47075 9.50837C8.69575 9.72921 8.91242 9.93337 9.13325 10.1209C9.34992 10.3042 9.52909 10.4292 9.67075 10.5042C9.69159 10.5125 9.71659 10.525 9.74575 10.5375C9.77909 10.55 9.81242 10.5542 9.84992 10.5542C9.92075 10.5542 9.97492 10.5292 10.0208 10.4834L10.3374 10.1709C10.4416 10.0667 10.5416 9.98754 10.6374 9.93754C10.7333 9.87921 10.8291 9.85004 10.9333 9.85004C11.0124 9.85004 11.0958 9.86671 11.1874 9.90421C11.2791 9.94171 11.3749 9.99587 11.4791 10.0667L12.8583 11.0459C12.9666 11.1209 13.0416 11.2084 13.0874 11.3125C13.1291 11.4167 13.1541 11.5209 13.1541 11.6375Z" fill="white"/>
</svg>
