<svg width="40" height="40" viewBox="0 0 40 40" fill="none" xmlns="http://www.w3.org/2000/svg">
<path d="M20.3202 33.3197C17.0897 33.3197 14.2423 32.3338 11.7782 30.3621C9.31405 28.3904 7.73483 25.8675 7.04054 22.7936C6.954 22.4742 7.00601 22.1806 7.19658 21.9128C7.38715 21.645 7.65703 21.4894 8.00621 21.4461C8.33485 21.4029 8.62949 21.4678 8.89012 21.6408C9.15073 21.8139 9.33254 22.0683 9.43555 22.4042C10.0475 24.8869 11.3656 26.925 13.3898 28.5187C15.4141 30.1123 17.7242 30.9092 20.3202 30.9092C23.454 30.9092 26.1123 29.8177 28.2952 27.6348C30.4781 25.4519 31.5695 22.7936 31.5695 19.6599C31.5695 16.5261 30.4781 13.8678 28.2952 11.6849C26.1123 9.50198 23.454 8.41053 20.3202 8.41053C18.5648 8.41053 16.9197 8.80044 15.3847 9.58026C13.8498 10.3601 12.5281 11.433 11.4197 12.799H14.4175C14.7589 12.799 15.0452 12.9145 15.2762 13.1457C15.5072 13.3767 15.6227 13.6631 15.6227 14.0048C15.6227 14.3464 15.5072 14.6326 15.2762 14.8633C15.0452 15.0941 14.7589 15.2095 14.4175 15.2095H8.91648C8.50494 15.2095 8.15998 15.0703 7.88158 14.7919C7.60319 14.5135 7.46399 14.1685 7.46399 13.757V8.25602C7.46399 7.91452 7.57954 7.62826 7.81063 7.39725C8.04175 7.16624 8.32813 7.05073 8.66976 7.05073C9.01142 7.05073 9.29762 7.16624 9.52836 7.39725C9.75911 7.62826 9.87448 7.91452 9.87448 8.25602V10.8582C11.1786 9.31918 12.7404 8.12472 14.5596 7.27483C16.3789 6.42495 18.2991 6 20.3202 6C22.2165 6 23.9926 6.35851 25.6487 7.07552C27.3048 7.7925 28.7489 8.76702 29.981 9.99906C31.213 11.2311 32.1875 12.6751 32.9045 14.331C33.6215 15.9869 33.98 17.7629 33.98 19.659C33.98 21.555 33.6215 23.3313 32.9045 24.9878C32.1875 26.6443 31.213 28.0886 29.981 29.3206C28.7489 30.5527 27.3048 31.5272 25.6487 32.2442C23.9926 32.9612 22.2165 33.3197 20.3202 33.3197ZM21.5718 19.1716L25.9912 23.591C26.2137 23.8135 26.3275 24.0932 26.3327 24.43C26.3379 24.7669 26.224 25.0517 25.9912 25.2845C25.7584 25.5173 25.4762 25.6337 25.1444 25.6337C24.8127 25.6337 24.5305 25.5173 24.2977 25.2845L19.597 20.5839C19.4467 20.4335 19.3364 20.2696 19.2664 20.0922C19.1963 19.9149 19.1613 19.7316 19.1613 19.5424V12.8299C19.1613 12.4884 19.2769 12.2022 19.508 11.9711C19.7391 11.7401 20.0255 11.6246 20.3671 11.6246C20.7088 11.6246 20.995 11.7401 21.2257 11.9711C21.4565 12.2022 21.5718 12.4884 21.5718 12.8299V19.1716Z" fill="#111827"/>
</svg>
