<svg width="16" height="16" viewBox="0 0 16 16" fill="none" xmlns="http://www.w3.org/2000/svg">
<g clip-path="url(#clip0_2795_125554)">
<path fill-rule="evenodd" clip-rule="evenodd" d="M8 16C12.4183 16 16 12.4183 16 8C16 3.58172 12.4183 0 8 0C3.58172 0 0 3.58172 0 8C0 12.4183 3.58172 16 8 16Z" fill="#57BB63"/>
<path fill-rule="evenodd" clip-rule="evenodd" d="M7.84611 4.30769C5.55202 4.30769 3.69226 5.7927 3.69226 7.62457C3.69226 8.55537 4.17305 9.3961 4.94645 9.99846C5.16625 11.2018 4.10405 11.4242 4.10405 11.4242C4.10405 11.4242 3.97141 11.5939 4.30099 11.6566C5.6275 11.8983 6.70016 10.8341 6.70016 10.8341L6.70137 10.8128C7.06517 10.8959 7.44891 10.9414 7.84611 10.9414C10.1403 10.9414 12 9.45636 12 7.62449C12 5.79262 10.1403 4.30769 7.84611 4.30769Z" fill="white"/>
</g>
<defs>
<clipPath id="clip0_2795_125554">
<rect width="16" height="16" fill="white"/>
</clipPath>
</defs>
</svg>
