<svg width="18" height="18" viewBox="0 0 18 18" fill="none" xmlns="http://www.w3.org/2000/svg">
<path d="M8.89229 16.6462C13.1746 16.6462 16.6461 13.1746 16.6461 8.89231C16.6461 4.60998 13.1746 1.13846 8.89229 1.13846C4.60997 1.13846 1.13846 4.60998 1.13846 8.89231C1.13846 13.1746 4.60997 16.6462 8.89229 16.6462Z" fill="#2BB3AE" stroke="white" stroke-width="1.72308"/>
<path d="M7.54166 11.9166H7.33333C5.66666 11.9166 4.83333 11.5 4.83333 9.41665V7.33331C4.83333 5.66665 5.66666 4.83331 7.33333 4.83331H10.6667C12.3333 4.83331 13.1667 5.66665 13.1667 7.33331V9.41665C13.1667 11.0833 12.3333 11.9166 10.6667 11.9166H10.4583C10.3292 11.9166 10.2042 11.9791 10.125 12.0833L9.5 12.9166C9.225 13.2833 8.775 13.2833 8.5 12.9166L7.875 12.0833C7.80833 11.9916 7.65416 11.9166 7.54166 11.9166Z" fill="white"/>
<path fill-rule="evenodd" clip-rule="evenodd" d="M10.6652 8.58333H10.6689H10.6652Z" fill="#2BB3AE"/>
<path d="M10.6652 8.58333H10.6689" stroke="#2BB3AE" stroke-width="0.48" stroke-linecap="round" stroke-linejoin="round"/>
<path d="M8.99811 8.58333H9.00186" stroke="#2BB3AE" stroke-width="1.2" stroke-linecap="round" stroke-linejoin="round"/>
<path d="M7.33104 8.58333H7.33479" stroke="#2BB3AE" stroke-width="1.2" stroke-linecap="round" stroke-linejoin="round"/>
</svg>
