<svg width="18" height="18" viewBox="0 0 18 18" fill="none" xmlns="http://www.w3.org/2000/svg">
<path d="M8.89229 16.6462C13.1746 16.6462 16.6461 13.1746 16.6461 8.89231C16.6461 4.60998 13.1746 1.13846 8.89229 1.13846C4.60997 1.13846 1.13846 4.60998 1.13846 8.89231C1.13846 13.1746 4.60997 16.6462 8.89229 16.6462Z" fill="#ECEDF3" stroke="white" stroke-width="1.72308"/>
<path d="M7.54171 11.9173H7.33337C5.66671 11.9173 4.83337 11.5007 4.83337 9.41732V7.33398C4.83337 5.66732 5.66671 4.83398 7.33337 4.83398H10.6667C12.3334 4.83398 13.1667 5.66732 13.1667 7.33398V9.41732C13.1667 11.084 12.3334 11.9173 10.6667 11.9173H10.4584C10.3292 11.9173 10.2042 11.9798 10.125 12.084L9.50004 12.9173C9.22504 13.284 8.77504 13.284 8.50004 12.9173L7.87504 12.084C7.80837 11.9923 7.65421 11.9173 7.54171 11.9173Z" fill="#111827"/>
<path fill-rule="evenodd" clip-rule="evenodd" d="M10.6652 8.58333H10.6689H10.6652Z" fill="#111827"/>
<path d="M10.6652 8.58333H10.6689" stroke="white" stroke-width="0.6" stroke-linecap="round" stroke-linejoin="round"/>
<path d="M8.99816 8.58333H9.0019" stroke="white" stroke-width="1.5" stroke-linecap="round" stroke-linejoin="round"/>
<path d="M7.33104 8.58333H7.33479" stroke="white" stroke-width="1.5" stroke-linecap="round" stroke-linejoin="round"/>
</svg>
