<svg width="40" height="40" viewBox="0 0 40 40" fill="none" xmlns="http://www.w3.org/2000/svg">
<path d="M9.57695 31.1499C8.87104 31.1499 8.26675 30.8986 7.76407 30.3959C7.26136 29.8932 7.01001 29.2889 7.01001 28.583V24.6917C7.01001 24.4587 7.07692 24.2521 7.21073 24.0718C7.34454 23.8916 7.5234 23.7687 7.74731 23.7032C8.36994 23.4137 8.87605 22.9839 9.26565 22.4137C9.65523 21.8435 9.85002 21.2054 9.85002 20.4994C9.85002 19.7934 9.65523 19.1555 9.26565 18.5857C8.87605 18.0158 8.36994 17.5862 7.74731 17.2967C7.5234 17.2312 7.34454 17.1083 7.21073 16.9281C7.07692 16.7479 7.01001 16.5412 7.01001 16.3082V12.4169C7.01001 11.711 7.26136 11.1067 7.76407 10.6041C8.26675 10.1014 8.87104 9.85001 9.57695 9.85001H31.4231C32.129 9.85001 32.7333 10.1014 33.236 10.6041C33.7387 11.1067 33.99 11.711 33.99 12.4169V16.3082C33.99 16.5412 33.9231 16.7479 33.7893 16.9281C33.6555 17.1083 33.4766 17.2312 33.2527 17.2967C32.6301 17.5862 32.124 18.0161 31.7344 18.5863C31.3448 19.1565 31.15 19.7946 31.15 20.5005C31.15 21.2065 31.3448 21.8444 31.7344 22.4143C32.124 22.9841 32.6301 23.4137 33.2527 23.7032C33.4766 23.7687 33.6555 23.8916 33.7893 24.0718C33.9231 24.2521 33.99 24.4587 33.99 24.6917V28.583C33.99 29.2889 33.7387 29.8932 33.236 30.3959C32.7333 30.8986 32.129 31.1499 31.4231 31.1499H9.57695ZM9.57695 29.02H31.4231C31.5505 29.02 31.6552 28.979 31.7371 28.8971C31.8191 28.8151 31.86 28.7104 31.86 28.583V25.399C30.9844 24.8783 30.2921 24.1861 29.7833 23.3222C29.2744 22.4584 29.02 21.5176 29.02 20.5C29.02 19.4823 29.2744 18.5416 29.7833 17.6777C30.2921 16.8139 30.9844 16.1216 31.86 15.601V12.4169C31.86 12.2895 31.8191 12.1848 31.7371 12.1029C31.6552 12.0209 31.5505 11.98 31.4231 11.98H9.57695C9.44951 11.98 9.34482 12.0209 9.26288 12.1029C9.18095 12.1848 9.13998 12.2895 9.13998 12.4169V15.601C10.0156 16.1216 10.7079 16.8139 11.2167 17.6777C11.7256 18.5416 11.98 19.4823 11.98 20.5C11.98 21.5176 11.7256 22.4584 11.2167 23.3222C10.7079 24.1861 10.0156 24.8783 9.13998 25.399V28.583C9.13998 28.7104 9.18095 28.8151 9.26288 28.8971C9.34482 28.979 9.44951 29.02 9.57695 29.02ZM20.5005 27.1084C20.8024 27.1084 21.0553 27.0063 21.2591 26.8021C21.463 26.5979 21.565 26.3448 21.565 26.0429C21.565 25.7411 21.4629 25.4882 21.2587 25.2843C21.0545 25.0804 20.8014 24.9784 20.4995 24.9784C20.1977 24.9784 19.9448 25.0806 19.7409 25.2848C19.537 25.489 19.435 25.742 19.435 26.0439C19.435 26.3458 19.5371 26.5987 19.7413 26.8026C19.9456 27.0065 20.1986 27.1084 20.5005 27.1084ZM20.5005 21.5649C20.8024 21.5649 21.0553 21.4628 21.2591 21.2586C21.463 21.0544 21.565 20.8014 21.565 20.4995C21.565 20.1976 21.4629 19.9447 21.2587 19.7408C21.0545 19.537 20.8014 19.435 20.4995 19.435C20.1977 19.435 19.9448 19.5371 19.7409 19.7413C19.537 19.9455 19.435 20.1986 19.435 20.5004C19.435 20.8023 19.5371 21.0552 19.7413 21.2591C19.9456 21.463 20.1986 21.5649 20.5005 21.5649ZM20.5005 16.0215C20.8024 16.0215 21.0553 15.9194 21.2591 15.7152C21.463 15.511 21.565 15.2579 21.565 14.956C21.565 14.6542 21.4629 14.4013 21.2587 14.1974C21.0545 13.9935 20.8014 13.8915 20.4995 13.8915C20.1977 13.8915 19.9448 13.9937 19.7409 14.1979C19.537 14.4021 19.435 14.6551 19.435 14.957C19.435 15.2589 19.5371 15.5118 19.7413 15.7157C19.9456 15.9196 20.1986 16.0215 20.5005 16.0215Z" fill="#111827"/>
</svg>
