<svg width="25" height="26" viewBox="0 0 25 26" fill="none" xmlns="http://www.w3.org/2000/svg">
<path fill-rule="evenodd" clip-rule="evenodd" d="M21.9282 0.580017H2.91212C1.29612 0.580017 -0.0176977 1.89383 0.000180322 3.49196V22.5081C0.000642414 23.2802 0.307586 24.0206 0.853581 24.5666C1.39957 25.1126 2.13996 25.4195 2.91212 25.42H21.9282C22.7004 25.4195 23.4408 25.1126 23.9867 24.5666C24.5328 24.0206 24.8397 23.2802 24.8402 22.5081V3.49196C24.8397 2.7198 24.5328 1.97941 23.9867 1.43341C23.4408 0.887421 22.7004 0.580479 21.9282 0.580017ZM21.3218 19.2785H19.3391L17.1309 16.1991C18.1072 15.4181 18.678 14.2164 18.678 12.8341C18.678 10.4454 16.7249 8.32754 14.3367 8.32754H7.96735V19.2785H6.34483V8.32754H3.52052V6.70502H14.9223C16.4847 6.70502 17.6114 7.45634 18.6327 8.47758C19.6224 9.46861 20.2089 10.7919 20.2783 12.1907C20.3478 13.5897 19.8953 14.9645 19.0085 16.0487C19.1136 16.1991 20.4807 18.1068 21.3218 19.2785ZM15.0858 16.0941C15.6595 15.8483 16.1536 15.4479 16.513 14.9376C16.9579 14.2857 17.1458 13.4922 17.0404 12.71C16.935 11.9279 16.5438 11.2124 15.9422 10.7014C15.3562 10.2057 14.5905 9.95015 13.8243 9.95015H9.58811C9.58613 9.95005 9.58416 9.95041 9.58233 9.95111C9.58115 9.95161 9.58005 9.95223 9.57904 9.95299C9.57849 9.95341 9.57796 9.95386 9.57747 9.95436C9.5761 9.95573 9.57498 9.9574 9.57427 9.95922C9.57356 9.96105 9.57321 9.96298 9.57326 9.96495V19.2933H11.1958V16.2288H13.1938L15.3871 19.2933H17.355C17.355 19.2933 17.3698 19.2785 17.355 19.2785L15.0876 16.0954L15.0858 16.0941ZM14.2765 14.5452C14.1948 14.5755 14.1081 14.5903 14.021 14.5888C14.0009 14.5888 13.9802 14.5919 13.9579 14.5953C13.9316 14.5993 13.903 14.6037 13.8705 14.6037H11.2242V11.5722H13.748C14.4993 11.5722 15.1752 11.9328 15.3706 12.624C15.6283 13.4503 15.1011 14.3063 14.2765 14.5452Z" fill="white"/>
</svg>
