<svg width="40" height="40" viewBox="0 0 40 40" fill="none" xmlns="http://www.w3.org/2000/svg">
<path fill-rule="evenodd" clip-rule="evenodd" d="M35.3112 0H4.6894C2.08715 0 -0.0284987 2.11564 0.000290373 4.68911V35.3109C0.00103448 36.5543 0.495307 37.7465 1.37453 38.6258C2.25374 39.5049 3.446 39.9992 4.6894 40H35.3112C36.5546 39.9992 37.7468 39.5049 38.626 38.6258C39.5053 37.7465 39.9995 36.5543 40.0003 35.3109V4.68911C39.9995 3.44571 39.5053 2.25344 38.626 1.37423C37.7468 0.495015 36.5546 0.000744426 35.3112 0ZM34.3344 30.1114H31.1416L27.5858 25.1526C29.158 23.895 30.0771 21.9598 30.0771 19.734C30.0771 15.8875 26.932 12.477 23.0862 12.477H12.8297V30.1114H10.2169V12.477H5.66888V9.86423H24.0293C26.5452 9.86423 28.3596 11.0741 30.0041 12.7186C31.5978 14.3145 32.5423 16.4453 32.6541 18.6979C32.7659 20.9506 32.0372 23.1645 30.6094 24.9104C30.7786 25.1526 32.9799 28.2246 34.3344 30.1114ZM24.293 24.9833C25.2169 24.5875 26.0126 23.9428 26.5913 23.1211C27.3077 22.0713 27.6102 20.7935 27.4405 19.534C27.2708 18.2744 26.6408 17.1222 25.6721 16.2995C24.7284 15.5012 23.4954 15.0897 22.2617 15.0897H15.4401C15.4369 15.0895 15.4337 15.0901 15.4308 15.0912C15.4278 15.0925 15.4252 15.0942 15.4229 15.0965C15.4207 15.0987 15.4189 15.1014 15.4178 15.1043C15.4166 15.1072 15.4161 15.1103 15.4162 15.1135V30.1351H18.029V25.2002H21.2463L24.7782 30.1351H27.9472C27.9472 30.1351 27.971 30.1112 27.9472 30.1112L24.2959 24.9854L24.293 24.9833ZM22.9898 22.4891C22.8582 22.5379 22.7187 22.5618 22.5783 22.5593C22.5461 22.5593 22.5128 22.5644 22.4768 22.5698L22.4768 22.5698C22.4345 22.5763 22.3884 22.5832 22.3361 22.5832H18.0746V17.7017H22.1388C23.3486 17.7017 24.437 18.2824 24.7516 19.3954C25.1666 20.726 24.3176 22.1043 22.9898 22.4891Z" fill="#1F2937"/>
</svg>
